<svg xmlns="http://www.w3.org/2000/svg" viewBox="0 0 1791.16 558.33"><defs><style>.a{fill:#191923;}.b{fill:#6dbb58;}.c{fill:#3786c8;}</style></defs><path class="a" d="M732.57,1140l15.26-24.69H1921.14L1906,1140Z" transform="translate(-129.98 -736.26)"/><path class="a" d="M1466.43,831.42h-43.91V810.07h43.14c.7-7.22,1.25-13,1.82-18.94h46.18c.34,6.07.67,12.15,1,18.79h60.09v262a17.87,17.87,0,0,1-3.11.52c-14.21.28-28.42.68-42.63.62a19.58,19.58,0,0,1-9.42-2.72c-8.66-5.15-17-10.79-26.14-16.63-1.3,6.65-2.44,12.48-3.61,18.48H1435C1458.78,993.52,1460.65,912.56,1466.43,831.42Zm46.49.15c-.35,68.18-4.85,135.65-16.08,202.63l24.8,11.66V831.57Z" transform="translate(-129.98 -736.26)"/><path class="b" d="M668.63,1258.09c-5.8,2.52-11.48,5.36-17.41,7.52A400,400,0,0,1,547.56,1289c-24.19,2-48.61,3.63-72.84,2.76-67.44-2.44-130.69-19.83-188-56.7-48.66-31.32-86.37-73-116.14-122.18A484.58,484.58,0,0,1,131.25,1032c-.43-1.14-.69-2.35-1.27-4.41l64.76-18.77c3.06,7.4,6,14.39,8.84,21.43,19.18,48,45.7,91.4,81.42,129,52.38,55.21,116.63,87.86,191,101.61a427.69,427.69,0,0,0,106.71,5.77c27-1.82,53.86-6.46,80.78-9.83,1.53-.19,3.08-.29,4.62-.43C668.3,1257,668.46,1257.52,668.63,1258.09Z" transform="translate(-129.98 -736.26)"/><path class="a" d="M1250.05,1071.09h-58V985.41h-70.53V964.6h69.4V861.55h-20.65q-3.27,30.11-6.57,60.41h-47.84c4-41.75,7.84-82.76,11.73-123.89h46.3c-.8,14-1.57,27.54-2.36,41.5h20.11V794.66h57.16v43h55.64v21.92h-55.72V963.7h60v21.35h-58.59Z" transform="translate(-129.98 -736.26)"/><path class="a" d="M896.82,886H930c-.51,10.28-1,19.63-1.45,29.52h36.57C976.56,967.4,988,1019,999.59,1071.4H949.24L925.42,955.8l-1.6-.14c-7.4,38.5-12.74,77.46-24.26,115.74H843.91c24-59.14,34.24-120.82,39.7-184.38H842.45c6.7-32.32,13.26-64,19.89-95.93h50.78c-.54,5.09-1.07,10.07-1.7,16h85.12c-3.24,24.36-6.33,47.67-9.47,71.31H932.32L944.14,828H908C904.37,846.87,900.7,865.9,896.82,886Z" transform="translate(-129.98 -736.26)"/><path class="a" d="M1740.3,1046.81h100c-10.45-23.93-20.6-47.19-31-71h59.65c14.27,30.91,28.67,62.11,43.64,94.56h-249.1c.24-10.27-1.68-20.85,3.7-31.22,12-23,23.33-46.38,34.91-69.61,1.09-2.2,2-4.49,3.46-7.8h-55.34V939.52h266.06c.35,7,.7,13.93,1.08,21.58H1779.19Z" transform="translate(-129.98 -736.26)"/><path class="a" d="M822.36,1070.9H768.2v-69.57l-47.88,4.43c-.67-7.52-1.29-14.66-2-22.8l49.15-5.41V934H723.64c.72-10.11.4-18.87,2.12-27.2,4.47-21.73,9.85-43.28,14.83-64.91.34-1.5.35-3.08.61-5.44H719.49V816.58H746c1.9-8,3.73-15.64,5.43-22.81h52.1c-1.89,7.89-3.56,14.83-5.41,22.54h47.64v20H790.81c-1.11,6.52-2.14,12.54-3.3,19.32H822c1.17,19.11.12,37.66.65,57h28v20.58H823v38.3l30.79-3.27v24.58L822.36,996ZM783.07,882.27l-1.72-.35c-3,10-6,20.09-9.08,30.54h10.8Z" transform="translate(-129.98 -736.26)"/><path class="c" d="M209.29,875.56l58.1,8.87c0,10.07,0,19.24,0,28.42,0,17.73-1,35.55.41,53.17,1.56,19,4.09,38.21,8.67,56.71,9.77,39.39,27,75.6,52.29,107.53a309.61,309.61,0,0,0,73,66.41A419.4,419.4,0,0,0,505,1245.56c12.83,4.11,25.86,7.61,38.8,11.4a13.3,13.3,0,0,1,5.63,2.84c-7.83,0-15.76.78-23.49-.13a425.71,425.71,0,0,1-134.09-38.28c-40.74-19.39-77.16-44.85-107.78-78.63-42.85-47.28-65.62-103.29-74.1-165.59-2.65-19.44-2.88-39.27-3.31-58.94-.28-12.73,1.05-25.51,1.71-38.27A34.69,34.69,0,0,1,209.29,875.56Z" transform="translate(-129.98 -736.26)"/><path class="b" d="M449.45,1215.18c-8.09-4.91-16.44-9.42-24.2-14.8-21.77-15.08-42.83-31.05-61.64-49.85q-60.28-60.27-80.45-143a232.84,232.84,0,0,1-2.6-97.78c4.67-25.66,13.27-50.31,23.68-74.26,5.23-12,10.22-24.18,16.23-35.81,4.2-8.15,9.94-15.5,15.55-24.08l42.65,29.94c-1.16,2.25-2.26,4.43-3.4,6.58-13.24,24.83-26,49.81-36.41,76.09-12.46,31.33-17.34,63.49-16.46,96.69,1,38.39,12,74.24,28.49,108.86,12.41,26.1,28.79,49.21,48.3,70,15.15,16.18,31.87,30.9,47.89,46.26q1.77,1.71,3.56,3.4Z" transform="translate(-129.98 -736.26)"/><path class="a" d="M1044.74,924.39l-21.2-1.55c17-41.9,24.27-85.93,35.34-128.52H1113c-.84,6.23-1.4,11.6-2.31,16.92-5.71,33.31-9.07,66.74-8.57,100.67.75,51.05.2,102.12.17,153.18,0,1.9-.27,3.8-.43,5.86H1047.7a48.78,48.78,0,0,1-1-6.43c-.21-10.32-.29-20.63-.4-30.94q-.54-52-1.08-104C1045.16,928,1044.92,926.47,1044.74,924.39Z" transform="translate(-129.98 -736.26)"/><path class="a" d="M1404.49,866.2l12.29.93c.28,5.7.54,11.09.83,17l-14.33,1.65v184.66h-51a48,48,0,0,1-.7-5.83q-.6-45.6-1.11-91.18-.49-39.18-1.09-78.36c0-2.26-.52-4.52-.83-7.11l-15.8-1.47c.37-6.52.71-12.58,1.08-19l15.83-1.28V792h54.8Z" transform="translate(-129.98 -736.26)"/><path class="c" d="M504.42,736.26,523,779.37c-10.77,5.66-21.38,11-31.75,16.72-36.7,20.41-68.12,47-92.35,81.45-21.87,31.13-34.81,65.74-39.3,103.57-5.5,46.37,1.54,91.31,14.84,135.59.55,1.84,1,3.68,1.56,5.52l-1.2.64c-2.62-4.47-5.49-8.8-7.8-13.41A301.61,301.61,0,0,1,336.49,1003c-4.05-41.45,0-82,16-120.81,14-33.94,35.18-62.74,62.21-87.46,25.56-23.36,54.82-41.07,85.41-56.8C501.2,737.34,502.4,737,504.42,736.26Z" transform="translate(-129.98 -736.26)"/><path class="a" d="M1917.45,878h-76.54l-60.37-56.34c-6.6,5.66-12.92,11-19.19,16.44-14.51,12.54-29.07,25-43.45,37.72-3.64,3.21-7.17,4.81-12.31,4.71-15.28-.3-30.56.26-45.84.44-5.64.07-11.27,0-16.91,0-.19-.44-.39-.87-.59-1.31,4.36-4.21,8.65-8.49,13.09-12.61,26.33-24.38,52.79-48.61,79-73.18,5.76-5.41,12.29-3.7,18.61-3.68,19,.09,38,1.24,57,.72,10.83-.3,19,2.34,27,10,24.92,24.06,50.57,47.35,76,70.88a60.31,60.31,0,0,0,6,4.36Z" transform="translate(-129.98 -736.26)"/><path class="b" d="M367.74,1037.39c0-7.7-.61-15.45.11-23.08A295.72,295.72,0,0,1,399,906.45c27.82-54.32,69.77-93.08,127-115.05,26.26-10.08,53.53-15.56,81.48-17.51,15.18-1,30.45-.84,45.69-1.17a40.92,40.92,0,0,1,4.14.37c-1.71,14.69-3.38,29.11-5.1,43.88-5.33,0-9.74.14-14.15,0-35.44-1.3-70.13,2.82-103.85,14.12-37.15,12.45-69.43,32.65-95.88,61.56-36.79,40.21-57.2,88.54-68.38,141.25a30.94,30.94,0,0,1-1.22,3.67Z" transform="translate(-129.98 -736.26)"/><path class="a" d="M1906.23,892.37v20.39H1665.87V892.37Z" transform="translate(-129.98 -736.26)"/><path class="a" d="M1442.09,1002.87h-28.21a17.31,17.31,0,0,1-.28-3.47c9.08-47.29,12.87-95.12,14.12-143.64h25.18C1452.34,905.35,1448.09,954.29,1442.09,1002.87Z" transform="translate(-129.98 -736.26)"/><path class="a" d="M1616.37,1004.3h-26.71c-2-49.67-3.93-98.82-5.9-148.46h24.93C1611.26,905.55,1613.8,954.73,1616.37,1004.3Z" transform="translate(-129.98 -736.26)"/><path class="a" d="M983.52,1259.28H1060c2.63,7.22,4.94,13.58,7.26,19.94l1.53.11,7.46-19.65h9.31c2.43,6.84,4.68,13.2,6.94,19.55l1.56.11c2.31-6.25,4.61-12.5,7.17-19.42h8.15c-4.29,11-8.57,22.06-13.15,33.85h-6.72l-8-21.54-2-.06c-2.66,6.94-5.33,13.88-8.28,21.59h-6.6l-12.25-32.7c-1,2.4-1.57,3.66-2.09,4.89H1038v27.65h-8.44v-27.23H992.11V1273h15.15v6.83H992v13.87h-8.47Z" transform="translate(-129.98 -736.26)"/><path class="a" d="M1250.75,1215.25h-8l-27-28.12v28h-8.94v-41.22h8.78l25.39,26.76,1.24-.73v-25.83l8.52-.67Z" transform="translate(-129.98 -736.26)"/><path class="a" d="M1787,1187.63h-12.35v-6.52h45.45l7.7,13.52,7.69-13.41h10c-7.43,10.6-18.26,19.2-13.06,34h-9.86c4.51-14-4.82-22.58-12.5-32.69-.76,1.91-1.29,3.24-2,5h-12.33v27.53H1787Z" transform="translate(-129.98 -736.26)"/><path class="a" d="M1388.41,1215.2h-8c0-3.41.08-6.54,0-9.68s-.41-6.2-.63-9.29l-1.5-.4L1366.73,1215c-3.71-6.32-7.07-12-10.42-17.76l-1.41.13v17.76H1347a4.37,4.37,0,0,1-.43-1.19c0-10.67,0-21.33,0-32.52h9.86c3.39,6.66,6.71,13.17,10.82,21.22l11.88-21.34h9.29Z" transform="translate(-129.98 -736.26)"/><path class="a" d="M932.3,1256.38c-1.42,3-2.54,5.32-3.68,7.71-13.49-8.52-25.15-8.06-25.66,1.84,3.17.67,6.5,1.48,9.87,2.08s7.09.74,10.5,1.62c6,1.56,9.25,5.55,9.49,10.82s-3,9.87-8.74,12c-9.6,3.62-19.38,2.5-30.53-3.68,1-2.5,2.07-5,3.31-8.07,6.06,6.2,13.09,7.84,20.78,6.44,3.86-.7,7.31-2.37,5.37-8.53-4.84-.72-10-1.54-15.22-2.27-8.71-1.22-13.74-5.36-13.77-11.43,0-6.86,4.5-11.38,12.92-13.33C915.88,1249.54,923.59,1253.38,932.3,1256.38Z" transform="translate(-129.98 -736.26)"/><path class="a" d="M802,1177.83c-1.53,3-2.74,5.26-4.2,8.06-6.39-5.89-13.7-7.18-21.49-5.25-1.86.47-3.29,2.64-6.29,5.18,3.85,1.5,6,2.72,8.41,3.19,4.85,1,9.88,1.14,14.65,2.38,6,1.55,9.26,5.8,9.41,10.84.17,5.32-3.59,10.12-9.51,12.14-10.5,3.57-20.25,1.2-30.11-3.92l3.29-7.48c7.13,5.1,14.54,8.18,23,5,2-.74,3.4-3,5.07-4.59-.13-.72-.25-1.43-.38-2.14-3.73-.94-7.44-2-11.21-2.78-2.94-.6-6-.68-8.94-1.28-6.09-1.24-9.5-4.9-9.86-10.28a13,13,0,0,1,8.17-12.57,26.2,26.2,0,0,1,17.19-.72C793.18,1174.87,797.19,1176.27,802,1177.83Z" transform="translate(-129.98 -736.26)"/><path class="a" d="M1475.8,1259.93v33.93c5.53-1.85,18.36-25.86,18.87-34.08h8.57l16.88,33.62-9.94.82c-1.16-3.37-2.13-6.22-3.11-9.07h-16.38c-.9,2.66-1.85,5.5-2.87,8.52H1466.6v-33.74Zm17.73,19.67H1504l-5.77-10Z" transform="translate(-129.98 -736.26)"/><path class="a" d="M1489.3,1173.78h9c0,8.5,0,16.61,0,24.71,0,7.21,1.53,9.54,8.51,10.37,12.73,1.53,16.59-2.75,16-12.79-.43-7.22-.08-14.49-.08-22.17h8c0,9.33,0,18.16,0,27s-3.35,13.21-11.86,14.26a71.36,71.36,0,0,1-18.41-.2c-7.84-1.09-10.94-5.19-11.08-13.18C1489.17,1192.57,1489.3,1183.38,1489.3,1173.78Z" transform="translate(-129.98 -736.26)"/><path class="a" d="M1312.54,1215.24h-8.46v-34.38c3.76,0,7.37-.09,11,0,5.13.14,10.26.28,15.37.7s8.32,3.27,8.65,8.42c.31,4.87-1.73,8.61-6.82,10.08a22.33,22.33,0,0,0-2.49,1.14l9.51,14h-10l-8.22-13.52h-8.47Zm.24-19.78,17.92-1.14c-.43-2.69-.71-4.46-1-6.52h-17.33C1312.46,1190.07,1312.57,1192,1312.78,1195.46Z" transform="translate(-129.98 -736.26)"/><path class="a" d="M1690.46,1215.21H1682V1181c10.12.08,20.22-1.83,29.84,1.87,2.4.92,4.83,5.08,4.89,7.81s-2.58,5.72-4.48,8.27c-.83,1.11-2.76,1.39-4.84,2.35,3.13,4.4,6.07,8.51,9.55,13.39l-9.55.7c-3.08-5-5.84-9.41-8.55-13.76h-8.44Zm.08-21.48c4.71,2.45,15.51,2,17.82-1.16-.09-1-.23-2.51-.43-4.56h-17.65C1690.37,1189.94,1690.46,1191.84,1690.54,1193.73Z" transform="translate(-129.98 -736.26)"/><path class="a" d="M1270,1252.17h8.43c6.7,13.9,13.19,27.34,19.81,41l-10.61.91c-1.31-3.74-2.45-7-3.75-10.74h-20.22l-3.74,10.29h-9.23Zm-2.87,24.74h13.36c-2.29-5.05-4.19-9.21-6.69-14.69Z" transform="translate(-129.98 -736.26)"/><path class="a" d="M1033.75,1180l-3.94,7c-5.21-5.1-10.95-7.45-17.9-7.12-9.33.43-15.78,6-16,14.43-.18,8,6.64,14.78,15.61,14.94,6.71.12,13-1.47,17.88-7.41l4.67,6.69c-9.26,5-18.32,9.53-29.26,6.86-10.62-2.6-18-11-18-20.91.06-10.45,8-19.16,18.9-21.37C1016.19,1171,1024.82,1175.21,1033.75,1180Z" transform="translate(-129.98 -736.26)"/><path class="a" d="M1193.5,1293.86h-10.3c-2.75-4.59-5.36-8.92-8-13.27l-8.6-1.06v14.14h-8.55V1260c8.83,0,17.83-.33,26.78.14,4.64.24,7.87,3.22,8.11,8.35s-1.85,8.56-6.87,10.06a19.77,19.77,0,0,0-2.45,1.27Zm-8.5-23.63c-2.88-5-10.19-6.16-18.26-3.54v6.75C1173.06,1272.13,1179.82,1276.31,1185,1270.23Z" transform="translate(-129.98 -736.26)"/><path class="a" d="M1650.93,1279.93v-20.14h7.68v34h-7.24l-21.28-22.27v22.21l-8,.36v-34.2h7.8l19.45,20.72Z" transform="translate(-129.98 -736.26)"/><path class="a" d="M1569,1213.9,1547.78,1197v18.23H1540v-33.89h8.83l-1.63,1.54,21.64,16.6v-18.21h7.88v33.85h-8.42Z" transform="translate(-129.98 -736.26)"/><path class="a" d="M1132,1181.35h7.71v33.77h-7.09L1113,1194.67l-1.61.43v20.13h-8.06v-34h7.35l20,21,1.39-.62Z" transform="translate(-129.98 -736.26)"/><path class="a" d="M1643,1181h31.62v6.74h-23v6.55h15v6.82h-14.91V1209h23.44c.13,1.84.27,3.85.43,6.25H1643Z" transform="translate(-129.98 -736.26)"/><path class="a" d="M1050.05,1201.11v14.07h-8.5v-33.8h8.24V1194h18.73v-12.72h8.59v33.78l-8.48.47v-14.42Z" transform="translate(-129.98 -736.26)"/><path class="a" d="M930.33,1181.54H939v12.23h18.37v-12.5h8.32v33.92H957.2V1201H939.1v14h-8.77Z" transform="translate(-129.98 -736.26)"/><path class="a" d="M1200.16,1293.92V1259.8h31.35v6.28h-22.86V1273h15.27v6.86h-15.21v7.44h23.21c.35,2.4.64,4.41,1,6.65Z" transform="translate(-129.98 -736.26)"/><path class="a" d="M1397.06,1294.51c-11.81.07-19.85-7-19.86-17.47,0-11.09,7.67-18.19,19.72-18.25s20.21,7.18,20.26,17.83S1409.2,1294.43,1397.06,1294.51Zm-.09-6.19c6.88,0,12.1-4.92,12.22-11.4.13-7-4.82-11.63-12.28-11.58-7.13,0-11.69,4.27-11.7,10.86C1385.2,1283.64,1389.79,1288.37,1397,1288.32Z" transform="translate(-129.98 -736.26)"/><path class="a" d="M1595.51,1294.51c-11.76,0-19.68-7-19.75-17.62-.06-10.89,7.72-18,19.87-18.1,11.82-.11,20.12,7.3,20.11,18S1607.71,1294.47,1595.51,1294.51Zm-.09-6.19c7.12,0,12.5-5.18,12.33-11.83s-5-11.17-12.18-11.15-11.72,4.16-11.8,10.77C1583.67,1283.54,1588.25,1288.33,1595.42,1288.32Z" transform="translate(-129.98 -736.26)"/><path class="a" d="M956.78,1294.51c-11.21-.08-19.95-7.65-20-17.28,0-11,8.56-18.54,21-18.44,11.21.09,19.64,7.91,19.54,18.13S968.68,1294.59,956.78,1294.51Zm.25-29.17c-7.38,0-11.78,4.32-11.68,11.37s4.66,11.62,11.68,11.61,12.46-5.22,12.21-11.88C969,1269.5,964.36,1265.3,957,1265.34Z" transform="translate(-129.98 -736.26)"/><path class="a" d="M828.77,1216.24c-16.09-.17-24.85-10.81-21.44-23.15,2-7.36,9-12.32,17.81-12.58,10.58-.32,18.15,4.12,20.8,12.2,2.42,7.41.06,15.6-6.56,19.57C835.56,1214.57,830.92,1215.47,828.77,1216.24Zm-2.12-6.57c7.5,0,11.85-4.4,11.77-11.88-.07-6.59-5.26-11.46-12.11-11.34a12,12,0,0,0-11.78,11.89C814.64,1204.89,819.77,1209.69,826.65,1209.67Z" transform="translate(-129.98 -736.26)"/><path class="a" d="M1277.18,1179.37c8.4,1,14.72,4,18.46,11.14a16,16,0,0,1-1.57,18.08c-5,6.49-12.14,8.36-20,7.22s-14.07-4.58-16-12.75c-1.65-7-.59-13.9,5.68-18.18C1267.64,1182.21,1272.66,1181.15,1277.18,1179.37Zm0,30.3c7.48,0,12.33-4.56,12.29-11.63,0-6.27-5.76-11.75-12.15-11.63-7,.13-11.74,4.9-11.72,11.7C1265.62,1205.29,1270,1209.65,1277.19,1209.67Z" transform="translate(-129.98 -736.26)"/><path class="a" d="M1308.39,1270.54c3,.74,5.79,1.56,8.6,2.06,3.31.59,6.71.67,10,1.38,4.86,1,8,4.15,8.07,9.23s-2.93,8.38-7.57,9.86c-8.72,2.79-17.1,1.56-25.66-2.8.68-1.93,1.29-3.68,2-5.63,7.88,3.23,15.5,6.54,22.81.6.13-.73.26-1.46.38-2.19a56.13,56.13,0,0,0-6.91-2.33c-3.11-.62-6.33-.75-9.49-1.17-5-.66-8.28-3.45-8.71-8.54-.41-4.93,2.07-8.55,6.64-10.48a22.5,22.5,0,0,1,18.12.18c2.11.89,4.27,1.69,6.84,2.69-.85,2.17-1.65,4.24-2.49,6.37C1320.3,1263.16,1312.47,1263.18,1308.39,1270.54Z" transform="translate(-129.98 -736.26)"/><path class="a" d="M1371.79,1263.45c-1,2.17-1.85,4-2.71,5.87-12.9-6.27-19.31-6-22.39,1.5,3,.62,5.76,1.3,8.58,1.79,3.31.56,6.7.73,10,1.48,4.63,1.06,7.74,4.16,7.9,8.89.16,4.9-2.68,9-7.43,9.83-5.81,1-11.87.69-17.8.42-2.55-.11-5-1.57-8.25-2.65.83-2.16,1.6-4.16,2.38-6.22,10.93,5.8,19.58,5.48,22.91-1.53a71,71,0,0,0-7.3-2.15c-3.13-.58-6.35-.7-9.5-1.16-4.58-.67-7.48-3.27-8.12-7.91s1.18-8.39,5.47-10.58a21.47,21.47,0,0,1,17.09-1C1365.44,1260.92,1368.22,1262.09,1371.79,1263.45Z" transform="translate(-129.98 -736.26)"/><path class="a" d="M1728.46,1192.3c3.45.69,6.9,1.42,10.36,2,2.79.51,5.64.7,8.39,1.35,4.62,1.09,7.63,4,7.78,8.88s-2.64,8-7,9.69c-8.91,3.54-17.34,1.35-26.29-2.19.7-2.06,1.3-3.81,2-5.95,7.79,3.75,15.37,5.56,22.88,1.24.19-.71.39-1.41.58-2.12-1.81-.88-3.53-2.17-5.44-2.56-3.46-.73-7-.79-10.54-1.37-5.82-1-9.25-4.3-9.62-9.13-.34-4.42,3-8.93,8.06-10.68,8.44-2.92,16,.3,23.95,3.5-.89,1.91-1.7,3.61-2.66,5.66-7.52-3.69-14.94-7.31-22.24-.85Z" transform="translate(-129.98 -736.26)"/><path class="a" d="M852,1181.23h8.28c0,6.27,0,12.41,0,18.54.05,6.93,2.05,9.49,7.65,9.89,7.94.56,10.91-1.38,11.5-8.73.51-6.3.11-12.68.11-19.63l6.58-.5c0,9,.22,17.58-.09,26.15a7.69,7.69,0,0,1-7,7.58c-4.84.66-9.83,1.41-14.62.91-9.5-1-12-3.94-12.35-13.32C851.8,1195.41,852,1188.67,852,1181.23Z" transform="translate(-129.98 -736.26)"/><path class="a" d="M1122.28,1285.21l-2.8,8.59h-7.82l16.17-34.13h7c5.8,11.48,11.37,22.53,17.21,34.08h-10.21c-1.09-3-2-5.75-3-8.54Zm13.34-5.45-5.55-10.4-4.89,10.4Z" transform="translate(-129.98 -736.26)"/><path class="a" d="M1172.77,1206.76h-16.35l-2.92,8.51h-8.07c2.94-5.83,5.84-11.26,8.46-16.83s4.91-11.09,7.59-17.21h7.18c6,11.72,11.59,22.51,17.39,33.77h-10.42C1174.71,1212.33,1173.77,1209.63,1172.77,1206.76Zm-13.69-5.35h10.68c-2-3.48-3.48-6.13-5.66-10Z" transform="translate(-129.98 -736.26)"/><path class="a" d="M1401.25,1215.33h-8.07c2.89-5.76,5.71-11.17,8.33-16.67s5-11.05,7.91-17.41h7.37c3,6.14,5.55,11.68,8.33,17.11s5.81,10.84,9,16.79H1423.2q-1.11-3.89-2.35-8.2h-16.79C1403.25,1209.38,1402.32,1212.14,1401.25,1215.33Zm5.45-13.9h10.75l-5.41-10.26Z" transform="translate(-129.98 -736.26)"/><path class="a" d="M1455.59,1282.69c1.44,2,2.56,3.5,3.92,5.34-8.38,5.67-17,8.4-26.65,5.18a17.12,17.12,0,0,1-11.88-16.57,17.67,17.67,0,0,1,12.45-16.76c9.43-2.92,17.72-.08,26,5.2l-3.55,6c-4.06-5-9.13-6.11-14.81-5.79-6.83.39-11.72,4.87-11.8,11.18s4.67,11.28,11.36,11.78C1446.14,1288.66,1451.22,1287.52,1455.59,1282.69Z" transform="translate(-129.98 -736.26)"/><path class="a" d="M1599,1181.11h9.33l9.38,21.89,1.54-.23c3-6.92,5.91-13.84,9.17-21.47H1637c-5.29,11.4-10.37,22.36-15.76,34h-6.73C1609.33,1203.93,1604.33,1192.88,1599,1181.11Z" transform="translate(-129.98 -736.26)"/><path class="a" d="M903.58,1215.07V1187.9H890.83v-7h34.33v6.58H912.54v27.56Z" transform="translate(-129.98 -736.26)"/><path class="a" d="M1534.44,1266.09h-12.35c-.14-2.3-.26-4.12-.39-6.35h34.35c.08,1.85.17,3.88.27,6.23h-12.76v27.61h-9.12Z" transform="translate(-129.98 -736.26)"/><path class="a" d="M1448.15,1209h22.07c.09,1.76.19,3.76.31,6.21h-30.47v-33.91h8.09Z" transform="translate(-129.98 -736.26)"/><path class="a" d="M1762.27,1181.35h8v33.85h-8Z" transform="translate(-129.98 -736.26)"/><path class="a" d="M1569.47,1260v33.65l-8.27.48V1260Z" transform="translate(-129.98 -736.26)"/><path class="a" d="M1094.15,1181.23v33.93h-8.1v-33.93Z" transform="translate(-129.98 -736.26)"/><path class="a" d="M1593.75,1215.28h-8v-34h8Z" transform="translate(-129.98 -736.26)"/></svg>