<svg xmlns="http://www.w3.org/2000/svg" viewBox="0 0 685.6 228.82"><defs><style>.a{fill:#090204;}.b{fill:#57b5d2;}.c{fill:#e9e8e8;}.d{fill:#070001;}.e{fill:#c5c6c6;}.f{fill:#0a0406;}</style></defs><rect class="a" y="37.26" width="195.5" height="191.56" rx="8.82"/><path class="b" d="M70,47.1H238.09a4.43,4.43,0,0,1,4.33,4.52V215.45a4.43,4.43,0,0,1-4.33,4.52H70a4.43,4.43,0,0,1-4.33-4.52V51.62A4.43,4.43,0,0,1,70,47.1Z" transform="translate(-56.99)"/><path class="c" d="M154.14,207.3a62.72,62.72,0,0,1-34.77-10.7c-9.71-5.31-40.5-27.29-40.2-91.57l0-11.45,6.39,9.5,2.58,3.84c4.43-21.52,16.92-51.24,50.27-78.67l5.79-4.77-1.78-7.38-2.05-8.47,7.35,4.67c1.61,1,37.34,24,58.63,63.56l.28-.94,3-10,3.69,9.81c12.36,32.86,10.42,58.65,7,73.75l3-.84,7.85-2.23-3.76,7.23C207.85,190.28,184,201,174.51,203.82a61.19,61.19,0,0,1-18.82,3.46l-1.55,0ZM145,28.26l.59.62-.37-1.52-.22.9Z" transform="translate(-56.99)"/><path class="d" d="M145.89,15.27S187,41.37,207.24,85.43l2.82-9.52c13.63,36.26,9.59,63.43,5.35,77.59l8.9-2.53c-19,36.52-41.75,46.76-50.9,49.5a57.17,57.17,0,0,1-17.81,3.29c-.48,0-1,0-1.46,0a59,59,0,0,1-32.95-10.19c-8.3-4.49-38.8-25.32-38.5-88.55l7.37,11c.22-1.3.46-2.59.74-3.87,3.38-20.7,14.67-52.2,49.9-81.18l-5.06,20.88L145.56,34l6.56,7-6.23-25.78M135,0l4.09,16.93,1.27,5.24-4.09,3.36C106,50.4,92.5,77.16,86.65,98.32L75.76,82.12,75.65,105c-.31,65.92,31.59,88.92,41.9,94.61a66.18,66.18,0,0,0,36.59,11.2l1.64,0a64.47,64.47,0,0,0,19.82-3.64c5.58-1.69,14.23-5.37,24-13.31,11.87-9.62,22.28-23,30.94-39.63l7.52-14.47-13.13,3.72a114.8,114.8,0,0,0,1.53-20.57c-.19-16-3.51-32.65-9.83-49.46l-7.38-19.62L205.35,67A189.1,189.1,0,0,0,173.79,28.7,179.55,179.55,0,0,0,149.66,9.33L135,0Z" transform="translate(-56.99)"/><path class="d" d="M109.88,103s2.93-16.71,13.49-26.1c0,0,.58,13.49,2.64,19.35,0,0-5-5.57-5.58-8.5C120.43,87.74,114.86,91.55,109.88,103Z" transform="translate(-56.99)"/><path class="d" d="M199.92,103S197,86.28,186.44,76.89c0,0-.59,13.49-2.64,19.35,0,0,5-5.57,5.57-8.5C189.37,87.74,194.94,91.55,199.92,103Z" transform="translate(-56.99)"/><path class="d" d="M147.41,72.2s5-13.19,4.39-17.88a39.83,39.83,0,0,1,11.73,17.59s-5.28-6.16-8.79-8.5C154.74,63.41,150.34,70.15,147.41,72.2Z" transform="translate(-56.99)"/><path class="d" d="M149.94,118.33s-1.56-16.9,6.17-28.72c0,0,4.1,12.86,7.62,18,0,0-6.27-4.07-7.61-6.74C156.12,100.85,151.75,106,149.94,118.33Z" transform="translate(-56.99)"/><path class="e" d="M150.21,141.94c4.22,17.68-2.79,34.49-15.65,37.56s-26.7-8.78-30.91-26.46,2.8-34.49,15.66-37.56S146,124.26,150.21,141.94Z" transform="translate(-56.99)"/><path class="f" d="M148.33,147.27c3.14,13.19-3.4,26-14.61,28.72s-22.84-5.85-26-19.05,3.39-26,14.6-28.71S145.19,134.08,148.33,147.27Z" transform="translate(-56.99)"/><path class="b" d="M138.77,156.84a5.85,5.85,0,1,1-6.37-5.26A5.85,5.85,0,0,1,138.77,156.84Z" transform="translate(-56.99)"/><path class="e" d="M161.62,141.94c-4.22,17.68,2.79,34.49,15.65,37.56S204,170.72,208.18,153s-2.8-34.49-15.66-37.56S165.83,124.26,161.62,141.94Z" transform="translate(-56.99)"/><path class="f" d="M163.5,147.27c-3.14,13.19,3.4,26,14.61,28.72s22.84-5.85,26-19.05-3.4-26-14.6-28.71S166.64,134.08,163.5,147.27Z" transform="translate(-56.99)"/><path class="b" d="M173.06,156.84a5.84,5.84,0,1,0,6.37-5.26A5.85,5.85,0,0,0,173.06,156.84Z" transform="translate(-56.99)"/><path class="f" d="M82.69,105s8.92,14.78,14.75,19.62c0,0-7.81-13.52-10.17-20.22Z" transform="translate(-56.99)"/><path class="a" d="M313.44,193.76q-21,0-21-21.12V95.16q0-22.06,21-22.07h51.28v20.8H317.09q-5.71,0-5.72,5.72V168q0,5.09,5.72,5.08h48v20.64Z" transform="translate(-56.99)"/><path class="a" d="M397.59,193.76q-21,0-21-21.12V95.16q0-22.06,21-22.07h42.23q21,0,21,22.07v77.48q0,21.12-21,21.12ZM442,99.61q0-5.72-5.71-5.72H401.24q-5.72,0-5.72,5.72V168q0,5.09,5.72,5.08h35.09q5.71,0,5.71-5.08Z" transform="translate(-56.99)"/><path class="a" d="M496.82,193.76q-21,0-21-21.12V95.16q0-22.06,21-22.07H548.1v20.8H500.47q-5.72,0-5.72,5.72V168q0,5.09,5.72,5.08h47.95v20.64Z" transform="translate(-56.99)"/><path class="a" d="M581,193.76q-21,0-21-21.12V95.16q0-22.06,21-22.07H623.2q21,0,21,22.07v77.48q0,21.12-21,21.12Zm44.45-94.15q0-5.72-5.71-5.72H584.62q-5.72,0-5.72,5.72V168q0,5.09,5.72,5.08h35.09q5.71,0,5.71-5.08Z" transform="translate(-56.99)"/><path class="a" d="M659.24,193.76V173.12h59.07q5.55,0,5.55-5.87V148.19c0-4.13-1.74-6.19-5.24-6.19H680q-21,0-21-20.64V95.48q0-22.38,20.17-22.39H739.9v20.8h-57q-4.92,0-4.92,5.72V118.5q0,6,5.4,6h38.9q20.31,0,20.32,20.64v26q0,22.56-21.28,22.55Z" transform="translate(-56.99)"/></svg>