<svg xmlns="http://www.w3.org/2000/svg" viewBox="0 0 279.74 112.88"><defs><style>.a{fill:#b5e0f8;}.b{fill:#ddf2fb;}.c{fill:#d5ea3c;}.d{fill:#abdaed;}.e{fill:#ef913a;}.f{fill:#f1db3d;}.g{fill:#f8bd86;}.h{fill:#f3aa65;}.i{fill:#dbf1fb;}.j{fill:#c7dc2b;}.k{fill:#7ccce7;}.l{fill:#c6db29;}.m{fill:#94d3e8;}.n{fill:#7a765f;}.o{fill:#f5e990;}.p{fill:#ee9e53;}.q{fill:#d4e749;}.r{fill:#93d6ee;}.s{fill:#d5e74b;}.t{fill:#f4e471;}.u{fill:#7dd1ee;}.v{fill:#e5ef98;}.w{fill:#e5ef99;}.x{fill:#f3e056;}.y{fill:#6a635a;}.z{fill:#dcea74;}.aa{fill:#6c7376;}.ab{fill:#dcea71;}.ac{fill:#737360;}.ad{fill:#aad9ec;}.ae{fill:#5fc4e5;}.af{fill:#44bde3;}.ag{fill:#6d665e;}.ah{fill:#6d6849;}.ai{fill:#6f787c;}.aj{fill:#6c6d4c;}.ak{fill:#6b6c57;}.al{fill:#666f71;}.am{fill:#eadf8f;}.an{fill:#6e7679;}.ao{fill:#6a6257;}.ap{fill:#6f777a;}.aq{fill:#4e5d62;}.ar{fill:#627981;}.as{fill:#9eb0b9;}.at{fill:#706740;}.au{fill:#6a848c;}.av{fill:#fcf7d1;}.aw{fill:#faf1b5;}.ax{fill:#28b5e1;}</style></defs><path class="a" d="M197.47,78.15l1.85-4.92a4.91,4.91,0,0,0,5.45,3,78.75,78.75,0,0,1,8.42-.1l-1.78,16.09c-.27,1.62-.49,3.25-.81,4.86-2.4,12.07-2.41,12.07-14.36,12.12-6.37-4.29-7.81-11.59-10.75-17.91-3.2-6.86-5.81-14-8.76-21a19.67,19.67,0,0,0-2.21-3.2l.87-2c.93,1.7,2.24,3.31,2.72,5.13,1.16,4.46,3.44,6.72,8.35,5.94,2.56-.4,5.23-.08,7.84-.09.74,1.18,1.41,2.41,2.24,3.53.27.38.91.48,1.39.71C197.78,79.62,197.62,78.89,197.47,78.15Z"/><path class="b" d="M194.3,76.11c-2.61,0-5.28-.31-7.84.09-4.91.78-7.19-1.48-8.35-5.94-.48-1.82-1.79-3.43-2.72-5.13S173.62,62,172.62,65c-1.24,3.67-2.39,7.38-3.58,11.07a44.78,44.78,0,0,1-6.45,0c-2.79-.39-5.51-1.21-8.27-1.85,4.29-8,8.51-16,12.93-23.92a15.63,15.63,0,0,1,3.9-4.41c3.52-2.82,7.85-1.82,10,2.14,1.4,2.6,2.74,5.23,4.1,7.85.62,1.68,1.14,3.4,1.89,5C189.47,66,191.91,71,194.3,76.11Z"/><path class="c" d="M237.35,78.26c6.05,7.74,12.34,8.56,21.58,2.8a60.22,60.22,0,0,1,7.31-.69c3,.06,6,.56,9.05.87-4.73,12.45-19.76,19.13-34.27,15.31-2.37-.63-4.83-.91-7.25-1.35-4.75-3.53-9.48-7.07-11.31-13.12a42.42,42.42,0,0,1,5.1-1.9C230.79,79.41,234.08,78.88,237.35,78.26Z"/><path class="d" d="M101.23,42.11c8-11.55,26.07-16.33,40.12-10.22,3.07,1.34,5.3,4.61,7.92,7-4.35,8.89-4.35,8.89-13.08,6.45-6.84-1.85-13.44-1.43-19.69,2.17-1.07-1.12-2-3-3.24-3.2-2.9-.44-6.17-.76-8.84.16C101.33,45.52,101.93,43.33,101.23,42.11Z"/><path class="e" d="M42.93,108.06c-3.26-2.66-1.83-5.6-.52-8.53l6.06-4.37c10.82,4.69,20.29.29,29.71-4.4a25.52,25.52,0,0,0,4.57,2.32c3.07.85,6.25,1.34,9.38,2C90.94,96.39,90,98,88.54,99,74.62,108.39,59.74,113.14,42.93,108.06Z"/><path class="f" d="M1.91,97.18c-2.84-2.89-2.13-6.06-.33-9S6,84.92,9.33,85.62c7,1.47,8.73.36,10.06-5.42A29.88,29.88,0,0,0,24,82.09c2.31.54,4.71.71,7.07,1l2.49,2.3c2.24.06,4.57.53,6.71.1,3.56-.73,6.08.13,7.76,3.36-1.18,3.91-1.63,8.45-7.34,8.42Z"/><path class="a" d="M154.32,74.22c2.76.64,5.48,1.46,8.27,1.85a44.78,44.78,0,0,0,6.45,0c-2,9.49-4.14,19-6,28.48-.83,4.15-3,5.81-7.26,5.52-2.47-.17-5,.61-7.51,1-.68-2.09-1.49-4.14-2-6.27a56.78,56.78,0,0,1-.76-5.71l2.9-3.91q.47-4.48.91-9Z"/><path class="g" d="M49.52,65.28C51.27,59.07,55.81,55,61.17,52.41a184.11,184.11,0,0,1,23-8.94c3.08-1,7-1.55,9.12,2.61C91,47.71,89,49.78,86.5,50.87A60.54,60.54,0,0,0,64.18,68c-3.67-.29-7.35-.46-11-1C51.91,66.89,50.74,65.9,49.52,65.28Z"/><path class="h" d="M49.52,65.28c1.22.62,2.39,1.61,3.67,1.79,3.64.49,7.32.66,11,1,0,1.15-1.76,3.47,1.6,2.52,3.64.47,7.29,1.39,10.92,1.31,6-.13,11.53.86,16.27,4.74a22.23,22.23,0,0,1,2.3,2.53c-1.22.67-2.38,1.76-3.67,1.94-4.17.58-8.39.83-12.59,1.2l-22.88-.48C49.31,78.13,48,72.26,49.52,65.28Z"/><path class="i" d="M213.19,76.1a78.75,78.75,0,0,0-8.42.1,4.91,4.91,0,0,1-5.45-3c3.69-8.13,7.13-16.41,11.23-24.33,1.58-3.07,4.06-6.28,8.52-5.82.12,1.05.23,2.1.34,3.15,0,.79-.11,1.57-.16,2.35a17.44,17.44,0,0,0-1.07,2.72C216.49,59.56,214.85,67.83,213.19,76.1Z"/><path class="j" d="M275.29,81.24c-3-.31-6-.81-9.05-.87a60.22,60.22,0,0,0-7.31.69q2.24-5.48,4.49-11a24.6,24.6,0,0,1,.92-4.67c.38-.94,1.47-2.26,2.28-2.29,10.75-.32,10.75-.27,10.64-11.06,0-.33,0-.66,0-1l0-10c0-3,0-6,0-9l.94,1,0,40Z"/><path class="k" d="M102.37,90.08c-1.24-1.48-2.43-4.37-3.92-.17q0-3,.1-6c.5-.34,1.22-1.1,1.49-1,4.71,2.39,12.18,1.51,15.39-1.93,6.85,5.83,14.21,6.21,22.26,2.55,5.95-2.71,8.39-1.92,10.73,2.46-1.41,3.23-3.72,4.84-7.36,4.07-4-.83-7.94-1.65-11.92-2.43a4,4,0,0,0-2.31,0c-7.34,3.72-14.85,3.23-22.5,1.21C103.82,88.76,103,89.66,102.37,90.08Z"/><path class="l" d="M237.35,78.26c-3.27.62-6.56,1.15-9.79,1.92a42.42,42.42,0,0,0-5.1,1.9l-2.34-8.69c0-2.15.23-4.3.12-6.44-.15-2.65.67-3.8,3.59-3.9,8-.28,8-.41,10.29-7.91a101.91,101.91,0,0,0,.22,10.35c.42,3.62,1.44,7.17,2.2,10.76Z"/><path class="m" d="M102.37,90.08c.66-.42,1.45-1.32,2-1.18,7.65,2,15.16,2.51,22.5-1.21a4,4,0,0,1,2.31,0c4,.78,8,1.6,11.92,2.43,3.64.77,5.95-.84,7.36-4.07a4.14,4.14,0,0,1,.86.12l-.91,9-3.14.82c-10.25-.27-20.5-.59-30.75-.73-.72,0-1.46,1.3-2.19,2Z"/><path class="n" d="M43.12,15.07c2-4.66,6.15-3.14,9.58-3.14s6.72.11,8.55-3.56L63,3.23c2.41,6.94-.46,11.13-7.61,11.11-9.53,0-9.51,0-11.13,9.33Q38.94,54.55,33.55,85.44l-2.49-2.3q1-5.52,2-11,1.5-8.46,3-16.91,1-5.52,2-11l2-13Q41.58,23.11,43.12,15.07Z"/><path class="o" d="M38.1,44.17q-1,5.52-2,11c-1.36,3.74-4.67,3.56-7.25,2.64-1.57-.56-2.47-3.18-3.53-5a13.08,13.08,0,0,1-.93-2.66C26.2,39.81,27.88,29.36,29.9,19c.68-3.44-.6-4.05-3.54-4a62.21,62.21,0,0,1-6.77-.64l11.68-.23-1.92,17c-.47,2.54-.9,5.08-1.42,7.61-1.2,5.8-.6,6.58,5.44,6.39A29.08,29.08,0,0,0,38.1,44.17Z"/><path class="p" d="M79,82.26c4.2-.37,8.42-.62,12.59-1.2,1.29-.18,2.45-1.27,3.67-1.94a2.86,2.86,0,0,0,.77.23l1.26,2.87c.13,5-1.36,9.4-5.17,12.84-3.13-.64-6.31-1.13-9.38-2a25.52,25.52,0,0,1-4.57-2.32c1-1.87,2.08-3.75,3.13-5.62Z"/><path class="q" d="M234.12,55.14c-2.24,7.5-2.24,7.63-10.29,7.91-2.92.1-3.74,1.25-3.59,3.9.11,2.14-.07,4.29-.12,6.44q-.47-7.08-.94-14.16c0-3.55,0-7.1.07-10.65.05-.78.11-1.56.16-2.35,1.57,1.59.11,5.28,4.56,5,10.89-.59,9.15,1.33,9.27-9.16,0-1,0-2,0-3l.78,0Q234.09,47.14,234.12,55.14Z"/><path class="r" d="M101.23,42.11c.7,1.22.1,3.41,3.19,2.35,2.67-.92,5.94-.6,8.84-.16,1.21.19,2.17,2.08,3.24,3.2l-6.41,10.64c-2.74-5.67-5.59-6.38-11.32-3.06-.87.5-2.25.1-3.39.12Z"/><path class="s" d="M277.22,51.1c0,.33,0,.66,0,1,.11,10.79.11,10.74-10.64,11.06-.81,0-1.9,1.35-2.28,2.29a24.6,24.6,0,0,0-.92,4.67v-20Z"/><path class="t" d="M24.39,50.22a13.08,13.08,0,0,0,.93,2.66c1.06,1.78,2,4.4,3.53,5,2.58.92,5.89,1.1,7.25-2.64q-1.51,8.46-3,16.91c-2.49-.66-5-1.23-7.46-2a40.86,40.86,0,0,1-4.23-1.9Q22.9,59.21,24.39,50.22Z"/><path class="u" d="M95.38,55.2c1.14,0,2.52.38,3.39-.12,5.73-3.32,8.58-2.61,11.32,3.06,0,1,.06,1.93.1,2.9-.35,1.32-.69,2.64-1,4a9.12,9.12,0,0,1-.91.17l-12,0-2.06,0Z"/><path class="v" d="M233.29,39.16c0,1,0,2,0,3-11.18.08-11.18.08-13.75-8.8l3.9-5a28.17,28.17,0,0,0,3.68.81C232.06,29.53,233.19,31.31,233.29,39.16Z"/><path class="w" d="M277.28,32.1v9c-2.62,0-5.24.07-7.85,0-4-.16-5.54-2.08-5-6a27.61,27.61,0,0,0-.07-4C268.84,25.67,272.81,26,277.28,32.1Z"/><path class="x" d="M21.4,68.21a40.86,40.86,0,0,0,4.23,1.9c2.45.77,5,1.34,7.46,2q-1,5.51-2,11c-2.36-.34-4.76-.51-7.07-1a29.88,29.88,0,0,1-4.6-1.89Z"/><path class="y" d="M92.13,95.06c3.81-3.44,5.3-7.82,5.17-12.84L98.55,84q-.06,3-.1,6c-1.55,5.21-5,9-9.39,11.88-10.65,7.1-22.24,11.44-35.21,10.18-3.73-.37-7.28-2.56-10.92-3.91,16.81,5.08,31.69.33,45.61-9.06C90,98,90.94,96.39,92.13,95.06Z"/><path class="z" d="M264.32,31.18a27.61,27.61,0,0,1,.07,4c-.51,3.9,1,5.82,5,6,2.61.1,5.23,0,7.85,0,0,3.31,0,6.63,0,10l-13.8-1Z"/><path class="aa" d="M148.22,111.05c2.51-.36,5-1.14,7.51-1,4.26.29,6.43-1.37,7.26-5.52,1.91-9.51,4-19,6-28.48,1.19-3.69,2.34-7.4,3.58-11.07,1-3,1.92-1.73,2.77.12l-.87,2c-2.91,11.57-6,23.1-8.7,34.71C163.25,112.83,159.34,115,148.22,111.05Z"/><path class="ab" d="M219.49,33.31c2.57,8.88,2.57,8.88,13.75,8.8-.12,10.49,1.62,8.57-9.27,9.16-4.45.24-3-3.45-4.56-5l-.34-3.15Z"/><path class="ac" d="M275.29,81.24l2.9-8.09,1.24,0c-.68,19.61-17.48,28-32.17,26.41-4.6-.49-9-2.88-13.49-4.4,2.42.44,4.88.72,7.25,1.35C255.53,100.37,270.56,93.69,275.29,81.24Z"/><path class="ad" d="M112.29,97.24c.73-.69,1.47-2,2.19-2,10.25.14,20.5.46,30.75.73-5.83,3.44-12.19,4.35-18.82,4l-12.15-1.89Z"/><path class="ae" d="M98.55,84,97.3,82.22,96,79.35l-.6-5.24c.64.44,1.5.74,1.88,1.34,3.49,5.47,10.74,5.34,13.91-.31l1.3.12,2.9,5.8C112.22,84.5,104.75,85.38,100,83,99.77,82.86,99.05,83.62,98.55,84Z"/><path class="af" d="M111.23,75.14c-3.17,5.65-10.42,5.78-13.91.31-.38-.6-1.24-.9-1.88-1.34l-1.23-9,2.06,0c0,.49,0,1,0,1.47.11,6.11.56,6.57,6.36,6.53,5.49,0,5.61-.17,5.63-6.5,0-.49,0-1,0-1.47a9.12,9.12,0,0,0,.91-.17Z"/><path class="ag" d="M65.78,70.54c-3.36.95-1.56-1.37-1.6-2.52A60.54,60.54,0,0,1,86.5,50.87C89,49.78,91,47.71,93.28,46.08c2.24,4.25-1.53,4.87-3.83,6.44C82.71,57.13,76,61.71,69.32,66.46,67.89,67.48,66.94,69.16,65.78,70.54Z"/><path class="ah" d="M1.91,97.18l38.77.14c5.71,0,6.16-4.51,7.34-8.42l.45,6.26-6.06,4.37C31,99.5,19.49,99.59,8,99.35,6,99.31,3.94,97.94,1.91,97.18Z"/><path class="ai" d="M219.25,48.58c0,3.55-.05,7.1-.07,10.65-1.63,9-3.3,18-4.88,27.06-.71,4-1.26,8.1-1.88,12.16q-.51-3.14-1-6.26.89-8,1.78-16.09c1.66-8.27,3.3-16.54,5-24.8A17.44,17.44,0,0,1,219.25,48.58Z"/><path class="aj" d="M234.12,55.14q0-8-.05-16c.25-2,.51-4.07.77-6.11a76,76,0,0,1,1.1,8.33c.3,11.63.42,23.26.6,34.9-.76-3.59-1.78-7.14-2.2-10.76A101.91,101.91,0,0,1,234.12,55.14Z"/><path class="ak" d="M279.43,73.19l-1.24,0,0-40c.53,1.15,1.53,2.3,1.52,3.45C279.73,48.79,279.56,61,279.43,73.19Z"/><path class="al" d="M110.19,61l-.1-2.9L116.5,47.5c6.25-3.6,12.85-4,19.69-2.17l-2.32,1c-8.58-.7-16,1.17-20.09,9.65-1.23,2.55-1.68,5.49-2.48,8.25Z"/><path class="am" d="M63,3.23,61.25,8.37c.16-7.23.16-7.21-7-7.18-8.58,0-17.17-.18-25.75.11-4.16.14-8.28,1.19-12.42,1.82,2.09-1,4.16-2.85,6.27-2.91Q39.67-.21,57,.22C59.06.27,61,2.18,63,3.23Z"/><path class="an" d="M211.41,92.19q.5,3.12,1,6.26a46.39,46.39,0,0,1-1,6.81c-2.14,7.09-9.21,8.85-15.16,3.91,11.95,0,12,0,14.36-12.12C210.92,95.44,211.14,93.81,211.41,92.19Z"/><path class="ao" d="M79,82.26l2.3,2.88c-5.41-.42-10.83-.7-16.21-1.34a82.83,82.83,0,0,1-9-2Z"/><path class="ap" d="M133.87,46.29l2.32-1c8.73,2.44,8.73,2.44,13.08-6.45,1.74,8.18-2,11.79-9.88,9.42C137.52,47.74,135.71,47,133.87,46.29Z"/><path class="aq" d="M126.41,100c6.63.31,13-.6,18.82-4l3.14-.82-2.9,3.91-6.26,1.74c-1.08,0-2.16-.14-3.23-.11-3.44.09-6.88.23-10.32.36a5.15,5.15,0,0,1,.29-.89C126,100.07,126.25,100.07,126.41,100Z"/><path class="ar" d="M126.41,100c-.16,0-.4,0-.46.15a5.15,5.15,0,0,0-.29.89c3.44-.13,6.88-.27,10.32-.36,1.07,0,2.15.07,3.23.11-8.65,2.18-17.07,2.33-25-2.68Z"/><path class="as" d="M194.3,76.11C191.91,71,189.47,66,187.13,60.9c-.75-1.62-1.27-3.34-1.89-5q4.75,8.52,9.5,17.05c.95,1.72,1.82,3.48,2.73,5.22l.46,2.2c-.48-.23-1.12-.33-1.39-.71C195.71,78.52,195,77.29,194.3,76.11Z"/><path class="at" d="M31.27,14.1l-11.68.23-2.28-1.21,13.94,0C31.25,13.48,31.26,13.79,31.27,14.1Z"/><path class="ab" d="M234.84,33c-.26,2-.52,4.07-.77,6.11l-.78,0c-.1-7.85-1.23-9.63-6.22-10.06a28.17,28.17,0,0,1-3.68-.81C229.13,26.72,231.32,27.62,234.84,33Z"/><path class="au" d="M110.19,61l1.11,3.15,1.23,11.07-1.3-.12L109.16,65C109.5,63.68,109.84,62.36,110.19,61Z"/><path class="av" d="M31.27,14.1c0-.31,0-.62,0-.94,2.91,4.9,6.7,5.51,11.87,1.91q-1.53,8-3,16.06l-10.72,0Z"/><path class="aw" d="M29.35,31.1l10.72,0-2,13a29.08,29.08,0,0,1-4.73.93c-6,.19-6.64-.59-5.44-6.39C28.45,36.18,28.88,33.64,29.35,31.1Z"/><path class="ax" d="M108.25,65.17c0,.49,0,1,0,1.47,0,6.33-.14,6.47-5.63,6.5-5.8,0-6.25-.42-6.36-6.53,0-.49,0-1,0-1.47Z"/></svg>