<?xml version="1.0" encoding="utf-8"?>

<svg version="1.1" xmlns="http://www.w3.org/2000/svg" xmlns:xlink="http://www.w3.org/1999/xlink" x="0px" y="0px"
	 viewBox="0 0 1080 1080" style="enable-background:new 0 0 1080 1080;" xml:space="preserve">
<style type="text/css">
	.st0{fill:#6DBB58;}
	.st1{fill:#3786C8;}
</style>
<path class="st0" d="M911.7,882.6c-3.4,2.3-6.4,5.5-10.1,6.7c-29.2,8.9-58.1,18.9-87.8,25.6c-51.3,11.7-103.9,17-156.5,15.8
	c-60.1-1-119.1-9.9-176.2-29.3c-92.9-31.7-169.6-86.8-230.7-163.3c-43.4-54.4-75.7-115-101-179.6c-0.5-1.8-0.9-3.6-1.2-5.4
	c6.4-6.5,84.1-29.6,97.8-28.6c4.8,11.6,9.9,23.9,15,36.2c46.2,110.8,116.3,201.5,221.7,262.2c54.7,31.6,113.9,50.6,176.1,60
	c64.4,9.7,128.9,8.5,193.5,0.9c19.1-2.3,38.4-2.8,57.6-4.1C910.5,880.6,911.1,881.6,911.7,882.6z"/>
<path class="st1" d="M261.7,333.5l88.7,13.1c0,5.3,0.3,9.1,0,12.8c-6.2,59.9-4.5,119.5,9.7,178.1c17.5,75.2,56,143.9,111.1,198
	c35.2,34.4,75.4,61.9,119.1,84.4c41.9,21.6,86,37.1,130.9,50.8c7.2,2.2,14.7,3.2,22,5.1c2.8,1,5.5,2.4,8,3.9
	c-0.1,1.2-0.3,2.4-0.4,3.6c-6.8,0.5-13.6,1.8-20.4,1.5c-45.5-2.1-89.5-12.3-132.8-26.1c-56-17.7-108.3-42.8-156.4-76.9
	C398.8,751.9,362,714.7,332.5,672c-25.9-37.5-43.7-78.4-56.5-121.7c-9.2-31.3-13.1-63.3-17.1-95.6c-4.2-34.6-1.1-68.8-0.2-103.2
	C258.9,346.3,260.4,341.2,261.7,333.5z"/>
<path class="st0" d="M610.2,818.9c-4.8-1-7.1-0.9-8.7-2c-14.8-8.8-30.1-17.2-44.2-27c-15.5-10.9-29.9-23.4-45-34.9
	c-22.5-17.1-41.4-37.7-59.5-59.2c-35.9-42.6-61.3-91.2-78.7-143.7c-12.8-37.8-18.1-77.7-15.6-117.4c1.5-21.9,3.2-43.9,7.2-65.5
	c3.4-17.9,9.5-35.4,15.8-52.5c8.4-23.1,16.8-46.3,27.6-68.3c9.1-18.6,21.7-35.5,32.7-53.2c0.5-0.7,1.6-1,3.8-2.2l61.4,43.4
	c-9.7,18.2-18.8,34.4-27,51.1c-9.5,19.4-17.7,39.4-27,58.9c-15,31.3-21.1,64.8-24.8,98.6c-4,37.9-1.5,76.2,7.3,113.3
	c7.3,31.4,20,60.7,33.3,90c16.9,37.1,41.4,68.6,68.4,98.3c15.6,17.2,33.5,32.1,50.6,48c5.7,5.4,11.4,10.7,17,16.2
	C606.8,813.3,608.6,816.1,610.2,818.9z"/>
<path class="st1" d="M684.6,135.2l27.6,65.5c-4.6,2.6-8.1,4.8-11.8,6.6c-70.5,33.1-130.8,78.4-173.2,145
	c-29.6,46.3-46.2,97.1-48.6,151.9c-1.3,28.7-1.3,57.9,2.6,86.3c4,30.1,13.4,59.4,20.3,89.1c0.7,3.2,1.2,6.4,1.8,9.6l-2.7,1.4
	c-2.2-2.4-5.1-4.4-6.7-7.2c-22.3-38.4-36.1-79.8-44.9-123.3c-6.9-34.3-10.3-68.7-8.4-103.7c4.8-86.1,37.5-159.9,98.1-221.4
	c38.4-38.9,83.3-68.6,132.1-92.9c2-1,3.9-2.2,6.1-3.2C679,137.8,680.9,136.9,684.6,135.2z"/>
<path class="st0" d="M486.5,569.1c-0.3-8.2-1.3-16.5-0.8-24.8c2.1-34.6,8.6-68.9,19.3-101.9c16-49.4,39.6-94.7,73.7-134.1
	c44.3-51.5,99.7-85.2,164.5-103.8C793,190.2,844.1,185,895.8,187c2.4,0.4,4.7,0.9,7,1.6c-2,21.7-3.9,43.1-6.1,65.5
	c-6.3,0.4-11.1,1.1-15.9,0.9c-35.7-1.6-71.5,1.1-106.6,8c-74,14.6-138.2,47.8-188.6,105c-31.4,35.7-55.3,77.4-70.2,122.6
	c-8.1,24.1-14.3,48.8-21.4,73.3c-0.9,2.2-1.9,4.3-3.2,6.3L486.5,569.1z"/>
</svg>
