<?xml version="1.0" encoding="utf-8"?>
<!-- Generator: Adobe Illustrator 26.0.2, SVG Export Plug-In . SVG Version: 6.00 Build 0)  -->
<svg version="1.1" id="图层_1" xmlns="http://www.w3.org/2000/svg" xmlns:xlink="http://www.w3.org/1999/xlink" x="0px" y="0px"
	 viewBox="0 0 1080 1080" style="enable-background:new 0 0 1080 1080;" xml:space="preserve">
<style type="text/css">
	.st0{fill:#03A9F4;}
	.st1{fill:#0277BD;}
	.st2{fill:#81D4FA;}
	.st3{fill:#4FC3F7;}
	.st4{fill:#00C853;}
</style>
<path class="st0" d="M745.4,214.8h105.8v105.8H745.4V214.8z M180.6,354.8h154v154h-154V354.8z"/>
<path class="st1" d="M368.9,354.8h154v154h-154V354.8z"/>
<path class="st2" d="M215.7,566.3h119v119h-119V566.3z"/>
<path class="st1" d="M557.1,548.7h154v154h-154V548.7z"/>
<path class="st0" d="M745.4,548.7h154v154h-154V548.7z"/>
<path class="st3" d="M745.8,388.6h105.8v105.8H745.8V388.6z M377.6,743.6h105.8v105.8H377.6V743.6z M233,241.8h83.9v83.9H233
	L233,241.8z M590.2,263.7h53.2v53.2h-53.2V263.7z"/>
<path class="st4" d="M580.1,375.9L476.8,272.6v-59.9H407v69.8h57.3l103.3,103.3v109l-70.5,67.2H386v119.8h119.8V575.4l70-66.6h124.8
	v-133H580.1z M576.9,867.3h114.6V752.8H576.9V867.3L576.9,867.3z"/>
</svg>
