<svg xmlns="http://www.w3.org/2000/svg" viewBox="0 0 720 407"><defs><style>.a{fill:#fefefe;}.b{fill:#fe3f78;}.c{fill:#fa4279;}.d{fill:#fd3f78;}.e{fill:#f26b41;}.f{fill:#f36a3f;}.g{fill:#f56d41;}.h{fill:#eb3c4a;}.i{fill:#f46e40;}.j{fill:#f47f2f;}.k{fill:#f49a1b;}.l{fill:#f0583f;}.m{fill:#f24a3f;}.n{fill:#f16c40;}.o{fill:#cc3d68;}.p{fill:#d53b65;}.q{fill:#fefefd;}.r{fill:#fefdfd;}.s{fill:#f78b25;}.t{fill:#fefcfd;}.u{fill:#e13d56;}.v{fill:#f13f3f;}.w{fill:#f59420;}.x{fill:#fefdfc;}.y{fill:#fefcfc;}.z{fill:#f57942;}.aa{fill:#f47247;}.ab{fill:#ee4749;}.ac{fill:#de4b64;}.ad{fill:#f77f42;}.ae{fill:#f45842;}.af{fill:#fdbf99;}.ag{fill:#030303;}.ah{fill:#040404;}.ai{fill:#020202;}.aj{fill:#060606;}.ak{fill:#080808;}.al{fill:#0b0b0b;}.am{fill:#0a0a0a;}.an{fill:#090909;}.ao{fill:#e3636e;}.ap{fill:#d16680;}.aq{fill:#ea855e;}.ar{fill:#e26e5f;}.as{fill:#fefcfb;}.at{fill:#fdfbf9;}.au{fill:#fdf6eb;}.av{fill:#fefbfa;}.aw{fill:#fef6f2;}.ax{fill:#fafafa;}.ay{fill:#fdfdfd;}.az{fill:#fcfcfc;}.ba{fill:#f8f8f8;}.bb{fill:#efefef;}.bc{fill:#f9f9f9;}.bd{fill:#e5e5e5;}.be{fill:#f2f2f2;}.bf{fill:#f6f6f6;}.bg{fill:#f5f5f5;}.bh{fill:#eee;}.bi{fill:#f7f7f7;}</style></defs><path class="a" d="M401,406.72h-7c-1.64-1.79-1.31-4-1.36-6.16-.09-3.49.18-7-.15-10.47-.51-5.4-3.33-8.46-8.6-9.58a22.93,22.93,0,0,0-12.41,1c3.15,1.41,6.15.66,9,.85,2.68.18,5.36.31,7.54,2.13a3.33,3.33,0,0,1,1.29,3.54c-.36,1.33-1.55,1.65-2.72,1.84-2.64.43-5.31.13-8,.3-8,.53-11.39,7.19-6.19,12.59,1,1,2.11,2.22,1.56,4H360c-1.6-3.53,0-7.19-.43-10.8-.88-7.8-4-10.35-12.83-9.2,3.34,1,6.39.53,8.36,2.74s2.2,4.76,2.21,7.47c0,3.22-1.51,5-4.79,5.1-2.17.1-4.33.07-6.5.09-5.58.05-11.05-.75-13.33-6.65-2.55-6.57-2.76-13.43,1.29-19.63,2.42-3.71,6.64-4.14,10.68-4.41s7.87.1,11.79-.64c-5.7-.71-11.43-1.17-17.08-.16a10.76,10.76,0,0,0-9.26,9.3c-1.4,8.73-2.15,17.43,7,23.1,1.24.77,2.41,1.88,1.92,3.69H296c-1.53-3.67-4.23-5.09-8.22-4.7a19.51,19.51,0,0,1-7.9-.45c-2.59-.85-4.47-2.73-4.27-5.47.23-3,3-2.52,5.09-2.66,3.14-.2,6.3.08,9.45-.12,3.8-.25,4.93-1.9,4-5.56a11,11,0,0,0-17.82-5.65c-5.94,5.09-5.09,16.55,1.53,20.72,1.47.93,3.51,1.45,3.12,3.89H263c-1.71-1.93-1.42-4.32-1.47-6.61-.13-5.62.2-11.24-.59-16.86-.53,5.44-.38,10.9-.47,16.36,0,2.45.36,5-1.47,7.11h-8c-1.75-2-1.36-4.36-1.38-6.64-.07-9.25.06-18.49-.49-27.8-1.13,2.15-.56,4.91-2.72,6.53s-4.75,1.19-7.2,1.37c-5.84.42-10.37,3.73-12.07,8.84-1.52,4.56.49,10.09,4.88,13.6,1.35,1.08,3.37,1.73,3,4.1H217c-1.34-1.48-1.41-3.31-1.45-5.15,0-2.17,0-4.33,0-6.49,0-12-4.13-15.62-16.26-14.89-3.37.21-4.77,1.63-4.78,4.91,0,5.16,0,10.31,0,15.47,0,2.15.14,4.36-1.46,6.15h-7c-1.83-2.1-1.4-4.67-1.48-7.13-.19-5.74.37-11.51-.84-17.24-1.93,4.13-.83,8.52-1.21,12.76-.35,3.89,1.07,8-1.47,11.61H152c-1.64-1.79-1.3-4-1.37-6.15-.1-3.48.18-7-.33-10.44-.74-5-3.57-8.17-8.42-9.35a29.5,29.5,0,0,0-13.48.06c2.57,2.18,5.05,1.37,7.27,1.5,3.14.19,6.37-.27,9.16,1.67,1.42,1,2.61,2.32,2.19,4.14s-2.23,1.73-3.67,1.86c-2.81.27-5.66-.12-8.46.36-3.1.52-5.77,1.84-6.94,5s0,5.47,2.26,7.6c1,1,2.32,2,1.79,3.79h-14c-1.34-1.47-1.41-3.31-1.45-5.15,0-2.65,0-5.31,0-8-.12-10.39-8.23-16.18-18.28-13.16-2.57.77-2.65,2.71-2.71,4.69-.15,5.15,0,10.3-.07,15.45,0,2.15.14,4.36-1.46,6.14h-8c-1.49-5.71,0-11.5-.45-17.24-.21-2.42.28-4.92-1-8.33-1.86,5.92-.71,11-1.09,16-.25,3.24.82,6.69-1.46,9.62h-8c-1.59-4.21-.24-8.52-.4-12.78-.36-10-3-12.9-13-13.77-5-.44-5.19-.68-6.8-7.48-.42,8.95-.3,17.92-.37,26.88,0,2.46.39,5-1.44,7.15h-8c-1.59-3.68-4.37-5-8.33-4.65a72.69,72.69,0,0,1-8.48,0,11.24,11.24,0,0,1-5.71-1.48c-5.29-3.18-7.41-10.72-5.4-19.4,1.32-5.72,5.46-9.17,11.76-9.73,2.15-.19,4.32,0,6.48-.13s4.28.41,7.27-.78a78.74,78.74,0,0,0-17.63,0,11,11,0,0,0-7.35,4.78c-6.53,8.89-3.38,22.83,6.26,28.1,1.37.76,3.29,1.09,3.14,3.32-7.5,0-15-.18-22.49.09-3,.11-3.6-.61-3.59-3.59q.17-79.43.08-158.85V125c2.82.5,2.22,2.94,2.52,4.71,1.68,9.69,3.7,19.3,7.26,28.5,9,23.33,25.22,39.2,49.22,46.74A122.61,122.61,0,0,0,97,210.52c21.32-.17,42.64-.09,64,0,11.23,0,19.44-4.91,24.94-14.57a19.64,19.64,0,0,0,1.79-4.64c1.88-6.9.44-8.9-6.65-8.9q-45.48-.06-90.95,0A67.5,67.5,0,0,1,69.44,179C47.75,172.14,37.11,156,33,134.84a149.6,149.6,0,0,1-.09-56.55c4.31-23,18.37-37.4,39.93-45.13a83.25,83.25,0,0,1,28-4.48c24-.11,48-.52,72,.14,14,.39,28.92-8.37,29.36-25.92A4.35,4.35,0,0,1,203,.1h43c.15,2.43-1.95,2.94-3.45,3.69-12,6-16.59,16.07-16.22,29,.07,2.15-.07,4.32,0,6.47.25,4.69,1.73,5.81,6.38,5,12.57-2.26,21.28-13.43,21.91-27.84.24-5.42-.78-10.86.33-16.25H362c-1,3.38-4.22,2.76-6.57,3.2a110.86,110.86,0,0,0-34.18,12.17C302.48,26,291.44,42.19,286,62.47c-8.32,31-7.43,61.89,1.31,92.64A74.3,74.3,0,0,0,312,193.06c9.58,7.87,21.15,11.89,33.21,14.2a178,178,0,0,0,36.24,3.31c24.31-.34,48.64-.08,73-.11,6.62,0,7.11-.48,7.12-7.08,0-19.65.37-39.3-.09-58.93-.46-19.4-7.06-36-25-45.91-8.57-4.74-18.14-6.71-27.87-7-11.49-.35-23-.15-34.48-.06-5.55,0-6.37,1.15-5.4,6.65,1.69,9.63,10.71,18.58,20.4,20.33A85.62,85.62,0,0,0,406,119.57a35.21,35.21,0,0,1,9.43.81c10.63,2.7,16.61,9.88,18,20.78,1.42,11.46,1,22.93,1,34.41,0,5.72-1,6.72-6.74,6.75-17.66.1-35.32,0-53,.06-6.5,0-13,0-19.41-1.15-12-2.2-23.14-6-31.39-15.87a51.17,51.17,0,0,1-10.35-21.94c-5.66-25-6.12-50.12.45-75.11,5.09-19.35,18.35-30.24,37-35.46a118.8,118.8,0,0,1,30.61-4.15c17.32-.23,34.64,0,52-.06,16.7,0,26.94-9.81,27.9-26.63A4.9,4.9,0,0,1,461.94.1h110c.73,1.58-.12,2.9-.7,4.26C549.2,56.49,528,109,506,161.09c-6.14,14.56-11.91,29.29-18.05,43.86-1.78,4.22-1.07,5.44,3.55,5.56,6.83.17,13.66,0,20.49.08,3.32.06,5.11-1.41,6.44-4.37,6.09-13.5,12.11-27,17.91-40.66,2.13-5,5.25-7.07,10.67-7,18.49.18,37,.08,55.46.06,11.21,0,19.38-5.1,24.82-14.79a17.92,17.92,0,0,0,1.56-3.66c2.22-7.55.59-9.82-7.14-9.82q-30,0-60,0c-1.17,0-2.34,0-3.5,0-6.13-.19-7-1.6-4.68-7.39,9.72-23.89,19-47.94,28.7-71.86,2.3-5.71,4.31-11.53,6.88-17.14C592,27.74,597.9,27.1,602,32.57a37.39,37.39,0,0,1,4.35,8.4c13.28,32.87,27,65.57,40.2,98.46,8.44,21,18,41.49,26.84,62.34.77,1.84,1.79,3.57,2.66,5.37,1.27,2.58,3.38,3.44,6.12,3.42,6.66,0,13.33.07,20,0,5-.08,5.61-1,3.73-5.69-7.42-18.36-15.29-36.53-23-54.77-17.11-40.47-34.09-81-51.39-121.38-2.62-6.12-5.69-12-10.3-17-4.08-4.4-8.75-7.61-14.7-8.92C605,2.47,602.93,2.5,602.9.1c37.66,0,75.31.06,113-.1,3.42,0,4.1.67,4.09,4.1q-.18,114.39-.1,228.78c-4.32.68-8.58-.43-12.9-.43q-340.11.12-680.22.07c-2.33,0-4.66,0-7,.19-2.61.26-3.86,1.61-3.84,4.24s1.27,4,3.91,4.14c1.83.12,3.66.15,5.49.15q342.11,0,684.22,0c3.43,0,7-1.14,10.33.58,0,53.12-.07,106.24.14,159.36,0,4.7-.92,6.45-5.64,5.53a24,24,0,0,0-4.49,0c-1.54-3.67-4.24-5.06-8.24-4.71a19.31,19.31,0,0,1-9.33-1c-2-.83-3.46-2.11-3.22-4.47.26-2.64,2.37-2.92,4.41-3.06,3.48-.23,7,0,10.46-.15,4-.22,4.92-1.54,3.95-5.46a10.88,10.88,0,0,0-12.23-8.52c-6.28.95-10.71,7-10.06,13.88a12.83,12.83,0,0,0,4.16,8.78c1.4,1.26,3.41,2.26,3.1,4.71h-17c-1.38-3.83-4.08-5.28-8.08-4.68a16.84,16.84,0,0,1-4.48-.1c-5.15-.64-8.3-4-8.32-8.91,0-5.94,3.14-9.83,8.47-10.52,3.23-.42,6.58.44,10-.85-6.08-3.45-14.53-1.6-18.74,3.82-4,5.15-3.15,11,2.3,16.4,1.36,1.35,3.36,2.37,2.82,4.84h-16c-1.6-1.78-1.4-4-1.45-6.14,0-1.49,0-3,0-4.48-.36-12.32-4.74-16.33-17-15.94-3.55.12-5.16,1.36-5.1,5,.1,5.14,0,10.29,0,15.43,0,2.15.15,4.36-1.44,6.14h-7c-2.48-3.64-1.64-7.83-1.26-11.62,1.36-13.49-9.38-17.3-21.61-13.77,3.4,1.66,6.54.85,9.54,1,2.68.15,5.36.19,7.35,2.37.91,1,1.76,2.1,1.18,3.56-.49,1.26-1.72,1.48-2.87,1.65-2.64.37-5.31.07-8,.28-7.36.6-11.78,7-5.92,12.58,1,1,2.11,2.2,1.56,3.93h-14C576.4,405,577,403,577.16,401a82.88,82.88,0,0,0-.52-18.68c-1.74,2.61-1,5.55-1.28,8.34-.54,5.34,1.41,10.9-1.45,16h-7c-1.7-1.94-1.49-4.33-1.51-6.64,0-7.81,0-15.62,0-23.44,0-1.76.42-3.66-1-5.31-1.41,1.83-.92,3.89-.93,5.81-.08,7.65,0,15.3-.05,22.94,0,2.31.19,4.7-1.51,6.64h-7c-1.69-1.93-1.49-4.31-1.5-6.62,0-7.62,0-15.24,0-22.87,0-1.91.46-4-1-5.77-1.42,1.63-.9,3.53-.92,5.28-.07,7.79,0,15.57-.05,23.36,0,2.31.19,4.69-1.5,6.62h-8c-4.1-8.33-7.62-16.92-11.34-25.42a48.37,48.37,0,0,0-3.89-8.07c-1.35-2-3.19-3.57-5.73-3.47-2.7.11-3.24,2.55-4,4.51-4.47,10.9-8.87,21.83-14,32.45h-32c-1.53-3.69-4.25-5.09-8.25-4.7a16.39,16.39,0,0,1-8.8-1.23c-1.79-.87-3-2.21-2.74-4.31.26-2.34,2.09-2.81,4-3,3.65-.3,7.32-.11,11-.15,3.38,0,4.32-1.66,3.68-4.83-.94-4.63-3.95-8.09-8.22-9.06a11,11,0,0,0-11.22,4.86c-3.6,5.4-2.6,13.61,2.23,18.09a10.74,10.74,0,0,1,1.16,1l.53.55c.59.83,1.23,1.65.67,2.76H439c-1.46-1.63-1.43-3.64-1.47-5.64-.06-3,.12-6-.14-9-.66-7.37-4.38-11.24-11.7-11.74-6.13-.42-12.29-.09-18.43-.13-3.4,0-4.74,1.65-4.75,4.9,0,5.14,0,10.29,0,15.43C402.41,402.73,402.55,404.94,401,406.72Z" transform="translate(0 0)"/><path class="b" d="M461.94.1c2.81,6.27.2,11.8-3,16.82-5.52,8.71-13.49,13.46-24.13,13.4-18.66-.1-37.32-.24-56,.06a104,104,0,0,0-34.19,6.13c-17.36,6.32-26.94,19-30.62,36.4a154.93,154.93,0,0,0,.5,68.76c5.6,23.38,16.08,34.62,41.92,38.07,24.2,3.23,48.57.69,72.85,1.48,2.65.09,3.53-1,3.47-3.52-.29-12,.6-24-.72-35.92-1.4-12.78-9-19.94-22-20.74-7-.43-14,.09-20.94-1-12.14-1.93-22.32-13.6-22.6-25.77-.05-2.4.51-4,3.13-4,15.48-.06,31.08-1.39,46.42.77,28.87,4.08,44.22,20.12,46.53,49.11,1.8,22.57.5,45.26.56,67.9,0,4-2.68,3.89-5.46,3.89-19.33,0-38.65.11-58,0-13.81-.11-27.65.81-41.43-.94-15.28-1.94-30.23-5.08-43.26-13.84-16.91-11.37-26.21-28.06-30.81-47.33-7.27-30.41-7.62-60.91,1.37-91.14,7.75-26,25.3-42.47,50.51-51.67C344.61,3.85,353.56,3.09,362,.1Z" transform="translate(0 0)"/><path class="b" d="M602.9.1C616,3,624.91,11,630.31,23.1c2.57,5.76,5.21,11.5,7.67,17.3q18.48,43.62,36.9,87.26Q691.46,166.9,708,206.14c1.81,4.3.88,5.68-4,5.74-7.66.08-15.33-.16-23,.1-3.38.11-5.05-1.11-6.39-4.12-12.33-27.79-24.52-55.63-35.88-83.84C627.34,95.53,615.63,67.13,604,38.71a26,26,0,0,0-3.19-5.62,7.56,7.56,0,0,0-6.92-3.19c-2.94.21-3,2.89-3.72,4.7-12,29.91-23.78,59.88-35.77,89.78-1.52,3.8-1.2,5,3.3,5,22.32-.19,44.64-.1,67-.08,6.4,0,7.15.92,6.34,7.37-1.52,12.3-13.37,23.05-26.14,23.19q-29.49.33-59,0c-4.15,0-6.24,1.3-7.84,5.06-6.11,14.37-12.63,28.57-18.75,42.94-1.33,3.12-3,4.18-6.3,4.07-7.32-.23-14.66,0-22-.08-6.25,0-6.93-1.06-4.61-6.64Q521,121.93,555.58,38.61c5.34-12.88,10.13-26,16.33-38.51Z" transform="translate(0 0)"/><path class="b" d="M203,.1c3,10.73-6.43,24.7-17,28.33a38.06,38.06,0,0,1-12.74,1.9c-25,0-50-.09-75,0a75.11,75.11,0,0,0-34.16,8C49,46,39.21,57.94,35.25,74.44a134.43,134.43,0,0,0,.32,65.17c6.74,26.47,26,41.18,54,41.47,31,.31,62,.09,92.94.11,7.79,0,8.84,1.32,7.12,8.8a27.86,27.86,0,0,1-26.92,21.86c-25.31.1-50.67.75-75.93-.39C62,210.34,39.4,202.65,22.59,182.92c-11.81-13.87-17.3-30.43-20.51-48-.61-3.3.12-6.92-2-9.93V87C1.16,78,1.92,69,4.62,60.2c9.74-31.81,31-51.06,63.21-58.59C72.17.6,76.74,1.37,81.06.1Z" transform="translate(0 0)"/><path class="c" d="M719.86,241.87a20.86,20.86,0,0,1-7.32,1.24q-344.83-.06-689.67-.08h-2.5c-5.65,0-8.55-4.79-6.11-10a3.41,3.41,0,0,1,3.31-1.8c2.5-.1,5-.07,7.5-.07q343.34,0,686.67,0c2.86,0,5.67,0,8.12,1.75Z" transform="translate(0 0)"/><path class="a" d="M81.06.1C74.47,2.74,67.33,2.85,60.55,4.93,32.57,13.52,14.89,32,6.28,59.6A117.82,117.82,0,0,0,1.21,84.4c-.09,1-.14,2-1.13,2.62C.08,59.13.13,31.24,0,3.35,0,.6.53,0,3.31,0,29.23.15,55.14.1,81.06.1Z" transform="translate(0 0)"/><path class="d" d="M255,.1c1.28,12.42,2.86,24.92-5.85,35.67a27.79,27.79,0,0,1-18.78,10.15c-2.3.3-4.94.1-5-2.68-.23-10-1.65-20.23,4-29.57,3.06-5,7.36-8.38,12.38-11.08,1.44-.77,3.22-1,4.22-2.49Z" transform="translate(0 0)"/><path class="e" d="M339,406.72c-3.11-3.72-8.05-5.38-10-10.54-3.93-10.16-.54-23,8-26.44,6.85-2.73,14.16-1,21.27-1.17,1.58-.05,1.64,1.35,1.58,2.56-.08,1.67-1.35,1.67-2.52,1.67-4.16,0-8.33,0-12.49.05-7.72.13-11.57,2.27-12.28,10.94a34.64,34.64,0,0,0,.6,9.85,8,8,0,0,0,6.62,6.61,38.69,38.69,0,0,0,9.94.64c2.71-.14,6.66,1.79,6.41-3.94-.28-6.39-1.17-7.83-6.72-8-1.33,0-2.67,0-4-.17s-1.48-1.12-1.5-2.2.43-1.87,1.68-2c8.75-.71,14.94.3,15.09,10.68,0,3.8.49,7.67-.69,11.41Z" transform="translate(0 0)"/><path class="f" d="M502.93,406.72c-.19-4.2,2.27-7.54,3.72-11.18,3-7.7,6.35-15.29,9.42-23,2-5.08,6.3-6,10.39-2.18,1.8,1.69,2.37,3.94,3.28,6.05,3.73,8.67,7.42,17.35,11.2,26a9.37,9.37,0,0,1,1,4.3h-4c-.44-.5-1-.91-1.42-1.4-2-2.27-2.08-6.55-5.85-7a74.89,74.89,0,0,0-16.93.08c-1.63.2-2.43,1.65-3.13,3-1,1.92-1.9,3.89-3.66,5.28Z" transform="translate(0 0)"/><path class="g" d="M401,406.72c0-7.78.2-15.56.05-23.33-.06-3.16.85-4.54,4.2-4.46,6.8.17,13.61-.06,20.41.09,8.82.19,13,4.55,13.15,13.3.07,4.8.12,9.6.18,14.4h-5c-1.93-2.27-1.33-5-1.46-7.65-.15-3.31.42-6.69-.58-9.92-.86-2.79-3-3.93-5.8-3.65s-2.58,2.64-2.65,4.59c-.12,3.65,0,7.32-.06,11,0,2,0,4-1.44,5.65h-4c-1.93-2.25-1.38-5-1.45-7.59-.09-3.13,0-6.27-.14-9.4-.1-3-1.19-4.58-4.46-4.53s-4.48,1.46-4.47,4.52c0,3.64,0,7.27,0,10.9,0,2.13.15,4.33-1.45,6.1Z" transform="translate(0 0)"/><path class="h" d="M132,406.72a6.21,6.21,0,0,0-2.61-2.9c-3.28-1.78-3.91-4.83-3.34-8.13s2.9-5,5.92-6.07c3.74-1.27,7.59-.42,11.38-.73,1-.09,2.58.64,2.82-1.1.17-1.24-.8-2.11-1.76-2.82-1.57-1.15-3.41-1.19-5.24-1.21-3.49,0-7,0-10.47-.07-1.74,0-2.28-1.09-2.22-2.62a1.94,1.94,0,0,1,2.25-2.05c4.64.11,9.36-.23,13.92.46,6,.9,8.92,5.06,9.15,11.82.17,5.14.14,10.28.2,15.42Z" transform="translate(0 0)"/><path class="i" d="M374,406.72a20.47,20.47,0,0,0-2.46-3.06c-3-2.55-4.14-5.66-2.69-9.31,1.53-3.86,4.94-5.15,8.77-5.39,2.65-.16,5.32,0,8-.07,1.06,0,2.61.49,2.95-1,.41-1.7-.8-2.82-2.29-3.38-2.71-1-5.58-.7-8.39-.74-1.83,0-3.67.05-5.49-.07-1.36-.09-3.19.41-3.33-1.92s1.22-2.92,3.11-2.9c4,0,8-.08,12,.29,5.91.56,9.53,4.57,9.73,10.59.18,5.64.11,11.29.14,16.93Z" transform="translate(0 0)"/><path class="j" d="M591.9,406.72c-.68-.92-1.19-2.13-2.09-2.7-3.72-2.36-4.4-5.77-3.23-9.54,1.26-4.08,4.94-5.11,8.65-5.49,2.8-.28,5.64,0,8.46-.1,1,0,2.55.54,2.91-1.06.3-1.34-1-2-1.82-2.74-1.46-1.44-3.38-1.14-5.18-1.19-3.49-.09-7-.15-10.45-.21-1.27,0-2.32-.34-2.39-1.88,0-1-.12-1.95.94-2.59,3.28-2,18.17.59,21.18,3.57a8.92,8.92,0,0,1,2.88,7c-.16,5.62.07,11.25.14,16.88Z" transform="translate(0 0)"/><path class="k" d="M692.87,406.72c-3.46-3.38-7.63-6-8.53-11.56-1.56-9.69,4.5-17.44,14-17.3,8.11.12,11.71,8.61,11.39,14.12-.14,2.35-1.54,2.6-3.35,2.59-4.32,0-8.63-.05-12.94.06-1.31,0-3.28-.78-3.52,1.56-.19,1.89.87,3.06,2.67,3.68a24.4,24.4,0,0,0,10.35.87c4.6-.4,7.31.87,7,6Z" transform="translate(0 0)"/><path class="l" d="M281,406.72c-.71-1.51-2.29-1.86-3.56-2.55-5.2-2.81-7.6-8.84-6.17-15.76,1.27-6.18,5.5-9.92,11.7-10.35a12.4,12.4,0,0,1,13.18,13c-.08,2.56-1,3.55-3.55,3.49-4-.1-8-.11-12,.05-1.46.06-3.86-1-4.17,1.33a4,4,0,0,0,3.65,4.61,38.14,38.14,0,0,0,9.41.39c4.71-.56,6.84,1,6.45,5.81Z" transform="translate(0 0)"/><path class="m" d="M235,406.72c-.52-1.39-1.85-1.82-3-2.51-5.64-3.53-8-9.64-6.19-15.81s6.43-9.4,13.55-9.42a22.91,22.91,0,0,1,3,0c3.28.43,4.63-1,4.36-4.21-.1-1.33,0-2.66,0-4s.39-2.22,1.94-2.3,2.44.6,2.44,2.29c0,4.16.12,8.32.1,12.48,0,7.81-.15,15.63-.23,23.44Z" transform="translate(0 0)"/><path class="n" d="M452.78,404c-5.5-3.45-7.78-10.4-5.56-16.95,2.14-6.3,7.52-9.67,14.32-9s10.71,8.7,10.28,14.46c-.16,2.11-2,1.95-3.44,2-4.32.05-8.65,0-13,.07-1.32,0-3.36-.8-3.56,1.5a3.67,3.67,0,0,0,2.66,3.8c3.52,1.35,7.2,1.34,10.84,1,4.43-.36,6.76,1,5.6,5.85h-13c-1.18-1-2.77-1.13-4.08-1.85l-.05,0A1,1,0,0,0,452.78,404Z" transform="translate(0 0)"/><path class="o" d="M26.08,406.72c-.65-.5-1.22-1.27-1.94-1.46-12.95-3.37-13.64-18.07-10.53-27.17a13.32,13.32,0,0,1,12.3-9.45c5-.34,10-.17,15-.2,1.55,0,3.08,0,3,2.28s-1.69,2.09-3.2,2.1c-4.16,0-8.32-.11-12.46.07-7.06.3-10.88,4.21-11.18,11.3a47.67,47.67,0,0,0,.1,7c.64,5.91,4.15,9.27,10.07,9.63a66.78,66.78,0,0,0,11,.13c4.68-.5,6.36,1.42,6,5.8Z" transform="translate(0 0)"/><path class="p" d="M52.07,406.72c0-11.44-.13-22.89-.13-34.33,0-1.62-.8-4,2.29-3.88,2.68.07,2,2.12,2.07,3.63.34,6.74.32,6.75,7,6.86,7.28.12,11.24,3.66,11.38,10.89.11,5.6.8,11.27-.62,16.83h-4c-2.82-4.79-1-10-1.48-15.06-.47-4.83-2-6.41-6.31-6.4-3.06,0-4.61,1.3-4.68,4.41-.07,3.65,0,7.29-.06,10.93,0,2.14.13,4.34-1.46,6.12Z" transform="translate(0 0)"/><path class="q" d="M638.89,406.72h-15c-2.93-7.07-1.57-14.34-.91-21.55.14-1.63,1.71-2.28,3.25-2.69,8-2.12,14.11,2.26,14.14,10.62C640.39,397.65,641.69,402.44,638.89,406.72Z" transform="translate(0 0)"/><path class="r" d="M213,406.72H198c-2.93-7-1.49-14.25-1-21.43a3.22,3.22,0,0,1,2.21-2.47c4.53-2.08,12.68.44,14.11,5.08C215.26,394.06,215.74,400.5,213,406.72Z" transform="translate(0 0)"/><path class="r" d="M114.05,406.72h-15c-2.91-7-1.53-14.29-.94-21.48.13-1.64,1.65-2.33,3.19-2.74,6.22-1.63,12,1.5,13.36,7.75C115.82,395.71,116.9,401.33,114.05,406.72Z" transform="translate(0 0)"/><path class="s" d="M638.89,406.72c0-5.46,0-10.91,0-16.37a6.35,6.35,0,0,0-4.52-6,16.44,16.44,0,0,0-9.75-.2c-1,.28-.77,1.72-.77,2.69q0,9.92,0,19.84h-5c0-8,.24-15.93,0-23.89-.08-3.13.89-3.87,3.9-3.94,17.79-.43,20.73,2.39,20.76,20.4,0,2.47.19,4.95.3,7.43Z" transform="translate(0 0)"/><path class="t" d="M56.07,406.72c.09-6.45.29-12.9.24-19.35,0-2.79,1-3.64,3.79-3.68,8.94-.15,10.07.8,10.05,9.65,0,4.46-.06,8.92-.09,13.38Z" transform="translate(0 0)"/><path class="u" d="M114.05,406.72c-.61-5.76.3-11.61-.92-17.34-.95-4.42-9.92-7.89-13.53-5.23-.95.71-.79,1.76-.78,2.72.06,6.62.15,13.23.23,19.85h-5c0-8,0-15.94-.1-23.9,0-2.69.68-4,3.62-3.86s5.65,0,8.47.05c7.14.23,11.62,4.22,12,11.29.32,5.46,0,10.95,0,16.42Z" transform="translate(0 0)"/><path class="v" d="M213,406.72c0-4.65-.05-9.3-.14-14A9.7,9.7,0,0,0,199.27,384c-1.42.6-1.42,1.68-1.42,2.82,0,6.64.11,13.27.17,19.9h-5c0-8,.15-15.93,0-23.89-.05-2.76.83-4.09,3.67-3.82a2.78,2.78,0,0,0,.5,0c16.95-.71,20.14,2.31,20.16,19.27,0,2.81-.24,5.63-.36,8.44Z" transform="translate(0 0)"/><path class="w" d="M659.88,406.72c-.61-1.66-2-2.56-3.36-3.52a13.43,13.43,0,0,1-5-14.89A13.27,13.27,0,0,1,663.68,379c3-.08,6,0,9,0,1.69,0,3.38-.17,3.42,2.38s-1.42,2.6-3.23,2.58c-3,0-6-.1-9,0-5.11.2-7.56,3.16-7.59,9,0,4.94,2.54,7.66,7.55,7.86a36.78,36.78,0,0,0,6.47,0c4.85-.66,6.79,1.12,5.58,6Z" transform="translate(0 0)"/><path class="x" d="M406,406.72c-.06-6.63-.06-13.27-.22-19.9-.06-2.41.92-3.21,3.24-3.12,10.39.41,8.19-1.9,8.7,8.06.26,5,.19,10,.28,15Z" transform="translate(0 0)"/><path class="r" d="M506.93,406.72c3.31-10.12,3.31-10.12,13.43-10,1.32,0,2.65.05,4,.05,10.15,0,10.15,0,13.58,9.93Z" transform="translate(0 0)"/><path class="y" d="M422,406.72c0-5.64,0-11.28.16-16.91.09-2.36-1.91-6,3.22-6,5.51,0,8.32,1.55,8.54,6.05.27,5.62.07,11.26.07,16.89Z" transform="translate(0 0)"/><path class="z" d="M561.91,406.72c0-11.46,0-22.91,0-34.37,0-1.67-.73-4,2.11-4.19,3.27-.2,2.59,2.36,2.61,4.21.12,11.45.17,22.9.24,34.35Z" transform="translate(0 0)"/><path class="aa" d="M549.92,406.72c.05-11.3,0-22.6.21-33.9,0-1.63-1.19-4.46,2.16-4.43,3,0,2.6,2.42,2.6,4.41q0,17,0,33.92Z" transform="translate(0 0)"/><path class="ab" d="M181,406.72q.08-11.89.18-23.79c0-1.74-.51-3.95,2.37-3.94s2.4,2.13,2.41,3.91c0,7.94,0,15.88,0,23.82Z" transform="translate(0 0)"/><path class="ac" d="M82.06,406.72c0-7.92,0-15.84.1-23.76,0-1.73-.53-4,2.34-3.93s2.39,2.3,2.32,4c-.32,7.89.88,15.83-.76,23.68Z" transform="translate(0 0)"/><path class="ad" d="M573.91,406.72q0-11.69,0-23.36c0-2-.12-4.35,2.8-4.19s2,2.63,1.92,4.24c-.17,7.77.62,15.58-.71,23.31Z" transform="translate(0 0)"/><path class="ae" d="M259,406.72c-.12-8.1-.28-16.2-.35-24.29,0-1.36-.49-3.27,1.81-3.39s2.45,1.64,2.46,3.39q0,12.13.08,24.29Z" transform="translate(0 0)"/><path class="af" d="M453.86,404.87c1.72-.19,3.33-.09,4.08,1.85h-3Z" transform="translate(0 0)"/><path class="d" d="M225.22,142.55c0-20.81-.11-41.63,0-62.44a28.23,28.23,0,0,1,24.25-28c5.17-.73,6.27.12,6.27,5.42,0,42,.12,83.9,0,125.86-.05,14.2-9.89,25.54-23.65,28.15-5.65,1.07-6.85.16-6.86-5.59Q225.18,174.26,225.22,142.55Z" transform="translate(0 0)"/><path class="ag" d="M474.71,306.76c2.24-6.11,3-11.67,3.82-17.22.36-2.32-1.13-2-2.36-2-4.33-.05-8.67-.17-13,0-2.87.13-3.18-1.25-3.21-3.62s.55-3.59,3.31-3.51q9.74.27,19.48,0c2.69-.07,3.42.86,3.35,3.43A84.1,84.1,0,0,1,481,310.13c-1.08,3-1,5.34,1.1,7.76,1.41,1.61,2.39,3.6,3.75,5.27,1.57,1.94,2.58,6.26,4.25,5.72,3.63-1.17,6.71-4.12,9.95-6.42,1.1-.77.18-1.78,0-2.7-.8-5.07-1.81-10.13-2.23-15.23-.33-4.06-1.53-5.95-5.95-4.71-1.6.44-3.86,1.36-4.32-2.12s.3-5.24,4-4.79c4.79.59,6.07-1.45,5.33-6-.58-3.59-.3-7.31-.66-10.94-.33-3.28,1.5-3.38,3.93-3.33s4.23-.19,4,3.23c-.24,3.8.27,7.65.17,11.47-.08,2.84.41,4.18,3.81,3.67,5.24-.8,10.63-.72,15.86-1.58,3.56-.58,3.27,1.65,3.73,3.68.55,2.46-.61,3.18-2.89,3.36-5.47.42-10.91,1.22-16.38,1.51-2.78.14-3.79.8-3.47,3.79.47,4.44.67,8.89,2.16,13.82,4.27-3.61,7.2-7.77,10-12,1.52-2.29,2.6-2.61,4.86-.82s3.45,2.8,1.18,5.38c-3.73,4.24-7.21,8.7-10.84,13-1.22,1.47-3.15,2.45-1.78,5,1.54,2.9,2.29,6.44,5.81,7.64,2.25.77,3.34-1.08,3.84-2.94.86-3.19,1.51-6.45,2.25-9.67,7.07,2.28,7.17,2.45,5.21,9.59-2.56,9.35-6.6,12.5-13.68,10.37-4.42-1.33-7.29-4.65-9.1-8.71-1.18-2.65-2.42-2.63-4.33-1a12.63,12.63,0,0,1-2,1.44c-2.84,1.67-6.54,5.89-8.19,4.72-3.35-2.37-7.39-4.51-9.64-8.4-1.31-2.25-2.89-4.35-4.63-6.92-3.62,5.19-6.7,10.34-11.17,14.31-1,.93-1.91,4.25-3.81,1.82-1.4-1.79-4.5-4.16-1.36-7.27a65.49,65.49,0,0,0,9.7-12.62c1.48-2.42,1.82-4.2-.09-6.66-3-3.93-5.56-8.27-8.42-12.35-1.35-1.92-1.79-3.23.75-4.66,2.19-1.22,3.64-1.82,5.27.79C469.19,299.35,471.82,302.71,474.71,306.76Z" transform="translate(0 0)"/><path class="ah" d="M394.74,284.87c-.69-2.49-1.6-4.38-1.62-6.27,0-1.55-3.5-3.93.93-4.87,3-.63,5.5-1.32,5.91,3a41.68,41.68,0,0,0,1.3,5.79c.37,1.61,1.09,2.7,3.05,2.31,3.73-.74,5.29.87,4.39,5.63A34.7,34.7,0,0,0,416,276.09c1.19-4.52,4.33-3.15,7-2.94,1.72.13,1.15,1.66.79,2.75-.62,1.87-1.29,3.72-2.11,6.06,4.48,0,8.46,0,12.44,0,2.27,0,5-1.05,4.94,3.32s-3.07,2.93-5.17,3.05a52.71,52.71,0,0,1-10,0c-5-.66-7.12,1.91-8.73,6.67,5.82,0,11.24-.09,16.65.05,1.63.05,4.15-1.12,4.74,1.22s.91,5-1,7.12-3.68,3.83-5.54,5.74c-.83.86-1.66,1.78-1,3s1.75.58,2.66.63a21.27,21.27,0,0,0,4,0c2.66-.32,3.4.8,3.4,3.38s-.91,3.34-3.47,3.39c-6.82.13-6.82.26-6.82,7.13a30,30,0,0,0,0,3c1,10.09-4,11.82-13.85,11.71-3.31,0-2.82-2.66-3.13-4.66-.46-3.09,1.86-1.95,3.26-2,6.64-.06,6.67-.05,6.69-6.69v-1.5c0-7,0-7-7-7.08-2.38,0-4.52.41-4.5-3.37s2.15-3.32,4.52-3.35c3.28-.05,7,1.35,7.83-4.29.37-2.36,3.69-4.28,6.59-7.39-3.84,0-6.33-.35-8.67.07-5.45,1-8.79-2.26-12.26-5.45-.24-.22-.74-.43-.73-.63.26-6.72-4.78-3.07-7.44-3.63-6.4-1.35-4.52,3.84-5,6.95-.67,4.42,2.74,3.17,4.94,3.2,8,.13,8,.08,7.84,8.12-.18,7.48-.46,15-.74,22.44A9,9,0,0,1,395,340.59c-2.2-.76-1.89-2.84-2.1-4.59-.26-2.22,1.55-2,2.69-1.84,4.67.57,5.68-2,5.71-5.94,0-5.32.35-10.64.55-16,.1-2.39.41-4.46-3.37-4.43-3.27,0-3.61,1.19-3.79,4-.58,9.3-1.95,18.5-6.07,27-.56,1.16-.8,4.13-3.07,2.42-1.54-1.16-5.23-1.81-3.17-5.49,4.69-8.37,5.55-17.62,5.87-27,.15-4.15.44-8.3.51-12.45,0-2.32.89-5.08-3.26-5.25-2.45-.1-1.1-2.65-1.4-4.09-.39-1.91.83-2.21,2.36-2.18C389.06,284.89,391.69,284.87,394.74,284.87Z" transform="translate(0 0)"/><path class="ai" d="M76.34,304.44c0,4.82,0,9.65,0,14.48,0,1.36.57,3.52-1.74,3.33-2-.17-4.94,1.88-5.78-1.72-.47-2-1.74-2.09-3.33-2.07-4.16.06-8.34.25-12.49,0-3.19-.19-3.95,1.06-3.84,4,.21,5.65-.12,11.32.13,17,.14,3.23-1.43,3.46-3.93,3.3-2.3-.15-4.62.49-4.4-3.38.34-5.81,0-11.65.15-17.47.07-2.57-.66-3.59-3.35-3.45-3.82.2-7.66,0-11.49.08-2,0-4-.73-4.58,2.74-.45,2.68-3.67,1-5.62,1.27-2.43.32-2-1.64-2-3,0-10,.09-20-.06-30-.05-2.66,1.08-2.95,3.26-2.91,6.66.1,13.33-.13,20,.11,3.17.11,4.2-.95,3.83-4-.21-1.64.22-3.37-.09-5-.94-4.94,1.71-5.39,5.63-5.17,2.41.13,2.51,1.22,2.65,3.09.27,3.57-1.8,8.42,1,10.36,2.52,1.73,7.06.56,10.71.59,4.17,0,8.34.12,12.5,0,2.18-.07,2.91.64,2.85,2.82-.13,5,0,10,0,15Z" transform="translate(0 0)"/><path class="ai" d="M167.06,309c0,10,0,20,0,29.94,0,1.29.78,3.6-1.6,3.34-2.1-.22-5.38,2-6.18-1.77-.44-2.07-1.57-1.75-2.81-1.75q-21.48,0-42.94,0c-1.32,0-2.47-.2-2.89,1.76-.76,3.5-3.76,1.71-5.74,1.82-2.86.15-1.72-2.34-1.72-3.7-.07-19.62,0-39.25-.14-58.88,0-3.53,1.27-4,4.27-3.94,18.47.11,36.94.16,55.42,0,3.38,0,4.56.63,4.46,4.27C166.88,289.71,167.06,299.36,167.06,309Z" transform="translate(0 0)"/><path class="ag" d="M216.09,302.34c0-2.49,0-5,0-7.48,0-8.75,0-8.75,8.52-8.73,7.44,0,7.3,0,7.52-7.69,0-1.83-2-4.94,1.95-5.48,3.31-.45,5.44-.1,5.22,4.46-.4,8.66-.08,8.68,8.4,8.72,7.45,0,7.45,0,7.45,7.73,0,6.16-.09,12.31,0,18.46,0,2.33-.61,3.47-3.08,3.14a14.69,14.69,0,0,0-2,0c-11.85.08-11.85.08-11,12.25.08,1.1-.35,2.73,1.28,2.77a18.5,18.5,0,0,0,6.87-.74c1.85-.71-.22-2.2-.34-3.37-.17-1.74-3.1-3.52.72-5,3.21-1.22,4.77-.73,5.9,2.63,1.47,4.38,3.5,8.58,5.2,12.89.53,1.35,2.08,3.3-1,3.64-1.82.21-4.53,2.83-5.33-.74-1-4.32-3.38-3.7-6.61-3.36-9.57,1-19.2,1.44-28.77,2.44-3.62.38-3.68-1.89-4.07-4.11-.6-3.31,2-2.23,3.56-2.37,4-.37,8-.57,11.94-.83.17,0,.36,0,.5,0,6.63-2.76,1.46-8.34,2.88-12.4.87-2.47-.33-4.19-3.36-3.7-2.27.37-5.14-1.24-6.22,2.77-.37,1.37-3.37.69-5.09.4-1.91-.33-1.09-2.16-1.11-3.33C216,311,216.1,306.66,216.09,302.34Z" transform="translate(0 0)"/><path class="ah" d="M563.71,277.49c3.82,0,7.65,0,11.48,0,1.22,0,3-.46,2.85,1.67-.08,1.52,1,4.08-1,4.32-3,.36-2.33,2.18-2.34,3.84,0,10.48-.07,21,0,31.43,0,1.33-1.42,4.27,2.33,3.25,1.2-.33,2.94-.92,2.79,1.34-.12,1.8,1.22,4.85-1.58,5-4.24.24-3.66,2.74-3.6,5.37,0,1.83-.12,3.67,0,5.49.19,2.59-1.2,2.94-3.36,3-2.42.07-3-.85-3.15-3.19-.4-8.77-.5-8.77-8.94-7.08a41.16,41.16,0,0,1-5.86,1.12c-1.53.07-3.94,2.15-4.51-.72-.4-2-2.59-5.42,2.08-6.16,1.88-.29,1.31-2,1.32-3.24l0-35.92c0-1.63.35-3.07-2.25-3.48s-1.35-3-1.32-4.6c0-2.05,1.86-1.45,3-1.47,4-.07,8,0,12,0Z" transform="translate(0 0)"/><path class="ah" d="M598.76,287.42c2-3.61,4.37-7.09,5.93-10.89,1.67-4.07,4.12-2.92,6.65-1.61,3.56,1.84.29,3.53-.44,5-1.19,2.5-2.82,4.79-4.72,7.9,2.34.11,4.06.31,5.75.23,2.41-.11,4.05,0,4,3.29,0,3.06-1.24,3.62-3.82,3.37-1.64-.16-3.36.19-5-.07-5-.81-6.73.92-6.54,6.24.15,4.35,1.09,6,5.53,5.38,2.61-.36,5.32,0,8-.08,2.37-.09,4.07-.08,4,3.25,0,3.07-1.27,3.58-3.86,3.43-3-.17-6,.19-9-.11-4.09-.4-3.91,1.39-2.86,4.36a27.71,27.71,0,0,0,13.54,16c3.82,2,1.64,3.51.57,5.62-1.37,2.67-2.69,3.17-5.22,1.19a43.55,43.55,0,0,1-14.1-18.12c-2.7,7.9-7.66,13.07-13.1,18.09-3.61,3.32-4.62,1-6.75-1.31-2.83-3.08-.24-3.72,1.66-5,6.08-4.08,10.7-9.24,13.06-16.41,1.2-3.68.06-4.43-3.27-4.19-2.32.16-4.67-.09-7,.07-2.6.18-3.87-.38-3.89-3.46s1.47-3.44,3.95-3.41c3.64.05,8.18,1.11,10.68-.63,2.79-1.94.33-6.84,1.2-10.35-3.16-1.92-6.62-.58-9.93-.85-2-.16-3.46-.11-3.51-2.82s1.2-3.28,3.58-3.23c4,.07,7.91.06,11.86,0C596.8,288.29,598.17,289,598.76,287.42Z" transform="translate(0 0)"/><path class="ah" d="M672.72,339.7c-10.14,0-20.29,0-30.44,0-1.75,0-4.13,1-4.2-2.48-.06-3,1.48-3.35,3.74-3.07,2.49.31,3.1-.85,3-3.15-.17-3.82.06-7.65-.09-11.47-.1-2.43.42-3.53,3.23-3.51q24.7.19,49.41,0c3,0,3.67,1.1,3.53,3.79-.19,3.65.1,7.32-.12,11-.15,2.59.62,3.74,3.29,3.35s3.62.62,3.53,3.31c-.11,3.15-2.33,2.25-3.93,2.26C693.35,339.73,683,339.7,672.72,339.7Z" transform="translate(0 0)"/><path class="ag" d="M202.91,282.88a36.5,36.5,0,0,0,3.85-4.75c1.9-3.39,3.68-3.17,6.37-.73,1.78,1.61,1.62,2.59.08,3.83-6.12,4.92-6.64,10.46-4.52,18.1a70.29,70.29,0,0,1,1.52,31.59c-1.51,8.15-9.27,12.44-17,9.84-2.51-.85-1.74-3.3-2.08-5.1s1.28-1.44,2.34-1.55c9.55-1,10.54-2.1,10.46-11.94,0-2.44,0-4.88,0-7.32l-1.64-1c-2.33,2.64-4.54,5.4-7.05,7.86-.9.88-2.25,3.7-3.67,1.25-1-1.74-3.55-4.1-.93-6.64,2-2,4.17-3.81,6.18-5.79,4.1-4,7.22-8.38,3.46-14.58-2.11.38-3.26,2.74-5.24,3.73-1.11.55-2.34,3.29-3.38,1.23-.95-1.9-4.13-4.14-1.08-6.89.25-.22.53-.4.79-.61,6.36-5.25,6.34-5.24,1.35-12.16-1.08-1.49-3.47-2.71-.41-5,2.5-1.88,4.06-2.13,5.89.54C199.56,278.81,201.18,280.67,202.91,282.88Z" transform="translate(0 0)"/><path class="ah" d="M703.21,292.46c0,4.33,0,8.65,0,13,0,4.64-2.43,7.07-7,7.25-3,.12-6-.14-9,.1s-3.08-2.09-3.29-3.88c-.32-2.71,2-1.48,3.17-1.62a47.72,47.72,0,0,1,6-.1,2.81,2.81,0,0,0,3.16-3c.12-2.57-1.94-1.52-3.18-1.72-.81-.12-1.67.08-2.49,0-7-1-12.5,0-15,8.13-1.34,4.32-4.18,4.2-7.13.71-.61-.72-1-1.34-.33-2.12,6.7-7.86,5.49-17.36,5.56-26.58.05-6.77,0-6.77,6.78-6.77,6.49,0,13,.12,19.46-.06,2.61-.07,3.48.66,3.35,3.31-.21,4.48-.06,9-.06,13.46Z" transform="translate(0 0)"/><path class="aj" d="M313.83,338.78c-10.14,0-20.29,0-30.43,0-2.35,0-4.06.1-4-3.22,0-3.08,1.29-3.47,3.9-3.43,9.47.13,19-.11,28.43.14,3.34.08,5.07-1,6.43-4a242.68,242.68,0,0,0,11.17-28.65c1.48-4.84,4-2.16,6.4-1.63,3.09.68,3.41,2.12,2.14,4.88-3.74,8.12-7,16.49-10.95,24.49-2.37,4.74-.63,5.08,3.47,4.88,5-.25,10,0,15-.11,2.56-.07,3.48.74,3.47,3.4s-1.07,3.28-3.53,3.26C334.78,338.71,324.31,338.77,313.83,338.78Z" transform="translate(0 0)"/><path class="ah" d="M642,293.33c0-4.49.15-9-.06-13.46-.13-2.7.88-3.4,3.42-3.34,6,.15,12,.17,17.95,0,2.51-.07,3.05.87,3,3.17-.11,9-.13,18,0,26.92,0,2.69-.87,3.37-3.42,3.31-6-.17-12-.16-18,0-2.47.07-3.12-.82-3-3.15C642.11,302.3,642,297.81,642,293.33Z" transform="translate(0 0)"/><path class="ah" d="M314.51,293c-9.64,0-19.28-.08-28.92.06-2.66,0-3.73-.5-3.74-3.48s.81-4,3.91-3.85c7.13.24,14.29-.11,21.43.14,4,.15,4.81-1.08,3.07-4.5-.29-.57-.11-1.39-.44-1.92-3.13-5,0-5.75,4-6.36,2.45-.37,3,.7,3.68,2.72,3.4,10,3.48,10,14.32,10,3.66,0,7.32.12,11,0,2.68-.12,4.21.17,4.25,3.6s-1.39,3.7-4.14,3.67c-9.47-.13-18.94-.05-28.42-.05Z" transform="translate(0 0)"/><path class="aj" d="M308,323.44c-1.08,2.84-4,2.57-5.93,3.78-2.17,1.36-2.06-.84-2.45-1.8-3.08-7.68-6.06-15.41-9.11-23.12-.58-1.47-1.27-2.95,1.06-3.41,1.93-.38,4.44-3.27,5.69-.68C301.2,306.4,304.44,314.92,308,323.44Z" transform="translate(0 0)"/><path class="ak" d="M382.31,318.21c-1.77,7.06-3.57,14.12-5.28,21.2-.36,1.5-.86,2.8-2.56,1.8s-5.05-.11-4.35-3.48c1.51-7.29,3.31-14.51,5-21.75.51-2.21,2.15-1.84,3.51-1.21S383.19,314.81,382.31,318.21Z" transform="translate(0 0)"/><path class="al" d="M598.76,287.42c-3.4,3-7.52.61-11.18,1.5-2.29.56-6.58-2.13-6.41,2.62.14,4.16,4.14,1.59,6.34,2.24,2,.61,4.65-1.15,6.28,1.43-3.61-1-7.29-.45-10.92-.4-2.65,0-3-1.19-2.92-3.34s.11-3.63,2.84-3.4c2,.16,3.94,0,6.69,0-2.24-3.6-4.13-6.64-6-9.68-.65-1-2.11-2.34,0-3.06,1.7-.6,3.38-3.52,5.5-.6,1,1.35,1.81,2.8,2.89,4.06,3.09,3.6,4.39,6.73-3.55,8.3C592.92,288.43,595.83,288.45,598.76,287.42Z" transform="translate(0 0)"/><path class="am" d="M523.16,283.32a40.32,40.32,0,0,1-3.62,4.27c-1.53,1.39-2.26-.53-3.21-1.18-2.17-1.5-4.31-3.06-6.37-4.7-.86-.68-2.93-1.17-1.24-2.86,1.26-1.25,1.93-4.1,4.52-2.67,3,1.67,5.82,3.75,8.67,5.7A7.36,7.36,0,0,1,523.16,283.32Z" transform="translate(0 0)"/><path class="an" d="M379.39,287.48a78,78,0,0,1-5.7-5.5c-1.2-1.4-4.62-2.14-1.61-5.3,2.53-2.65,4.36-2.93,6.55,0a5.22,5.22,0,0,0,.77.62C384.93,282.2,384.93,282.2,379.39,287.48Z" transform="translate(0 0)"/><path class="an" d="M373.21,293.55c3.33,2.18,6.61,4.53,8.7,7.83,1,1.58-1.67,2.84-2.61,4.28-.81,1.23-1.73,1.49-2.68.19-2.29-3.13-6.73-4.49-7.61-8.5C368.78,296.29,371.17,294.31,373.21,293.55Z" transform="translate(0 0)"/><path class="ao" d="M186,370.42c.19,1.53-.3,2.51-2.09,2.45-1.33-.05-2.7.12-2.8-1.85-.09-1.75.4-2.91,2.39-2.88C185,368.17,186.15,368.57,186,370.42Z" transform="translate(0 0)"/><path class="ap" d="M86.8,371c-.11,1.87-1.41,1.9-2.79,1.81-1.79-.13-2-1.34-1.89-2.76.14-1.8,1.42-2,2.8-1.87C86.64,368.31,86.94,369.52,86.8,371Z" transform="translate(0 0)"/><path class="aq" d="M578.22,370.37c0,1.48-.36,2.56-2.15,2.51s-2.23-1-2.2-2.53a2,2,0,0,1,2-2.28C577.58,367.89,578.23,368.8,578.22,370.37Z" transform="translate(0 0)"/><path class="ar" d="M260.57,368.13c1.38.23,2.45.67,2.41,2.4s-.74,2.31-2.35,2.33c-1.9,0-2-1.21-1.95-2.6C258.74,369.06,259,368,260.57,368.13Z" transform="translate(0 0)"/><path class="af" d="M452.78,404l1,.83Z" transform="translate(0 0)"/><path class="as" d="M522.42,391.75c-9.25,0-9.23,0-5.52-8.59,1.11-2.56,1.93-5.26,3.16-7.76s2.77-2.95,4.11,0c1.86,4.05,3.58,8.16,5.5,12.17,1.51,3.14,1,4.61-2.79,4.23A41.44,41.44,0,0,0,522.42,391.75Z" transform="translate(0 0)"/><path class="r" d="M139.6,400.82c-1.49,0-3,0-4.46,0-2.46.09-4.41-.57-4.34-3.43.06-2.64,1.89-3.71,4.32-3.76,3.14-.06,6.28.1,9.42,0,2.9-.12,2.57,1.81,2.59,3.62s.35,3.8-2.57,3.59C142.92,400.71,141.26,400.81,139.6,400.82Z" transform="translate(0 0)"/><path class="r" d="M381.33,400.76c-1.65,0-3.29-.05-4.94,0-2.22.08-3.46-1-3.55-3.14a3.41,3.41,0,0,1,3.12-3.82,81.12,81.12,0,0,1,11.35-.05c2.92.18,1.58,2.7,1.79,4.26s-.19,2.94-2.33,2.82c-1.81-.09-3.63,0-5.44,0Z" transform="translate(0 0)"/><path class="at" d="M599.4,400.84c-1.82,0-3.63.07-5.45,0-2.25-.1-3.13-1.58-3.23-3.62a3,3,0,0,1,2.9-3.37,102.87,102.87,0,0,1,11.38-.09c2.84.14,2.48,2.5,2.55,4.48.09,2.36-1.36,2.68-3.2,2.65-1.65,0-3.3,0-5,0Z" transform="translate(0 0)"/><path class="au" d="M697.89,390c-2.74-1.3-7.27,1.69-7.54-2.55-.19-3,3.55-4.58,7-4.77,3.81-.2,6.8,1.92,6.66,5.06C703.85,391.68,699.64,388.39,697.89,390Z" transform="translate(0 0)"/><path class="av" d="M283.42,382.71c1.68.13,3.09-.27,4.16.79,1.51,1.47,3.9,2.81,3.27,5.14s-3.09.83-4.73,1a17,17,0,0,1-4.44.12c-1.76-.26-4.6,1.25-5.06-1.3s1.89-4.4,4.28-5.4A8.75,8.75,0,0,1,283.42,382.71Z" transform="translate(0 0)"/><path class="y" d="M246.75,393c-2.06,2,3.67,7.92-3.63,8-10.42.16-13-1.61-13.09-8.41s2.61-8.92,10.67-8.91C247.9,383.72,246.59,383.08,246.75,393Z" transform="translate(0 0)"/><path class="aw" d="M458.67,389.7a5.21,5.21,0,0,1-1.48,0c-1.67-.54-4.44,1.39-4.93-1.51-.41-2.4,2-3.59,3.76-4.73a6.46,6.46,0,0,1,5.74-.45c2.29.85,4.89,2.54,4.45,5.21-.41,2.45-3.26,1.26-5.08,1.48A18.35,18.35,0,0,1,458.67,389.7Z" transform="translate(0 0)"/><path class="ax" d="M58.7,311.18c-9.52,0-9.52,0-9.53-9.68,0-7.62,0-7.62,7.63-7.62,12,0,11.72,0,12.1,11.73.16,4.65-1.15,6.34-5.71,5.61A28,28,0,0,0,58.7,311.18Z" transform="translate(0 0)"/><path class="ay" d="M31.41,311.3c-9.59,0-9.59,0-9.59-7,0-10.47,0-10.47,11.08-10.47,8.16,0,8.16,0,8.16,8C41.07,311.31,41.07,311.31,31.41,311.3Z" transform="translate(0 0)"/><path class="az" d="M159.3,307.82c0,7.32-.08,14.64,0,22,0,2.34-.6,3.16-3.06,3.15q-21.22-.15-42.46,0c-2.73,0-3.36-1-3.35-3.5q.13-22,0-43.93c0-2.53.71-3.51,3.4-3.49,14,.12,28,.14,42,0,3.07,0,3.53,1.19,3.48,3.82-.15,7.32-.06,14.64-.06,22Z" transform="translate(0 0)"/><path class="ba" d="M239.11,300.61v-2.47c0-5.23,2.84-7.18,8-5.6,1.44.44,1.63,1.36,1.61,2.61a79.85,79.85,0,0,0,.06,8.89c.4,3.87-.9,5-4.88,5s-5.43-1.11-4.82-5A23.48,23.48,0,0,0,239.11,300.61Z" transform="translate(0 0)"/><path class="az" d="M222.91,300.43v-3c0-4.38,4.72-7.5,7.9-4.55s.76,8,1.18,12.12c.13,1.22.9,3-1.15,3.81-4.41,1.77-7.92-.38-7.93-4.95Z" transform="translate(0 0)"/><path class="bb" d="M558.86,320.33c-.75-4.35-.31-6.68,4.69-6.53,4.06.12,5,1.39,4.78,5.1-.29,5-1.54,6.21-7.43,6C556.55,324.76,559.79,321.29,558.86,320.33Z" transform="translate(0 0)"/><path class="bc" d="M568.12,303.66c.77,3.7-.24,5.2-4.49,5.23s-5-1.52-5.08-5.35c-.1-4,1.18-4.88,5-5C567.68,298.51,569,299.86,568.12,303.66Z" transform="translate(0 0)"/><path class="ax" d="M568.05,288.5c1.29,4.83-1.34,5-5,5.25-5.43.43-3.95-3.08-4.39-6-.64-4.16,1.48-4.3,4.76-4.42C567.6,283.22,569.25,284.52,568.05,288.5Z" transform="translate(0 0)"/><path class="bd" d="M693.45,328c-.16,3,1.35,6.9-4.49,6.29-3.28-.35-6.11-.24-5-4.65.75-2.9-2.92-8.26,4.35-7.78C693.41,322.21,693.43,322,693.45,328Z" transform="translate(0 0)"/><path class="be" d="M661.63,328.69c.82,3.69.08,5.66-5.07,5.71-5.56.05-4.59-3-4.57-6.21,0-3.38-1-6.6,4.91-6.5S661.81,324.87,661.63,328.69Z" transform="translate(0 0)"/><path class="bf" d="M677.22,328.36c.19,5.55-2,7.14-7.66,5.78-1.25-.3-1.61-.81-1.57-2,.06-1.49,0-3,0-4.49,0-5.63,1.93-7.11,7.45-5.69C677,322.38,677,322.38,677.22,328.36Z" transform="translate(0 0)"/><path class="bg" d="M688.23,287.09c-1.66,0-3.33-.09-5,0-2.29.15-3.28-.63-3.26-3.09,0-2.3.62-3.34,3.08-3.24,3.48.15,7,.14,10.45,0,2.29-.08,3.29.59,3.24,3.07,0,2.25-.56,3.44-3.06,3.25C691.89,287,690.05,287.09,688.23,287.09Z" transform="translate(0 0)"/><path class="bh" d="M688.25,297.53c-1.82,0-3.64-.08-5.45,0s-3.09-.3-3-2.66c.1-2.19.62-3.39,3.11-3.29,3.63.14,7.27.08,10.9,0,2,0,3,.5,3,2.8s-.63,3.38-3.11,3.13C691.9,297.38,690.07,297.53,688.25,297.53Z" transform="translate(0 0)"/><path class="bi" d="M654.65,295.59c3.33-.45,5.46-.35,5.46,4.31,0,4.82-2.24,4.73-5.73,4.78-3.79.05-5.89-.18-5.89-5.11C648.48,293.9,652,295.9,654.65,295.59Z" transform="translate(0 0)"/><path class="bi" d="M655.68,281.44c2.16-.32,4.55-.31,4.48,4.6-.07,4.39-1.84,4.79-5.33,4.61s-6.59.84-6.48-5C648.46,280.14,651.64,281.72,655.68,281.44Z" transform="translate(0 0)"/><path class="ag" d="M148.93,320.68c-2.21-2.5-3.58-4.09-5-5.62-1-1.05-2.52-1.77-.52-3.44,1.49-1.25,3-2,4-.14,1.26,2.24,7.2,2.65,2.81,7.43-1.6,1.74,1,1.79,2.12,1.74,2.15-.1,3.34.27,3.33,2.93,0,3-1.58,3.08-3.81,3.07-11.32-.06-22.64-.08-33.95,0-2.31,0-3.23-.57-3.28-3.05s1-3.12,3.22-3,4.32.06,6.49,0c7.79-.11,6.2,1,6.76-6.51.38-5-1.29-6.6-6-5.83a30.55,30.55,0,0,1-4.49,0c-2,0-3.93.43-4-2.81,0-3,1.48-3.16,3.7-3.05,2,.1,4-.1,6,0,3,.22,4.81,0,4.86-4.08.05-4.22-2.07-4-4.85-3.84-2.5.11-5-.08-7.49.05s-4,0-4-3.26c0-3,1.51-3.05,3.71-3q16.23.08,32.46,0c2.2,0,3.8,0,3.77,3.07,0,2.79-1.15,3.37-3.59,3.24-3-.15-6,.17-9-.08-3.17-.27-4.21.66-4.24,4,0,3.63,1.46,4.19,4.45,3.95,2.32-.19,4.66-.07,7-.05,1.92,0,4-.57,4,2.74s-2.07,3.15-4.27,3.1c-1,0-2,0-3,0-8.44.09-9.56,1.57-8.1,10.16.3,1.74,1.06,2.19,2.61,2.16C143,320.64,145.3,320.68,148.93,320.68Z" transform="translate(0 0)"/></svg>