<svg xmlns="http://www.w3.org/2000/svg" viewBox="0 0 768 400"><defs><style>.a{fill:#fefefe;}.b{fill:#0c9243;}.c{fill:#dc5c20;}.d{fill:#0c9244;}.e{fill:#d93833;}.f{fill:#1f90aa;}.g{fill:#d93831;}.h{fill:#231815;}.i{fill:#010101;}.j{fill:#020202;}.k{fill:#030303;}.l{fill:#040404;}.m{fill:#c9c9c9;}.n{fill:#e6e6e6;}.o{fill:#fbfbfb;}.p{fill:#fcfcfc;}.q{fill:#f6f6f6;}.r{fill:#c5352d;}.s{fill:#0d8940;}.t{fill:#1f8aa2;}.u{fill:#d2581f;}.v{fill:#fdfdfd;}.w{fill:#f2f2f2;}.x{fill:#eaeaea;}.y{fill:#e7e7e7;}.z{fill:#f7f7f7;}.aa{fill:#f4f4f4;}</style></defs><path class="a" d="M.11,288V125c2.71.36,2.57,2.77,3,4.52a77.44,77.44,0,0,0,18.19,35.66c13,14.41,29.11,23,48.44,25.43,23.15,2.89,43.51-3.58,61.19-18.51,12.62-10.66,20.58-24.32,24.46-40.32a86.38,86.38,0,0,0,2.39-21.29c-.16-18.15,0-36.31-.09-54.47-.06-8.64-3.47-15.54-11.6-19.41-13.48-6.41-28.41,2.94-28.57,18.05-.19,18.66,0,37.32-.06,56-.05,20.86-11.05,34.88-31.05,39.68-16.22,3.9-35.51-6.62-41.66-22.69a49.26,49.26,0,0,1-3-18.1c0-13.4-9-21.85-22.24-21.1-7.84.44-12.69,5.12-16.25,11.62-.79,1.47-.51,3.85-3.07,4v-45c2.52,0,2.7,2.29,3.24,3.79C6.7,72,19,76.06,25.56,74.34c9.89-2.6,16.18-10.19,16.24-20.13A20,20,0,0,0,26.45,35C16.9,32.72,7.69,37.15,3.1,46.11c-.73,1.44-.39,3.87-3,4,0-15.32.13-30.65-.11-46C0,.66.68,0,4.11,0q110,.2,219.94.1Q493.72.1,763.41,0c3.75,0,4.59.85,4.59,4.59q-.16,195.42,0,390.82c0,3.75-.84,4.59-4.59,4.59Q384,399.85,4.61,400c-3.75,0-4.68-.83-4.61-4.59.26-13.83.11-27.65.11-41.48C2.76,354,3,356.3,3.85,358c4,8.39,10.8,12.46,20,12.51,19.32.09,38.68.74,58-.13,43-1.92,74.82-36.46,75-76.66.11-29.84-13-52.06-37.45-68.08A68.84,68.84,0,0,0,82.9,214.54c-19.81-.51-39.64-.29-59.47-.08-12.9.14-21.76,9.58-20.85,21.7.8,10.65,9.44,18.28,21.24,18.37,18.16.15,36.33-.17,54.48.11,15.91.24,27.84,7.61,34.77,22,12,24.92-6.47,53.2-35.06,53.68q-26.48.44-53,0c-9.74-.17-16.61,3.75-21.28,12.1-.82,1.48-1.26,3.6-3.65,3.58V297c2.52,0,2.7,2.29,3.25,3.79C6.7,309.9,19,314,25.56,312.23c9.67-2.54,16.14-10.17,16.22-19.63a20.51,20.51,0,0,0-15.85-20C17,270.48,7.6,275.21,3.11,284,2.36,285.44,2.71,287.87.11,288Z" transform="translate(0)"/><path class="b" d="M.11,345.93c1.81-1.25,2-3.46,3-5.2C7.46,332.91,14,328.87,23,328.87c18.48,0,37,.11,55.45-.11,24.22-.3,41-21.24,35.92-44.61-3.47-16-18-27.84-35-28-19-.19-38,0-56.95-.18-9.46-.07-17.24-6-20.31-15a21.35,21.35,0,0,1,7.14-23.33A20.81,20.81,0,0,1,22.58,213c19.81,0,39.64-.27,59.45.1,38.15.73,70.45,30.43,75.88,69.37C163,319,139.7,356.17,104.48,367.61a82.88,82.88,0,0,1-26,4.21c-17.81-.05-35.63,0-53.45,0-12.51,0-19-4.5-23.51-16.09-.29-.75-.36-1.65-1.41-1.78Z" transform="translate(0)"/><path class="c" d="M.11,104.05C5.05,91.37,11.55,86.39,22.7,86.75a21.17,21.17,0,0,1,20.36,20.11c.26,5.3-.13,10.63,1.37,15.87,5,17.59,21.87,29.1,39.44,26.78A36.54,36.54,0,0,0,116,113.68c.23-19.82,0-39.64.17-59.46.1-10.65,7.46-18.9,18-20.84,9.52-1.74,19.43,3.94,23.31,13.32A23.53,23.53,0,0,1,159,56c0,19,.07,38,0,57-.2,39.83-29.26,74-67.1,78.88C49.71,197.34,13,173,2.36,132.45,1.71,130,2,127.15.11,125Z" transform="translate(0)"/><path class="d" d="M.11,50.07C3.45,40.59,9.4,34,20,33.07a21.48,21.48,0,1,1-18.12,30c-.6-1.33-.39-3-1.72-4Z" transform="translate(0)"/><path class="e" d="M.11,288c3.66-10,9.89-16.82,21.32-17a21.42,21.42,0,0,1,21.45,17.86,21.81,21.81,0,0,1-14.44,24,21.6,21.6,0,0,1-26.12-11C1.53,300.24.84,298.58.11,297Z" transform="translate(0)"/><path class="f" d="M288.48,192.2c-9.49,0-19,.17-28.49,0-39.65-.84-72.1-31.11-76.58-71.28-4.28-38.31,21.36-75.07,59-84.73a88.41,88.41,0,0,1,26.75-2.38c11.72.62,20.06,9.65,20,21.34S280.77,75.53,269,76.46c-5.45.43-10.94,0-16.35,1.55-17.05,5-28.75,22-26.45,38.75,2.57,18.7,17,32.16,35.42,32.44,19.49.29,39,.07,58.48.22,11,.09,19,5.93,21.8,15.65,3.82,13.18-5.73,26.69-19.47,27.06C311.15,192.44,299.81,192.2,288.48,192.2Z" transform="translate(0)"/><path class="g" d="M204.16,371.78c-16,.08-26.25-16.46-19-31.2,13-26.45,26.21-52.76,39.35-79.12,5.56-11.18,11.08-22.37,16.75-33.49,3.26-6.39,7.55-11.84,14.89-13.87,9-2.49,16.84.42,22.41,8.87,6.87,10.44,11.84,22,17.74,33,6.21,11.59,12.16,23.31,18.18,35,6.16,12,2.56,24.71-8.52,30.38-11.28,5.78-23.77,1-29.84-11.38-2.7-5.53-5.42-11.06-8-16.63-1.34-2.84-2.88-5.32-6.5-5.3s-5.09,2.66-6.42,5.44q-15.75,32.87-31.55,65.72C219.67,367.23,212.54,371.74,204.16,371.78Z" transform="translate(0)"/><path d="M428.45,295.69c8.38,1.59,8.42,1.61,11.7-5a70.17,70.17,0,0,0,3.79-8.68c.82-2.48,2-2.8,4.42-2.26,8.32,1.86,8.34,1.76,4.21,9.23l-4.13,7.46a32.62,32.62,0,0,0,5.13,0c4.7-.85,5.46,1.4,5.37,5.55-.07,3.56-.7,5.32-4.65,4.79-2.29-.31-4.71.25-7-.12-5.25-.87-6.47,1.34-6.15,6.26.43,6.81.1,6.83,7,6.83a54.58,54.58,0,0,0,8-.06c4.55-.67,5.48,1.17,5.43,5.44,0,3.93-1.34,4.78-4.92,4.58-5.12-.29-10.27-.08-16-.08,3.63,10.56,9.29,18.65,18.76,23.6,2.94,1.54,3,2.44.77,4.85-6,6.53-5.83,6.62-12.73.86-4.63-3.86-8-8.73-11.38-14.35a59.55,59.55,0,0,1-15.25,18c-2.92,2.3-4.88,2.53-7.2-.58-1.12-1.51-2.86-2.56-4.43-3.91-1.65,2.28,1.13,6.32-4,6.3-4.56,0-6.35-.75-6.12-5.87.47-10.21.14-10.23-9.82-8.41-1.81.33-3.62.6-5.42.9-6.91,1.11-6.83,1.09-8.32-5.72-.45-2.08-.74-3.56,2.06-3.68,2.15-.09,2.54-1.46,2.53-3.41-.07-14.82,0-29.64-.05-44.47,0-.93.36-2.49-.74-2.6-5.83-.6-2.45-5-3.21-7.61-.55-1.91.73-2.54,2.58-2.53,10.16,0,20.32,0,30.48,0,1.31,0,3.09-.19,2.76,1.81-.43,2.69,1.87,6.34-1.57,7.89-2,.92-1.83,2-1.83,3.38,0,13,.07,26-.08,39,0,3.15,1.09,3.78,3.81,3.07,1.71-.44,3.24,0,2.82,2.07-.48,2.5,2.6,5.79-1.19,7.47-6.08,2.7-6.31,2.91-4.69,11.21,10-5.71,16.42-13.85,19.4-24.82.65-2.41-.64-2.48-2.31-2.48-3.5,0-7-.11-10.49,0-4.54.19-2.86-3.17-2.92-5.23s-1.41-5,2.83-4.72c3.31.22,6.67-.12,10,.09,3.06.2,4.39-.47,4.35-4-.1-9.07.1-9.07-9.17-9.08-6.79,0-6.66,0-6.53-6.8.05-2.55.72-3.7,3.4-3.47,2,.17,3.94,0,6.28,0-1.25-4.58-3.86-7.82-6.31-11.08-1.41-1.87-1.11-2.5.9-3.55,6.42-3.33,6.38-3.43,10.68,2.47.59.8,1.19,1.6,1.74,2.43C434.6,292.12,434.6,292.12,428.45,295.69Z" transform="translate(0)"/><path d="M676.76,176c14.83.17,11.94,2.88,14.67-10.66.13-.65.22-1.31.32-2,1.12-7.61,1.08-7.33,8.68-6.32,4.28.57,5.16,2.23,4.1,6.13-.87,3.19-.85,6.63-1.77,9.8-.87,3,.29,3.33,2.78,3.31,10-.08,20,.23,30-.14,5.12-.19,4,2.93,4.12,5.76s.44,5.35-4.12,5.19c-10.81-.36-21.65-.13-32.47-.11-3,0-6.21,3.7-5.67,6.4.35,1.77,1.79,1.15,2.8,1.15,7.83,0,15.68.33,23.48-.18,3.57-.23,6,1.49,8.78,2.8,2.26,1.08.64,3,.13,4.34a63.82,63.82,0,0,1-15.82,23.75c8.12,4.62,16.58,6.7,25.42,8.57-2,3.05-3.76,5.62-5.32,8.31-1.15,2-2.62,1.48-4.29,1.07-7.63-1.87-15.08-4.35-21.76-8.49-2.92-1.8-4.84-1.55-7.61.09-5.88,3.49-12.34,5.73-18.83,7.89-3.14,1.05-4.89,1-6.53-2.46-2.9-6.13-3.23-6.09,3.29-8A98.55,98.55,0,0,0,695,226.79c2.14-1,2.83-2,.81-3.93a54.07,54.07,0,0,1-7.8-10.16,80.72,80.72,0,0,1-21.86,21.41c-3.07,2-4.78,2.2-7.18-1.05-4.15-5.62-4.43-5.44,1.44-9.55,12.77-9,20.61-21.35,25.64-36.42-6.4-.08-12.31-.36-18.24.26-1.28.13-3.09,2.09-3.83-.09-1-2.84-4.29-6.16-2.12-8.62,4.61-5.26,6.6-11.49,8.59-17.79,1-3.26,3-1.86,4.69-1.57,8.22,1.37,8.22,1.42,5,9.09C679.1,170.78,678,173.17,676.76,176Z" transform="translate(0)"/><path d="M584.94,51.77c13.94,1,14.06,1,14-12.19,0-3.38.71-4.61,4.35-4.51,7.49.22,7.49,0,7.49,7.25,0,9.71,0,9.71,9.85,9.71,5.83,0,11.67.23,17.48-.09,3.47-.19,4.36,1.11,3.95,4.2a13.59,13.59,0,0,0,0,3.49c.33,2.65-.78,3.4-3.38,3.35-8.16-.16-16.32,0-24.48-.11-2.49,0-3.39.53-3.48,3.26-.47,13.13-.56,13.13,12.53,13.13,4,0,8,.11,12,0,2.48-.09,3.47.58,3.54,3.32.19,7.58.34,7.58-7.12,7.58-5.83,0-11.66.11-17.48-.06-2.51-.07-3.6.49-3.44,3.26.29,5-1.56,11.27.85,14.55s9,.82,13.78,1q9,.28,18,0c2.89-.09,4,.9,3.59,3.7a8.66,8.66,0,0,0,0,2.49c.6,3.82-.74,5.06-4.8,5-20.14-.23-40.29-.11-60.44-.11-5,0-10-.14-15,.06-2.8.11-3.69-.74-3.71-3.62,0-7.48-.2-7.48,7.31-7.48,8.16,0,16.32-.12,24.48.06,3.08.06,4.59-.55,4.31-4.06a84.58,84.58,0,0,1,0-11.48c.15-2.69-.83-3.42-3.41-3.35-6,.17-12-.1-18,.12-3,.11-4.08-.53-3.94-3.78.37-8.72-.88-7,7.14-7.13,5-.09,10-.11,15,0,2.3.06,3.08-.62,3.22-3.06.73-13.32.81-13.12-12.45-13.41-4.8-.11-8.47.59-10,5.66a5.55,5.55,0,0,1-1,1.73C574.08,72.13,573,76,571,75.61c-3.17-.69-6-3.31-8.81-5.29-1.25-.87-.08-1.69.51-2.43a77.57,77.57,0,0,0,13.8-28c.74-2.67,1.9-3.58,4.54-2.78a30.19,30.19,0,0,0,4.85,1.13c2.79.36,3.11,1.72,2.18,4.11C587,45.27,586.09,48.3,584.94,51.77Z" transform="translate(0)"/><path class="h" d="M211.46,202.84c0,7.5-6.11,13.56-14,14.11-3.92.28-8.91-1.77-11.47.94-2.3,2.43-.52,7.3-.73,11.09a14.93,14.93,0,0,1-15,14.3c-7.35,0-13.67-6.28-14.08-14.09a59.86,59.86,0,0,1,0-8.47c.31-3.24-1.07-4.05-4-3.82a70.8,70.8,0,0,1-8,0,14.75,14.75,0,0,1-14.38-14.87c0-7.34,6.19-13.73,14-14.19,3.16-.18,6.33-.14,9.48,0,2.18.07,2.95-.82,2.88-2.93-.1-3-.1-6,0-9a14.58,14.58,0,0,1,14.89-14.31c7.44,0,13.71,6.07,14.19,13.93a33.92,33.92,0,0,1,0,7c-.7,4.64,1.35,5.87,5.57,5.33a37.89,37.89,0,0,1,6.48,0A14.56,14.56,0,0,1,211.46,202.84Z" transform="translate(0)"/><path d="M427,218c-.69,5.43-1.14,10.91-2.13,16.3-1.19,6.5-9.71,10.91-15.59,8.46-1.45-.61-1.17-1.8-1.44-2.86-.55-2.08-1.14-4.14-1.71-6.2.28-.23.5-.55.73-.55,8.52-.3,8.61-.29,9.34-9,.56-6.63.84-13.28,1.22-19.92.1-1.61.67-3.43-2.12-3.41-2.17,0-3.69.08-4,2.95-1,10.11-2.83,20.08-7.28,29.37a39.27,39.27,0,0,1-6.39,9.93c-2.51-2.3-6.1-4.1-6.75-6.66-.53-2,2.59-5,4-7.56,4.46-8.38,5.29-17.74,7-26.84,1.34-6.38.27-12.84.61-19.25.09-1.74-.84-2.31-2.46-2.28-6.26.12-2.93-4.65-3.41-7.21-.69-3.64,2.44-2.62,4.37-2.72,2.15-.12,4.32.08,6.48-.08,1.46-.11,2.65-.63,1.27-2.38-.47-.67-1-1.3-1.41-2-3.77-6.5-2.7-8.47,4.95-9.71a2.5,2.5,0,0,1,2.82,1.4c1,1.51,1.91,3.12,3,4.57,2.55,3.28,3,5.89-2.25,6.8,4.06,3.35,10.78-2.72,13.65,4.53a47.26,47.26,0,0,0,3.6-13.18c.4-2.93,1.33-3.94,4.47-3.31,6.39,1.28,6.58,1.13,5.57,7.77-.42,2.7.85,2.68,2.7,2.66,4.33,0,8.66.11,13-.05,2.44-.09,3,.8,3.09,3.15.22,7.32.33,7.31-6.86,7.31h-10c-6.45,0-6.45,0-7.79,7,5.37,0,10.69,0,16,0a10.21,10.21,0,0,1,3.42.19c5.26,2,5.78,4.05,2.11,8.37q-3.08,3.62-6.4,7a5.13,5.13,0,0,0-1.1,5.57c.62,1.66,2.64.76,4,.84,3.37.2,7.36-1.4,6.9,5-.3,4.19-1.33,5.74-5.36,5-4.9-.92-6.46,1.11-5.88,5.9a71.86,71.86,0,0,1,0,10.48c-.17,6.2-2,8.33-8,9.55a30.83,30.83,0,0,1-4,.5c-5.4.4-9-3.21-8.33-8.49.29-2.48,2.28-1.38,3.49-1.38,7.5,0,6.69.58,6.71-6.67,0-9.73,0-9.73-9.8-9.89-.67,0-1.33-.08-2-.13-2.18-2.91-1-6.15-.91-9.27,1.39-2.27,3.75-2,5.82-1.89,3.61.16,5.81-1,5.81-4.91,0-1.53,1.39-2.59,1.59-4.12-1.66-.64-3.35-.19-5-.4-1.17-.15-2.9-.08-3.21-1-1.69-5.1-7.24-6.63-9.73-10.95-1.39-2.42-7-2.78-8.69-.65a4.53,4.53,0,0,0-.76,4.27c.52,1.56,2,1.56,3.32,1.66,1.5.12,3,0,4.5.07,6.82.12,7.65,1.11,6.88,8.12A126.51,126.51,0,0,0,428,212.2C428,214.18,428.22,216.21,427,218Z" transform="translate(0)"/><path d="M604.92,161.94c11.82,0,23.66.25,35.47-.12,4.82-.16,3.91,2.62,3.91,5.32s.91,5.71-3.92,5.37c-3.9-.28-9-1.85-11.54.74s-.71,7.6-.75,11.55c-.12,10.49,0,10.49,10.67,10.49h2c5.84,0,8.41,3.9,6.31,9.38-.6,1.59-1.75,1.27-2.82,1.28a103.26,103.26,0,0,1-11,0c-4-.38-5.47.75-5.31,5.07.35,9.47,0,19,.18,28.46.08,3.39-.74,5-4.36,4.46a7.71,7.71,0,0,0-2.49,0c-4.39.77-5.19-1.34-5.08-5.29.27-9.48,0-19,.15-28.47.06-3.1-.54-4.48-4-4.24a106.91,106.91,0,0,1-14,0c-3.19-.18-4.12.94-4.63,4.06-2.09,12.8-8,23.5-18.46,31.48-2.55,1.94-4.23,2.68-6.88-.3-4.93-5.53-5.21-5.33.4-10a40.64,40.64,0,0,0,12.85-19.81c1.16-3.72,1.08-6-3.89-5.44-4,.41-8,0-12,.13-2.46.11-3-.79-3.1-3.13-.26-7.61-.36-7.56,7.16-7.62,4.47,0,10.48,1.47,13-.81,3-2.66.84-8.78.92-13.38.15-8.69,0-8.69-8.49-8.69a25.4,25.4,0,0,0-4,0c-4.55.73-5.9-1-5.73-5.63.14-3.78.91-5.06,4.94-5C581.93,162.13,593.43,161.94,604.92,161.94Z" transform="translate(0)"/><path d="M418.34,83.75a64.81,64.81,0,0,1-30.09,36.18c-3.07,1.76-5.1,2-7.06-1.47-1.2-2.11-3.21-3.77-5.08-5.88,6.75-3.53,13.11-7.29,18.38-12.66a56.94,56.94,0,0,0,13.94-24.44c.86-2.94.35-3.74-2.74-3.68-8.16.18-16.33-.1-24.48.14-3.38.1-4.18-1-4.12-4.24.13-7.57,0-7.57,7.71-7.57,7.49,0,15-.18,22.48.08,3.27.11,4.45-1,4.47-4.13,0-5.66.42-11.32.33-17,0-2.94.62-4,3.85-4,8.51,0,8.55-.14,8.25,8.31-.16,4.49-.22,9-.78,13.45-.36,2.87.62,3.36,3.15,3.33,9.66-.11,19.33.11,29-.12,3.53-.09,4.9,1,4.39,4.47a12.37,12.37,0,0,0,0,3.49c.42,3.1-.85,4-3.92,3.92-7.82-.21-15.66-.07-23.48-.07h-5.37C433,88.42,442,101.58,457.42,109.33c4,2,3.57,3.09,1,6-5.93,6.79-5.74,6.9-13.24,1.88-11-7.35-18.52-17.52-24.15-29.29C420.42,86.62,420.26,85,418.34,83.75Z" transform="translate(0)"/><path d="M503.39,232.07a106.83,106.83,0,0,0,14.25-9c2.34-1.83,3.43-3.33,2.37-6.6-2.26-7-3-14.33-3.73-21.61-.31-3-1.37-3.41-4.06-3.1-5.85.66-7.55-1.37-7.16-7.38.19-3,2.44-2.48,4-2.45,5,.11,6.55-2,5.82-6.9-.71-4.76-.5-9.64-.86-14.45-.18-2.49.41-3.89,3.2-3.48a6.68,6.68,0,0,0,1,0c7.47-.1,7.47-.1,7.58,7.2l.06,3.49c.25,12.55.25,12.54,12.88,10.78,3.79-.53,7.58-1.29,11.39-1.44,5.46-.22,2.54,4.61,3.7,7,1.23,2.53-.89,2.8-2.9,3-6.62.73-13.2,1.81-19.83,2.37-3.17.27-3.9,1.44-3.37,4.38.9,5.06,1.51,10.18,2.38,16.21,5.82-6.29,9-13.14,12.21-20,11.07,6.16,9.86,3.36,4.62,13.86a78.91,78.91,0,0,1-10.61,15.66c-1.15,1.36-2.55,2.63-.91,4.7,1.77,2.23,3.25,4.78,6.46,5,2,.11,2.32-1.67,2.6-3.1.64-3.2,1.12-6.45,1.71-9.94,2.62,1.72,4.87,3.4,7.31,4.75,1.73,1,1.71,2.34,1.38,3.82a92.3,92.3,0,0,1-2.3,9.2c-3.32,9.89-9.68,12.1-18.53,6.45-1.67-1.06-3.59-2.23-4.51-3.85-2.92-5.11-5.6-4.93-10-1.3C513,240.74,512.68,240.38,503.39,232.07Z" transform="translate(0)"/><path d="M489.55,111.44c4.33,0,8.6,0,12.87,0,2.49,0,3.42-1,3.57-3.57.57-9.85.66-9.85-8.89-9.85-7.66,0-15.33-.28-23,.11-4.77.24-3.87-2.66-3.95-5.38s-.51-5.11,3.81-5c9.31.33,18.64,0,28,.15,2.82,0,4.57-.36,4-3.71-.3-1.8.78-2.63,2.33-3.29a16.65,16.65,0,0,0,6.06-4.26h-8.45c-4.66,0-9.32,0-14,0-4.25,0-6.9-4.87-4.8-8.73.75-1.38,2-.88,3.08-.89q20-.18,39.94-.27c3.38,0,5.14,2.82,7.33,4.67,1.23,1-.61,1.92-1.39,2.58a92.14,92.14,0,0,1-15.3,10.27c-1.24.67-3,.8-3.34,2.68.86,1.57,2.36.86,3.55.86,9.33.07,18.66.35,28-.09,4.61-.22,4.45,2,4.56,5.25.12,3.65-.56,5.29-4.81,5.12-9-.37-18,.09-27-.21-3.89-.13-5,1.17-4.6,4.8a62.49,62.49,0,0,1,0,8c-.19,6.41-2.3,8.9-8.66,10.18-1.47.29-3,.45-4.45.63C493.3,122.85,492.73,122.45,489.55,111.44Z" transform="translate(0)"/><path d="M511.81,361.84c-13,0-26-.23-39,.12-4.42.12-4.11-2-4.28-5.07-.19-3.43.73-4.6,4.35-4.5,7.31.21,6.39,1.16,6.51-6.68.07-4.47-1.44-10.38.82-13,2.64-3.08,8.74-.94,13.33-1,15.66-.14,31.31.05,47-.13,3.47,0,4.71.87,4.42,4.4-.3,3.81.25,7.69-.15,11.48-.45,4.31,1.18,5.68,5.25,5.06,3.38-.51,5.39.07,5.21,4.52-.15,3.87-1,5-5,4.9C537.47,361.67,524.64,361.84,511.81,361.84Z" transform="translate(0)"/><path d="M528,320.8c2.57,0,4.72-.06,6.87,0s3.3-.61,3.36-3.11c0-2.79-1.5-2.86-3.49-2.76a18.66,18.66,0,0,1-3,0c-6.91-.75-13.18-.45-14.81,8.29a6.36,6.36,0,0,1-1.29,2.11c-4.29,6.09-8.09,5.88-12-.53-.76-1.25-.05-1.77.66-2.45,6.66-6.42,8-14.66,7.94-23.36,0-5.15.1-10.31,0-15.46-.06-2.38.34-3.63,3.21-3.58,10.14.16,20.29.19,30.43,0,3.31-.06,3.29,1.59,3.28,4-.07,11.81,0,23.61-.07,35.42,0,6.52-1.81,8.55-8.13,9.82C532.25,330.89,532.08,330.79,528,320.8Z" transform="translate(0)"/><path class="i" d="M539.79,49.12c1.16,1.27,2.21.82,3.13.83,9.68.17,9.68.15,9.68,10.08a27.89,27.89,0,0,0,0,4.48c.76,4.72-.89,6.18-5.83,6.17-4.64,0-5.91-1.51-5.19-5.65s-.82-5.37-5-5.31c-16.64.25-33.28.21-49.92,0-3.57,0-5,.63-4.81,4.58.33,5.74-3.28,8-8.94,6.14-1.49-.48-1.57-1.46-1.57-2.67,0-5,.07-10,0-15,0-2.15.78-3,2.92-2.88,3.46.12,6.93,0,10.4,0,.53-2.18-1.33-3.17-1.68-4.66-.46-2-5.18-3.11-1.79-5.82,4.66-3.74,7.8-3.6,10.41.12,2,2.87,5.33,5.16,5,9.31-.13,1.48,1,1,1.65,1,3.45-.07,8.06,1,10-.73,1.77-1.59-1.59-5.55-3.23-8.12-2.54-4,.79-4.1,2.9-4.65s4.22-3.31,6.22-.48c2.54,3.6,5.42,7.16,5.65,11.86,0,.49-1.13,1-1.8,1.62,9,1.34,9,1.34,13.32-6.08s4.4-7.49,12.53-4.85c.78.25,1.54.56,2.79,1Z" transform="translate(0)"/><path class="i" d="M488.54,195.29c2.34-5.6,3.35-10.81,4.59-16,.64-2.64-.31-3.12-2.68-3.07-5.82.12-11.67-.23-17.48.12-4.43.27-3.68-2.44-3.76-5.06-.09-2.83-.29-5.11,3.93-5,8.15.28,16.31,0,24.47-.05,6.35,0,8.15,2,7.3,8.08a131.32,131.32,0,0,1-7,28,6.48,6.48,0,0,0,1.13,7.21,70.65,70.65,0,0,1,4.2,6.18c5.15,8.15,5.33,5.4-1.49,12.18-2.06,2.05-3.2,2.23-4.63-.59-1.62-3.19-3.7-6.15-5.86-9.68-4.16,6.32-8.06,12.06-13,17-2.13,2.12-3.24,2.33-5.26-.27-4.78-6.16-4.94-6,.31-11.76,11.91-13,12-14.38,1.49-28.42-.7-.93-1.39-1.87-2.1-2.79-3.52-4.64-2.62-7.83,2.68-10.26,1.89-.86,2.33.53,3.1,1.48C481.64,186.63,484.83,190.65,488.54,195.29Z" transform="translate(0)"/><path class="c" d="M299.82,112.49a21.32,21.32,0,0,1,21.67-21.36,21.47,21.47,0,0,1-.22,42.93A21.3,21.3,0,0,1,299.82,112.49Z" transform="translate(0)"/><path class="f" d="M319.2,328.92a21.43,21.43,0,0,1-.35,42.86c-11.82,0-21.73-10-21.56-21.66A21.5,21.5,0,0,1,319.2,328.92Z" transform="translate(0)"/><path class="i" d="M505.19,301.22c0,5-.24,10,.08,14.95.23,3.63-1.13,4.54-4.5,4.28a81.8,81.8,0,0,0-11,0c-2.51.15-5.62-1.6-6.5,3.5-.43,2.5-5.31.88-8.14.93-2.38,0-1.43-2.23-1.44-3.49-.07-12.12,0-24.25-.11-36.38,0-3,1.07-3.55,3.74-3.5,8,.14,16,.16,23.93,0,2.92-.07,4.14.56,4,3.79C505,290.58,505.19,295.91,505.19,301.22Z" transform="translate(0)"/><path class="j" d="M395.43,213.08c-.72,2.33-1.31,4.39-2,6.43-2.2,6.58-4.48,13.14-6.64,19.74-.76,2.32-1.58,3.15-4.21,1.8-7.21-3.72-7.21-3.55-4.3-11.09,2.49-6.48,4.93-13,7.09-19.58,1-2.93,2-4,4.6-1.72C391.76,210.2,394.62,210.52,395.43,213.08Z" transform="translate(0)"/><path class="k" d="M408.76,168.1c2,1.52,1.36,2.55-.73,2.83s-4,0-5.93.13-5.17-1.13-5,2.76c.09,2.59-1.59,6.48,3.62,6.23,1-.05,2.18.37,2.14,1.56-.21,6.81,1.41,13.7-.93,20.41.12-6,.27-12,.31-18,0-1.32.72-3.6-1.72-3.23-5.52.82-4.77-2.79-4.76-6.1,0-.91.47-2-.74-3.08-2.13,3.88-4.54,2.88-7.21.5-1.59-1.43-3.76-2.24-5.26-3.74-1.37-1.35-6.08-1.12-3.25-4.75,2-2.6,3.4-8.23,8.88-3.86a28.29,28.29,0,0,0,6.47,3.73c3.21,1.36,4.21,3.24,1.69,6.57,4,0,7.28,0,10.6,0C408.42,170.16,409,169.59,408.76,168.1Z" transform="translate(0)"/><path class="k" d="M550.39,169.65c-2.54,2-4.82,4.16-7.47,5.72-1.69,1-2.26-1.3-3.18-2.24a39.72,39.72,0,0,1-5.49-6.35c-1-1.61-5.68-2.52-2-5.5,2.74-2.19,5.6-6.41,9.56-1.07,1.85,2.5,4.35,4.51,6.52,6.78C549,167.7,549.56,168.55,550.39,169.65Z" transform="translate(0)"/><path class="l" d="M394.82,191.38c-1.65,2.09-3.28,5-5.67,6.89-1.46,1.18-3-1.34-4.6-2.09s-2.85-1.71-4.28-2.55c-6.28-3.72-6.38-4.58-1-9.6a4.71,4.71,0,0,1,.7-.71c1.47-.94,14.88,5.37,15.14,7.11A4.29,4.29,0,0,1,394.82,191.38Z" transform="translate(0)"/><path class="l" d="M723.1,156.54c.8,1.2,1.57,2.49,2.49,3.66,1.13,1.42,2.4,2.73,3.59,4.1,4.78,5.49,4.69,5.35-1.28,9.29-2.56,1.68-3.92,1.45-5.5-1.13-1.38-2.23-3.49-4-4.91-6.22-1-1.48-4.09-2.63-2.38-4.62S719.75,158.58,723.1,156.54Z" transform="translate(0)"/><path class="m" d="M427,218a121.75,121.75,0,0,1,.87-21.17c2.49,3.18,1.55,6.8,1.34,10.33l0,9.71Z" transform="translate(0)"/><path class="n" d="M399.13,315c1,4.1-1.09,4.58-4.75,4.85-5.22.39-4.64-2.5-5-6-.46-4.62,2-4.3,5.26-4.61C399.55,308.79,399.61,311.48,399.13,315Z" transform="translate(0)"/><path class="o" d="M394.43,328.61c4.35-1.12,5,1.13,4.8,4.75-.26,5.24-1,6.12-7.47,6-4.09-.06-1.82-3.38-2.08-5.18C389.19,330.79,389.05,327.14,394.43,328.61Z" transform="translate(0)"/><path class="p" d="M399.05,296c1.27,4.83-2,4.06-5,4.41-4.64.54-4.19-2.11-4.53-5.27-.52-4.78,2.25-4.09,5.31-4.42C399.37,290.27,399.67,292.63,399.05,296Z" transform="translate(0)"/><path class="q" d="M695.08,205.28c7.25,0,13.19.06,19.12,0,2.73-.05,4,.5,2,3.2-.1.13-.16.29-.26.42-2.73,3.47-5.48,9.69-9,9C701.74,216.83,698.89,210.75,695.08,205.28Z" transform="translate(0)"/><path class="r" d="M196.21,203c0-1.8-.17-4.25,2.14-4.31a4.35,4.35,0,0,1,4.47,3.81c.12,2.44-2.19,3.75-4.3,4C196.2,206.8,196.29,204.67,196.21,203Z" transform="translate(0)"/><path class="s" d="M145.08,201.63c-.07,1.7.1,4-2,3.85a4.83,4.83,0,0,1-4.5-4.44c0-1.9,2.17-2.84,4-3C145.32,197.7,145,199.92,145.08,201.63Z" transform="translate(0)"/><path class="t" d="M174.23,229.77c-.44,2.27-1.69,4-3.76,4.22-2.38.29-3.55-1.9-3.91-3.72-.44-2.29,1.61-2.49,3.33-2.45S173.64,227.35,174.23,229.77Z" transform="translate(0)"/><path class="u" d="M170.66,177.16c-1.51-.19-3.72.46-3.71-2a3.93,3.93,0,0,1,3.56-4.11c2.44-.1,3.93,2.1,4,4.22C174.59,177.54,172.25,177,170.66,177.16Z" transform="translate(0)"/><path class="o" d="M429.22,207.16c-2.41-3.19-.12-7-1.34-10.33.86-4.89-.95-7.08-6.05-6.1a14.82,14.82,0,0,1-3,0c-7-.13-6.53,1.5-6.3-6.69.07-2.46.67-3.59,3.39-3.4,3.24.24,6.52.06,10.73.06-3.22,3.71-1.55,5.17,1.49,6.54,2.42,1.09,5.37,2.1,4.84,5.94-.24,1.71,1.37,1.5,2.49,1.51,2.94,0,5.89,0,9.93,0-3.52,3-5.12,5.81-4.44,9.53.4,2.17-.67,2.91-2.81,2.83C435.19,207,432.21,207.13,429.22,207.16Z" transform="translate(0)"/><path class="v" d="M616.28,184.52c0,10.77,0,10.77-10.75,10.77-10.55,0-10.55,0-10.55-10.56,0-12.35,0-12.35,11.8-12.35,9.5,0,9.5,0,9.5,9.65Z" transform="translate(0)"/><path class="q" d="M515.84,346.79c-.36,2.41,1.54,6-3.84,5.86-3.5-.11-4.82-1.07-4.31-4.5a17.42,17.42,0,0,0,0-3c-.06-2.82-.59-5.34,4-5.31s4.25,2.36,4.1,5.29C515.81,345.65,515.84,346.15,515.84,346.79Z" transform="translate(0)"/><path class="w" d="M525.85,345.86c0-3-1.17-6.5,4.35-6,3.06.3,4.24,1.06,3.84,4.07a24.83,24.83,0,0,0,0,3c0,2.89.91,5.8-4.18,5.77s-3.86-3.13-4-5.86C525.84,346.53,525.85,346.2,525.85,345.86Z" transform="translate(0)"/><path class="x" d="M489.66,345.92c.18-2.83-1.31-6.5,4.21-6.05,3.08.26,4.15,1.14,3.79,4.06-.12,1,0,2,0,3-.11,2.75,1.1,5.84-4,5.84s-3.84-3.1-4-5.82C489.65,346.58,489.66,346.25,489.66,345.92Z" transform="translate(0)"/><path class="y" d="M530.43,294.13c-2,0-3.95-.06-5.92,0s-2.33-1.18-2.36-2.86.46-2.81,2.45-2.78c3.79.05,7.58.1,11.36,0,2.23-.05,2.25,1.27,2.27,2.88s-.22,2.91-2.37,2.78C534.06,294,532.24,294.12,530.43,294.13Z" transform="translate(0)"/><path class="z" d="M530.42,307.14c-2,0-4-.08-5.93,0s-2.65-.6-2.47-2.57c.14-1.6.25-3,2.36-2.94,3.62,0,7.25.08,10.87,0,2-.06,3,.43,3,2.72s-.73,3-2.87,2.81C533.72,307,532.07,307.14,530.42,307.14Z" transform="translate(0)"/><path class="aa" d="M489.5,297c-2.55-.65-5.83,1.46-5.85-3.43,0-5.68,3.89-3.24,6.24-3.42s5.4-1.57,5.48,3.21C495.47,299.25,491.16,295.75,489.5,297Z" transform="translate(0)"/><path class="w" d="M489.68,312c-2.15-.85-6.16,2-6-3.71.11-4.83,3.35-3.25,5.51-3.15,2.4.12,6.32-2.11,6.22,3.5C495.28,313.46,492,311.39,489.68,312Z" transform="translate(0)"/></svg>