<svg xmlns="http://www.w3.org/2000/svg" viewBox="0 0 1045.77 277.84"><defs><style>.a{fill:#6dbb58;}.b{fill:#3786c8;}.c{opacity:0.05;}</style></defs><path class="a" d="M970.69,332c-2.9,1.26-5.74,2.68-8.71,3.76a200.43,200.43,0,0,1-51.84,11.68,303.68,303.68,0,0,1-36.42,1.38c-33.73-1.22-65.36-9.91-94-28.35-24.34-15.66-43.19-36.48-58.08-61.08A242.16,242.16,0,0,1,702,218.93c-.22-.57-.34-1.18-.64-2.21l32.39-9.38c1.53,3.7,3,7.19,4.42,10.72,9.59,24,22.85,45.69,40.72,64.51,26.19,27.61,58.33,43.93,95.53,50.8a213.69,213.69,0,0,0,53.36,2.89c13.52-.91,26.94-3.23,40.4-4.92.77-.09,1.54-.14,2.32-.21Z" transform="translate(-286 -71.08)"/><path class="b" d="M741,140.72,770,145.16v14.21c0,8.86-.52,17.77.21,26.58a179.21,179.21,0,0,0,4.34,28.36,139.77,139.77,0,0,0,26.15,53.76,154.82,154.82,0,0,0,36.52,33.2,210.06,210.06,0,0,0,51.6,24.45c6.42,2,12.93,3.8,19.4,5.7a6.45,6.45,0,0,1,2.82,1.42c-3.92,0-7.88.39-11.75-.07a212.75,212.75,0,0,1-67.06-19.14c-20.37-9.69-38.59-22.42-53.9-39.31-21.42-23.64-32.81-51.64-37.05-82.79-1.33-9.72-1.44-19.63-1.66-29.47-.14-6.37.53-12.76.86-19.13A15.94,15.94,0,0,1,741,140.72Z" transform="translate(-286 -71.08)"/><path class="a" d="M861.08,310.53c-4-2.46-8.22-4.72-12.1-7.4-10.89-7.55-21.42-15.53-30.83-24.93a149.24,149.24,0,0,1-40.23-71.49,116.29,116.29,0,0,1-1.3-48.88c2.33-12.84,6.63-25.16,11.84-37.14,2.61-6,5.11-12.08,8.11-17.9,2.11-4.07,5-7.75,7.78-12l21.33,15c-.58,1.13-1.13,2.22-1.7,3.29-6.62,12.42-13,24.9-18.21,38a120.36,120.36,0,0,0-8.23,48.34c.51,19.2,6,37.12,14.25,54.44a137.39,137.39,0,0,0,24.16,35c7.57,8.09,15.93,15.44,23.94,23.13.6.56,1.19,1.13,1.78,1.7Z" transform="translate(-286 -71.08)"/><path class="b" d="M888.57,71.08c3.15,7.32,6.2,14.4,9.27,21.55-5.38,2.83-10.69,5.48-15.87,8.36-18.36,10.21-34.08,23.48-46.19,40.73a111.38,111.38,0,0,0-19.65,51.78c-2.76,23.18.77,45.65,7.42,67.79.27.92.52,1.84.78,2.76l-.61.32c-1.3-2.23-2.74-4.4-3.89-6.71a150.78,150.78,0,0,1-15.24-53.24c-2-20.72,0-41,8-60.4,7-17,17.59-31.36,31.11-43.72,12.78-11.69,27.41-20.54,42.72-28.4C887,71.62,887.56,71.46,888.57,71.08Z" transform="translate(-286 -71.08)"/><path class="a" d="M820.22,221.63c0-3.84-.31-7.72,0-11.53a147.87,147.87,0,0,1,15.58-53.93c13.91-27.16,34.89-46.54,63.49-57.52a140.39,140.39,0,0,1,40.75-8.76c7.59-.52,15.23-.42,22.85-.59.51,0,1,.09,2.07.19-.85,7.35-1.69,14.56-2.55,21.94-2.67,0-4.87.07-7.08,0a145.18,145.18,0,0,0-51.93,7.06,112.09,112.09,0,0,0-48,30.78c-18.4,20.1-28.61,44.27-34.2,70.62a15.85,15.85,0,0,1-.61,1.84Z" transform="translate(-286 -71.08)"/><path class="c" d="M286,314.5l23.61-24C328,306.1,353,316.6,378,316.6c30.56,0,47.57-12.6,47.57-31.2,0-20.1-17-26.4-40.62-35.4l-35.42-13.2c-25-9-52.08-25.5-52.08-57.9,0-34.8,35.07-60.9,84-60.9,30.21,0,58.33,10.8,77.08,27.9l-20.48,22.2c-16-12.3-34-19.8-56.6-19.8-26,0-42.7,11.1-42.7,28.2,0,19.2,20.48,26.1,41,33.6L414.82,223c30.55,11.1,52.08,27.3,52.08,59.7,0,35.4-34,64.5-89.93,64.5C341.9,347.2,309.26,334.9,286,314.5Z" transform="translate(-286 -71.08)"/><path class="c" d="M498.14,260.5c0-54.9,42.71-86.7,90.27-86.7,47.23,0,89.59,31.8,89.59,86.7s-42.36,86.7-89.59,86.7C540.85,347.2,498.14,315.4,498.14,260.5Zm138.88,0c0-34.8-18.75-58.2-48.61-58.2-30.2,0-48.95,23.4-48.95,58.2,0,35.1,18.75,57.9,48.95,57.9C618.27,318.4,637,295.6,637,260.5Z" transform="translate(-286 -71.08)"/><path class="c" d="M946,260.5c0-54.9,42.71-86.7,90.28-86.7,47.22,0,89.58,31.8,89.58,86.7s-42.36,86.7-89.58,86.7C988.73,347.2,946,315.4,946,260.5Zm138.89,0c0-34.8-18.75-58.2-48.61-58.2-30.21,0-49,23.4-49,58.2,0,35.1,18.75,57.9,49,57.9C1066.16,318.4,1084.91,295.6,1084.91,260.5Z" transform="translate(-286 -71.08)"/><path class="c" d="M1160.25,260.5c0-53.7,39.23-86.7,81.59-86.7,22.23,0,36.11,6.9,51.39,18.6l-1.39-27.3V103.9h39.93V343h-32.64l-3.47-18.6h-1c-14.24,12.6-34,22.8-55.9,22.8C1191.15,347.2,1160.25,315.4,1160.25,260.5ZM1291.84,298V217.6c-14.23-11.1-27.77-15-42-15-26.39,0-48.26,21.9-48.26,57.6,0,37.2,17,57.9,46.87,57.9C1264.41,318.1,1278,312.1,1291.84,298Z" transform="translate(-286 -71.08)"/></svg>