<?xml version="1.0" encoding="utf-8"?>
<!-- Generator: Adobe Illustrator 26.0.2, SVG Export Plug-In . SVG Version: 6.00 Build 0)  -->
<svg version="1.1" id="图层_1" xmlns="http://www.w3.org/2000/svg" xmlns:xlink="http://www.w3.org/1999/xlink" x="0px" y="0px"
	 viewBox="0 0 1791.2 558.3" style="enable-background:new 0 0 1791.2 558.3;" xml:space="preserve">
<style type="text/css">
	.st0{fill:#FAFAFF;}
	.st1{fill:#6DBB58;}
	.st2{fill:#3786C8;}
</style>
<path class="st0" d="M602.6,403.7l15.3-24.7h1173.3l-15.1,24.7H602.6z"/>
<path class="st0" d="M1336.5,95.2h-43.9V73.8h43.1c0.7-7.2,1.2-13,1.8-18.9h46.2c0.3,6.1,0.7,12.2,1,18.8h60.1v262
	c-1,0.3-2.1,0.4-3.1,0.5c-14.2,0.3-28.4,0.7-42.6,0.6c-3.3-0.1-6.6-1-9.4-2.7c-8.7-5.2-17-10.8-26.1-16.6
	c-1.3,6.7-2.4,12.5-3.6,18.5H1305C1328.8,257.3,1330.7,176.3,1336.5,95.2z M1382.9,95.3c-0.3,68.2-4.8,135.6-16.1,202.6l24.8,11.7
	V95.3H1382.9z"/>
<path class="st1" d="M538.7,521.8c-5.8,2.5-11.5,5.4-17.4,7.5c-33.4,12.4-68.2,20.2-103.7,23.4c-24.2,2-48.6,3.6-72.8,2.8
	c-67.4-2.4-130.7-19.8-188-56.7c-48.7-31.3-86.4-73-116.1-122.2C25,350.9,11.8,323.9,1.3,295.7c-0.4-1.1-0.7-2.3-1.3-4.4l64.8-18.8
	c3.1,7.4,6,14.4,8.8,21.4c19.2,48,45.7,91.4,81.4,129c52.4,55.2,116.6,87.9,191,101.6c35.2,6.4,71,8.3,106.7,5.8
	c27-1.8,53.9-6.5,80.8-9.8c1.5-0.2,3.1-0.3,4.6-0.4C538.3,520.7,538.5,521.3,538.7,521.8z"/>
<path class="st0" d="M1120.1,334.8h-58v-85.7h-70.5v-20.8h69.4v-103h-20.7c-2.2,20.1-4.4,40.2-6.6,60.4h-47.8
	c4-41.8,7.8-82.8,11.7-123.9h46.3c-0.8,14-1.6,27.5-2.4,41.5h20.1V58.4h57.2v43h55.6v21.9h-55.7v104.1h60v21.3h-58.6L1120.1,334.8z"
	/>
<path class="st0" d="M766.8,149.7H800c-0.5,10.3-1,19.6-1.5,29.5h36.6c11.4,51.9,22.9,103.5,34.5,155.9h-50.4l-23.8-115.6l-1.6-0.1
	c-7.4,38.5-12.7,77.5-24.3,115.7h-55.7c24-59.1,34.2-120.8,39.7-184.4h-41.2c6.7-32.3,13.3-64,19.9-95.9h50.8
	c-0.5,5.1-1.1,10.1-1.7,16h85.1c-3.2,24.4-6.3,47.7-9.5,71.3h-54.8l11.8-50.4H778C774.4,110.6,770.7,129.6,766.8,149.7z"/>
<path class="st0" d="M1610.3,310.6h100c-10.4-23.9-20.6-47.2-31-71h59.7c14.3,30.9,28.7,62.1,43.6,94.6h-249.1
	c0.2-10.3-1.7-20.8,3.7-31.2c12-23,23.3-46.4,34.9-69.6c1.1-2.2,2-4.5,3.5-7.8h-55.3v-22.2h266.1c0.3,7,0.7,13.9,1.1,21.6h-138.2
	L1610.3,310.6z"/>
<path class="st0" d="M692.4,334.6h-54.2v-69.6l-47.9,4.4c-0.7-7.5-1.3-14.7-2-22.8l49.2-5.4v-43.6h-43.8c0.7-10.1,0.4-18.9,2.1-27.2
	c4.5-21.7,9.8-43.3,14.8-64.9c0.3-1.5,0.3-3.1,0.6-5.4h-21.7V80.3H616c1.9-8,3.7-15.6,5.4-22.8h52.1c-1.9,7.9-3.6,14.8-5.4,22.5
	h47.6v20h-55c-1.1,6.5-2.1,12.5-3.3,19.3H692c1.2,19.1,0.1,37.7,0.7,57h28V197H693v38.3l30.8-3.3v24.6l-31.4,3.2V334.6z M653.1,146
	l-1.7-0.3c-3,10-6,20.1-9.1,30.5h10.8V146z"/>
<path class="st2" d="M79.3,139.3l58.1,8.9c0,10.1,0,19.2,0,28.4c0,17.7-1,35.5,0.4,53.2c1.6,19,4.1,38.2,8.7,56.7
	c9.8,39.4,27,75.6,52.3,107.5c20.6,25.9,45.3,48.3,73,66.4c32,20.9,66.8,37.4,103.2,48.9c12.8,4.1,25.9,7.6,38.8,11.4
	c2.1,0.5,4,1.5,5.6,2.8c-7.8,0-15.8,0.8-23.5-0.1c-46.5-5.3-91.8-18.2-134.1-38.3c-40.7-19.4-77.2-44.8-107.8-78.6
	C111.2,359.2,88.5,303.2,80,240.9c-2.6-19.4-2.9-39.3-3.3-58.9c-0.3-12.7,1.1-25.5,1.7-38.3C78.6,142.2,78.9,140.7,79.3,139.3z"/>
<path class="st1" d="M319.5,478.9c-8.1-4.9-16.4-9.4-24.2-14.8c-21.8-15.1-42.8-31.1-61.6-49.8c-40.2-40.2-67-87.8-80.5-143
	c-7.8-32-8.7-65.4-2.6-97.8c4.7-25.7,13.3-50.3,23.7-74.3c5.2-12,10.2-24.2,16.2-35.8c4.2-8.2,9.9-15.5,15.5-24.1l42.6,29.9
	c-1.2,2.2-2.3,4.4-3.4,6.6c-13.2,24.8-26,49.8-36.4,76.1c-12.5,31.3-17.3,63.5-16.5,96.7c1,38.4,12,74.2,28.5,108.9
	c12.4,26.1,28.8,49.2,48.3,70c15.1,16.2,31.9,30.9,47.9,46.3c1.2,1.1,2.4,2.3,3.6,3.4L319.5,478.9z"/>
<path class="st0" d="M914.8,188.1l-21.2-1.5c17-41.9,24.3-85.9,35.3-128.5H983c-0.8,6.2-1.4,11.6-2.3,16.9
	c-5.7,33.3-9.1,66.7-8.6,100.7c0.8,51,0.2,102.1,0.2,153.2c0,1.9-0.3,3.8-0.4,5.9h-54.2c-0.5-2.1-0.8-4.3-1-6.4
	c-0.2-10.3-0.3-20.6-0.4-30.9c-0.4-34.7-0.7-69.3-1.1-104C915.2,191.7,914.9,190.2,914.8,188.1z"/>
<path class="st0" d="M1274.5,129.9l12.3,0.9c0.3,5.7,0.5,11.1,0.8,17l-14.3,1.7v184.7h-51c-0.4-1.9-0.6-3.9-0.7-5.8
	c-0.4-30.4-0.8-60.8-1.1-91.2c-0.3-26.1-0.7-52.2-1.1-78.4c0-2.3-0.5-4.5-0.8-7.1l-15.8-1.5c0.4-6.5,0.7-12.6,1.1-19l15.8-1.3V55.7
	h54.8L1274.5,129.9z"/>
<path class="st2" d="M374.4,0L393,43.1c-10.8,5.7-21.4,11-31.8,16.7c-36.7,20.4-68.1,47-92.4,81.5c-21.9,31.1-34.8,65.7-39.3,103.6
	c-5.5,46.4,1.5,91.3,14.8,135.6c0.5,1.8,1,3.7,1.6,5.5l-1.2,0.6c-2.6-4.5-5.5-8.8-7.8-13.4c-16.7-33.3-27-69.4-30.5-106.4
	c-4-41.5,0-82,16-120.8c14-33.9,35.2-62.7,62.2-87.5c25.6-23.4,54.8-41.1,85.4-56.8C371.2,1.1,372.4,0.7,374.4,0z"/>
<path class="st0" d="M1787.5,141.7h-76.5l-60.4-56.3c-6.6,5.7-12.9,11-19.2,16.4c-14.5,12.5-29.1,25-43.4,37.7
	c-3.6,3.2-7.2,4.8-12.3,4.7c-15.3-0.3-30.6,0.3-45.8,0.4c-5.6,0.1-11.3,0-16.9,0c-0.2-0.4-0.4-0.9-0.6-1.3
	c4.4-4.2,8.7-8.5,13.1-12.6c26.3-24.4,52.8-48.6,79-73.2c5.8-5.4,12.3-3.7,18.6-3.7c19,0.1,38,1.2,57,0.7c10.8-0.3,19,2.3,27,10
	c24.9,24.1,50.6,47.3,76,70.9c1.9,1.6,3.9,3,6,4.4L1787.5,141.7z"/>
<path class="st1" d="M237.8,301.1c0-7.7-0.6-15.5,0.1-23.1c3.4-37.6,14-74.2,31.2-107.9c27.8-54.3,69.8-93.1,127-115
	c26.3-10.1,53.5-15.6,81.5-17.5c15.2-1,30.5-0.8,45.7-1.2c1.4,0.1,2.8,0.2,4.1,0.4c-1.7,14.7-3.4,29.1-5.1,43.9
	c-5.3,0-9.7,0.1-14.2,0c-35.4-1.3-70.1,2.8-103.8,14.1c-37.2,12.5-69.4,32.7-95.9,61.6c-36.8,40.2-57.2,88.5-68.4,141.2
	c-0.3,1.2-0.7,2.5-1.2,3.7L237.8,301.1z"/>
<path class="st0" d="M1776.2,156.1v20.4h-240.4v-20.4H1776.2z"/>
<path class="st0" d="M1312.1,266.6h-28.2c-0.2-1.1-0.3-2.3-0.3-3.5c9.1-47.3,12.9-95.1,14.1-143.6h25.2
	C1322.4,169.1,1318.1,218,1312.1,266.6z"/>
<path class="st0" d="M1486.4,268h-26.7c-2-49.7-3.9-98.8-5.9-148.5h24.9C1481.3,169.3,1483.8,218.5,1486.4,268z"/>
<path class="st0" d="M853.5,523H930c2.6,7.2,4.9,13.6,7.3,19.9l1.5,0.1l7.5-19.7h9.3c2.4,6.8,4.7,13.2,6.9,19.6l1.6,0.1
	c2.3-6.2,4.6-12.5,7.2-19.4h8.2c-4.3,11-8.6,22.1-13.2,33.8h-6.7l-8-21.5l-2-0.1c-2.7,6.9-5.3,13.9-8.3,21.6h-6.6l-12.2-32.7
	c-1,2.4-1.6,3.7-2.1,4.9H908v27.7h-8.4v-27.2h-37.5v6.6h15.2v6.8H862v13.9h-8.5L853.5,523z"/>
<path class="st0" d="M1120.8,479h-8l-27-28.1v28h-8.9v-41.2h8.8l25.4,26.8l1.2-0.7v-25.8l8.5-0.7L1120.8,479z"/>
<path class="st0" d="M1657,451.4h-12.3v-6.5h45.4l7.7,13.5l7.7-13.4h10c-7.4,10.6-18.3,19.2-13.1,34h-9.9c4.5-14-4.8-22.6-12.5-32.7
	c-0.8,1.9-1.3,3.2-2,5h-12.3v27.5h-8.7V451.4z"/>
<path class="st0" d="M1258.4,478.9h-8c0-3.4,0.1-6.5,0-9.7s-0.4-6.2-0.6-9.3l-1.5-0.4l-11.6,19.2c-3.7-6.3-7.1-12-10.4-17.8
	l-1.4,0.1v17.8h-7.9c-0.2-0.4-0.3-0.8-0.4-1.2c0-10.7,0-21.3,0-32.5h9.9c3.4,6.7,6.7,13.2,10.8,21.2l11.9-21.3h9.3L1258.4,478.9z"/>
<path class="st0" d="M802.3,520.1c-1.4,3-2.5,5.3-3.7,7.7c-13.5-8.5-25.2-8.1-25.7,1.8c3.2,0.7,6.5,1.5,9.9,2.1s7.1,0.7,10.5,1.6
	c6,1.6,9.2,5.6,9.5,10.8s-3,9.9-8.7,12c-9.6,3.6-19.4,2.5-30.5-3.7c1-2.5,2.1-5,3.3-8.1c6.1,6.2,13.1,7.8,20.8,6.4
	c3.9-0.7,7.3-2.4,5.4-8.5c-4.8-0.7-10-1.5-15.2-2.3c-8.7-1.2-13.7-5.4-13.8-11.4c0-6.9,4.5-11.4,12.9-13.3
	C785.9,513.3,793.6,517.1,802.3,520.1z"/>
<path class="st0" d="M672,441.6c-1.5,3-2.7,5.3-4.2,8.1c-6.4-5.9-13.7-7.2-21.5-5.2c-1.9,0.5-3.3,2.6-6.3,5.2c3.8,1.5,6,2.7,8.4,3.2
	c4.8,1,9.9,1.1,14.7,2.4c6,1.6,9.3,5.8,9.4,10.8c0.2,5.3-3.6,10.1-9.5,12.1c-10.5,3.6-20.2,1.2-30.1-3.9l3.3-7.5
	c7.1,5.1,14.5,8.2,23,5c2-0.7,3.4-3,5.1-4.6c-0.1-0.7-0.2-1.4-0.4-2.1c-3.7-0.9-7.4-2-11.2-2.8c-2.9-0.6-6-0.7-8.9-1.3
	c-6.1-1.2-9.5-4.9-9.9-10.3c-0.2-5.5,3.1-10.5,8.2-12.6c5.5-2.2,11.5-2.4,17.2-0.7C663.2,438.6,667.2,440,672,441.6z"/>
<path class="st0" d="M1345.8,523.7v33.9c5.5-1.8,18.4-25.9,18.9-34.1h8.6l16.9,33.6l-9.9,0.8c-1.2-3.4-2.1-6.2-3.1-9.1h-16.4
	c-0.9,2.7-1.8,5.5-2.9,8.5h-21.2v-33.7L1345.8,523.7z M1363.6,543.3h10.5l-5.8-10L1363.6,543.3z"/>
<path class="st0" d="M1359.3,437.5h9c0,8.5,0,16.6,0,24.7c0,7.2,1.5,9.5,8.5,10.4c12.7,1.5,16.6-2.8,16-12.8
	c-0.4-7.2-0.1-14.5-0.1-22.2h8c0,9.3,0,18.2,0,27s-3.3,13.2-11.9,14.3c-6.1,0.7-12.3,0.7-18.4-0.2c-7.8-1.1-10.9-5.2-11.1-13.2
	C1359.2,456.3,1359.3,447.1,1359.3,437.5z"/>
<path class="st0" d="M1182.6,479h-8.5v-34.4c3.8,0,7.4-0.1,11,0c5.1,0.1,10.3,0.3,15.4,0.7s8.3,3.3,8.7,8.4
	c0.3,4.9-1.7,8.6-6.8,10.1c-0.9,0.3-1.7,0.7-2.5,1.1l9.5,14h-10l-8.2-13.5h-8.5L1182.6,479z M1182.8,459.2l17.9-1.1
	c-0.4-2.7-0.7-4.5-1-6.5h-17.3C1182.5,453.8,1182.6,455.7,1182.8,459.2z"/>
<path class="st0" d="M1560.5,478.9h-8.5v-34.2c10.1,0.1,20.2-1.8,29.8,1.9c2.4,0.9,4.8,5.1,4.9,7.8s-2.6,5.7-4.5,8.3
	c-0.8,1.1-2.8,1.4-4.8,2.3c3.1,4.4,6.1,8.5,9.6,13.4l-9.6,0.7c-3.1-5-5.8-9.4-8.6-13.8h-8.4L1560.5,478.9z M1560.6,457.5
	c4.7,2.4,15.5,2,17.8-1.2c-0.1-1-0.2-2.5-0.4-4.6h-17.7C1560.4,453.7,1560.5,455.6,1560.6,457.5L1560.6,457.5z"/>
<path class="st0" d="M1140,515.9h8.4c6.7,13.9,13.2,27.3,19.8,41l-10.6,0.9c-1.3-3.7-2.4-7-3.8-10.7h-20.2l-3.7,10.3h-9.2
	L1140,515.9z M1137.2,540.7h13.4c-2.3-5.1-4.2-9.2-6.7-14.7L1137.2,540.7z"/>
<path class="st0" d="M903.8,443.7l-3.9,7c-5.2-5.1-11-7.4-17.9-7.1c-9.3,0.4-15.8,6-16,14.4c-0.2,8,6.6,14.8,15.6,14.9
	c6.7,0.1,13-1.5,17.9-7.4l4.7,6.7c-9.3,5-18.3,9.5-29.3,6.9c-10.6-2.6-18-11-18-20.9c0.1-10.4,8-19.2,18.9-21.4
	C886.2,434.7,894.8,438.9,903.8,443.7z"/>
<path class="st0" d="M1063.5,557.6h-10.3c-2.8-4.6-5.4-8.9-8-13.3l-8.6-1.1v14.1h-8.6v-33.7c8.8,0,17.8-0.3,26.8,0.1
	c4.6,0.2,7.9,3.2,8.1,8.3s-1.8,8.6-6.9,10.1c-0.8,0.4-1.7,0.8-2.4,1.3L1063.5,557.6z M1055,534c-2.9-5-10.2-6.2-18.3-3.5v6.8
	C1043.1,535.9,1049.8,540.1,1055,534z"/>
<path class="st0" d="M1521,543.7v-20.1h7.7v34h-7.2l-21.3-22.3v22.2l-8,0.4v-34.2h7.8l19.4,20.7L1521,543.7z"/>
<path class="st0" d="M1439,477.6l-21.2-16.9V479h-7.8v-33.9h8.8l-1.6,1.5l21.6,16.6V445h7.9v33.8h-8.4L1439,477.6z"/>
<path class="st0" d="M1002,445.1h7.7v33.8h-7.1L983,458.4l-1.6,0.4V479h-8.1v-34h7.3l20,21l1.4-0.6L1002,445.1z"/>
<path class="st0" d="M1513,444.7h31.6v6.7h-23v6.6h15v6.8h-14.9v7.9h23.4c0.1,1.8,0.3,3.8,0.4,6.2H1513V444.7z"/>
<path class="st0" d="M920.1,464.8v14.1h-8.5v-33.8h8.2v12.6h18.7V445h8.6v33.8l-8.5,0.5v-14.4H920.1z"/>
<path class="st0" d="M800.4,445.3h8.7v12.2h18.4V445h8.3v33.9h-8.5v-14.2h-18.1v14h-8.8L800.4,445.3z"/>
<path class="st0" d="M1070.2,557.7v-34.1h31.3v6.3h-22.9v6.9h15.3v6.9h-15.2v7.4h23.2c0.3,2.4,0.6,4.4,1,6.7L1070.2,557.7z"/>
<path class="st0" d="M1267.1,558.2c-11.8,0.1-19.8-7-19.9-17.5c0-11.1,7.7-18.2,19.7-18.2s20.2,7.2,20.3,17.8
	S1279.2,558.2,1267.1,558.2z M1267,552.1c6.9,0,12.1-4.9,12.2-11.4c0.1-7-4.8-11.6-12.3-11.6c-7.1,0-11.7,4.3-11.7,10.9
	C1255.2,547.4,1259.8,552.1,1267,552.1L1267,552.1z"/>
<path class="st0" d="M1465.5,558.2c-11.8,0-19.7-7-19.8-17.6c-0.1-10.9,7.7-18,19.9-18.1c11.8-0.1,20.1,7.3,20.1,18
	S1477.7,558.2,1465.5,558.2z M1465.4,552.1c7.1,0,12.5-5.2,12.3-11.8s-5-11.2-12.2-11.2s-11.7,4.2-11.8,10.8
	C1453.7,547.3,1458.3,552.1,1465.4,552.1L1465.4,552.1z"/>
<path class="st0" d="M826.8,558.2c-11.2-0.1-20-7.7-20-17.3c0-11,8.6-18.5,21-18.4c11.2,0.1,19.6,7.9,19.5,18.1
	S838.7,558.3,826.8,558.2z M827.1,529.1c-7.4,0-11.8,4.3-11.7,11.4s4.7,11.6,11.7,11.6s12.5-5.2,12.2-11.9
	C839,533.2,834.4,529,827.1,529.1L827.1,529.1z"/>
<path class="st0" d="M698.8,480c-16.1-0.2-24.8-10.8-21.4-23.2c2-7.4,9-12.3,17.8-12.6c10.6-0.3,18.2,4.1,20.8,12.2
	c2.4,7.4,0.1,15.6-6.6,19.6C705.6,478.3,700.9,479.2,698.8,480z M696.7,473.4c7.5,0,11.8-4.4,11.8-11.9c-0.1-6.6-5.3-11.5-12.1-11.3
	c-6.5,0.1-11.7,5.4-11.8,11.9C684.7,468.6,689.8,473.4,696.7,473.4z"/>
<path class="st0" d="M1147.2,443.1c8.4,1,14.7,4,18.5,11.1c3.3,5.8,2.7,13-1.6,18.1c-5,6.5-12.1,8.4-20,7.2s-14.1-4.6-16-12.8
	c-1.7-7-0.6-13.9,5.7-18.2C1137.7,445.9,1142.7,444.9,1147.2,443.1z M1147.2,473.4c7.5,0,12.3-4.6,12.3-11.6
	c0-6.3-5.8-11.8-12.2-11.6c-7,0.1-11.7,4.9-11.7,11.7C1135.6,469,1140,473.4,1147.2,473.4L1147.2,473.4z"/>
<path class="st0" d="M1178.4,534.3c3,0.7,5.8,1.6,8.6,2.1c3.3,0.6,6.7,0.7,10,1.4c4.9,1,8,4.2,8.1,9.2s-2.9,8.4-7.6,9.9
	c-8.7,2.8-17.1,1.6-25.7-2.8c0.7-1.9,1.3-3.7,2-5.6c7.9,3.2,15.5,6.5,22.8,0.6c0.1-0.7,0.3-1.5,0.4-2.2c-2.3-0.9-4.6-1.7-6.9-2.3
	c-3.1-0.6-6.3-0.8-9.5-1.2c-5-0.7-8.3-3.4-8.7-8.5c-0.4-4.9,2.1-8.6,6.6-10.5c5.8-2.5,12.4-2.4,18.1,0.2c2.1,0.9,4.3,1.7,6.8,2.7
	c-0.8,2.2-1.7,4.2-2.5,6.4C1190.3,526.9,1182.5,526.9,1178.4,534.3z"/>
<path class="st0" d="M1241.8,527.2c-1,2.2-1.8,4-2.7,5.9c-12.9-6.3-19.3-6-22.4,1.5c3,0.6,5.8,1.3,8.6,1.8c3.3,0.6,6.7,0.7,10,1.5
	c4.6,1.1,7.7,4.2,7.9,8.9c0.2,4.9-2.7,9-7.4,9.8c-5.8,1-11.9,0.7-17.8,0.4c-2.6-0.1-5-1.6-8.2-2.7c0.8-2.2,1.6-4.2,2.4-6.2
	c10.9,5.8,19.6,5.5,22.9-1.5c-2.4-0.8-4.8-1.6-7.3-2.2c-3.1-0.6-6.3-0.7-9.5-1.2c-4.6-0.7-7.5-3.3-8.1-7.9s1.2-8.4,5.5-10.6
	c5.3-2.7,11.5-3.1,17.1-1C1235.5,524.7,1238.2,525.8,1241.8,527.2z"/>
<path class="st0" d="M1598.5,456c3.4,0.7,6.9,1.4,10.4,2c2.8,0.5,5.6,0.7,8.4,1.3c4.6,1.1,7.6,4,7.8,8.9s-2.6,8-7,9.7
	c-8.9,3.5-17.3,1.3-26.3-2.2c0.7-2.1,1.3-3.8,2-5.9c7.8,3.8,15.4,5.6,22.9,1.2c0.2-0.7,0.4-1.4,0.6-2.1c-1.8-0.9-3.5-2.2-5.4-2.6
	c-3.5-0.7-7-0.8-10.5-1.4c-5.8-1-9.2-4.3-9.6-9.1c-0.3-4.4,3-8.9,8.1-10.7c8.4-2.9,16,0.3,23.9,3.5c-0.9,1.9-1.7,3.6-2.7,5.7
	c-7.5-3.7-14.9-7.3-22.2-0.8L1598.5,456z"/>
<path class="st0" d="M722,445h8.3c0,6.3,0,12.4,0,18.5c0,6.9,2,9.5,7.7,9.9c7.9,0.6,10.9-1.4,11.5-8.7c0.5-6.3,0.1-12.7,0.1-19.6
	l6.6-0.5c0,9,0.2,17.6-0.1,26.2c0,3.9-3.1,7.2-7,7.6c-4.8,0.7-9.8,1.4-14.6,0.9c-9.5-1-12-3.9-12.3-13.3
	C721.8,459.2,722,452.4,722,445z"/>
<path class="st0" d="M992.3,548.9l-2.8,8.6h-7.8l16.2-34.1h7c5.8,11.5,11.4,22.5,17.2,34.1h-10.2c-1.1-3-2-5.8-3-8.5L992.3,548.9z
	 M1005.6,543.5l-5.6-10.4l-4.9,10.4H1005.6z"/>
<path class="st0" d="M1042.8,470.5h-16.3l-2.9,8.5h-8.1c2.9-5.8,5.8-11.3,8.5-16.8s4.9-11.1,7.6-17.2h7.2
	c6,11.7,11.6,22.5,17.4,33.8h-10.4C1044.7,476.1,1043.8,473.4,1042.8,470.5z M1029.1,465.2h10.7c-2-3.5-3.5-6.1-5.7-10L1029.1,465.2
	z"/>
<path class="st0" d="M1271.3,479.1h-8.1c2.9-5.8,5.7-11.2,8.3-16.7s5-11.1,7.9-17.4h7.4c3,6.1,5.6,11.7,8.3,17.1s5.8,10.8,9,16.8
	h-10.9c-0.7-2.6-1.5-5.3-2.3-8.2h-16.8C1273.3,473.1,1272.3,475.9,1271.3,479.1z M1276.7,465.2h10.8l-5.4-10.3L1276.7,465.2z"/>
<path class="st0" d="M1325.6,546.4c1.4,2,2.6,3.5,3.9,5.3c-8.4,5.7-17,8.4-26.7,5.2c-7.2-2.3-12-9-11.9-16.6
	c0.1-7.7,5.1-14.5,12.4-16.8c9.4-2.9,17.7-0.1,26,5.2l-3.6,6c-4.1-5-9.1-6.1-14.8-5.8c-6.8,0.4-11.7,4.9-11.8,11.2
	s4.7,11.3,11.4,11.8C1316.2,552.4,1321.2,551.3,1325.6,546.4z"/>
<path class="st0" d="M1469,444.8h9.3l9.4,21.9l1.5-0.2c3-6.9,5.9-13.8,9.2-21.5h8.6c-5.3,11.4-10.4,22.4-15.8,34h-6.7
	C1479.3,467.7,1474.3,456.6,1469,444.8z"/>
<path class="st0" d="M773.6,478.8v-27.2h-12.8v-7h34.3v6.6h-12.6v27.6L773.6,478.8z"/>
<path class="st0" d="M1404.5,529.8h-12.3c-0.1-2.3-0.3-4.1-0.4-6.3h34.3c0.1,1.8,0.2,3.9,0.3,6.2h-12.8v27.6h-9.1V529.8z"/>
<path class="st0" d="M1318.2,472.7h22.1c0.1,1.8,0.2,3.8,0.3,6.2h-30.5V445h8.1V472.7z"/>
<path class="st0" d="M1632.3,445.1h8v33.8h-8V445.1z"/>
<path class="st0" d="M1439.5,523.7v33.7l-8.3,0.5v-34.1H1439.5z"/>
<path class="st0" d="M964.2,445v33.9h-8.1V445H964.2z"/>
<path class="st0" d="M1463.8,479h-8v-34h8V479z"/>
</svg>
