<svg version="1.1" id="prefix__图层_1" xmlns="http://www.w3.org/2000/svg" x="0" y="0" viewBox="0 0 1878.1 558.3" xml:space="preserve"><style>.prefix__st0{fill:#191923}.prefix__st1{fill:#6dbb58}.prefix__st2{fill:#3786c8}</style><path class="prefix__st0" d="M688.6 384.7l15.3-24.7h1173.3l-15.1 24.7H688.6zM1422.5 76.2h-43.9V54.8h43.1c.7-7.2 1.2-13 1.8-18.9h46.2c.3 6.1.7 12.2 1 18.8h60.1v262c-1 .3-2.1.4-3.1.5-14.2.3-28.4.7-42.6.6-3.3-.1-6.6-1-9.4-2.7-8.7-5.2-17-10.8-26.1-16.6-1.3 6.7-2.4 12.5-3.6 18.5h-55c23.8-78.7 25.7-159.7 31.5-240.8zm46.4.1c-.3 68.2-4.8 135.6-16.1 202.6l24.8 11.7V76.3h-8.7z"/><path class="prefix__st1" d="M538.7 521.8c-5.8 2.5-11.5 5.4-17.4 7.5-33.4 12.4-68.2 20.2-103.7 23.4-24.2 2-48.6 3.6-72.8 2.8-67.4-2.4-130.7-19.8-188-56.7-48.7-31.3-86.4-73-116.1-122.2-15.7-25.7-28.9-52.7-39.4-80.9-.4-1.1-.7-2.3-1.3-4.4l64.8-18.8c3.1 7.4 6 14.4 8.8 21.4 19.2 48 45.7 91.4 81.4 129 52.4 55.2 116.6 87.9 191 101.6 35.2 6.4 71 8.3 106.7 5.8 27-1.8 53.9-6.5 80.8-9.8 1.5-.2 3.1-.3 4.6-.4.2.6.4 1.2.6 1.7z"/><path class="prefix__st0" d="M1206.1 315.8h-58v-85.7h-70.5v-20.8h69.4v-103h-20.7c-2.2 20.1-4.4 40.2-6.6 60.4h-47.8c4-41.8 7.8-82.8 11.7-123.9h46.3c-.8 14-1.6 27.5-2.4 41.5h20.1V39.4h57.2v43h55.6v21.9h-55.7v104.1h60v21.3h-58.6v86.1zM852.8 130.7H886c-.5 10.3-1 19.6-1.5 29.5h36.6c11.4 51.9 22.9 103.5 34.5 155.9h-50.4l-23.8-115.6-1.6-.1c-7.4 38.5-12.7 77.5-24.3 115.7h-55.7c24-59.1 34.2-120.8 39.7-184.4h-41.2c6.7-32.3 13.3-64 19.9-95.9H869c-.5 5.1-1.1 10.1-1.7 16h85.1c-3.2 24.4-6.3 47.7-9.5 71.3h-54.8l11.8-50.4H864c-3.6 18.9-7.3 37.9-11.2 58zM1696.3 291.6h100c-10.4-23.9-20.6-47.2-31-71h59.7c14.3 30.9 28.7 62.1 43.6 94.6h-249.1c.2-10.3-1.7-20.8 3.7-31.2 12-23 23.3-46.4 34.9-69.6 1.1-2.2 2-4.5 3.5-7.8h-55.3v-22.2h266.1c.3 7 .7 13.9 1.1 21.6h-138.2l-39 85.6z"/><path class="prefix__st0" d="M778.4 315.6h-54.2V246l-47.9 4.4c-.7-7.5-1.3-14.7-2-22.8l49.2-5.4v-43.6h-43.8c.7-10.1.4-18.9 2.1-27.2 4.5-21.7 9.8-43.3 14.8-64.9.3-1.5.3-3.1.6-5.4h-21.7V61.3H702c1.9-8 3.7-15.6 5.4-22.8h52.1c-1.9 7.9-3.6 14.8-5.4 22.5h47.6v20h-55c-1.1 6.5-2.1 12.5-3.3 19.3H778c1.2 19.1.1 37.7.7 57h28V178H779v38.3l30.8-3.3v24.6l-31.4 3.2v74.8zM739.1 127l-1.7-.3c-3 10-6 20.1-9.1 30.5h10.8V127z"/><path class="prefix__st2" d="M79.3 139.3l58.1 8.9v28.4c0 17.7-1 35.5.4 53.2 1.6 19 4.1 38.2 8.7 56.7 9.8 39.4 27 75.6 52.3 107.5 20.6 25.9 45.3 48.3 73 66.4 32 20.9 66.8 37.4 103.2 48.9 12.8 4.1 25.9 7.6 38.8 11.4 2.1.5 4 1.5 5.6 2.8-7.8 0-15.8.8-23.5-.1-46.5-5.3-91.8-18.2-134.1-38.3-40.7-19.4-77.2-44.8-107.8-78.6-42.8-47.3-65.5-103.3-74-165.6-2.6-19.4-2.9-39.3-3.3-58.9-.3-12.7 1.1-25.5 1.7-38.3.2-1.5.5-3 .9-4.4z"/><path class="prefix__st1" d="M319.5 478.9c-8.1-4.9-16.4-9.4-24.2-14.8-21.8-15.1-42.8-31.1-61.6-49.8-40.2-40.2-67-87.8-80.5-143-7.8-32-8.7-65.4-2.6-97.8 4.7-25.7 13.3-50.3 23.7-74.3 5.2-12 10.2-24.2 16.2-35.8 4.2-8.2 9.9-15.5 15.5-24.1l42.6 29.9c-1.2 2.2-2.3 4.4-3.4 6.6-13.2 24.8-26 49.8-36.4 76.1-12.5 31.3-17.3 63.5-16.5 96.7 1 38.4 12 74.2 28.5 108.9 12.4 26.1 28.8 49.2 48.3 70 15.1 16.2 31.9 30.9 47.9 46.3 1.2 1.1 2.4 2.3 3.6 3.4l-1.1 1.7z"/><path class="prefix__st0" d="M1000.8 169.1l-21.2-1.5c17-41.9 24.3-85.9 35.3-128.5h54.1c-.8 6.2-1.4 11.6-2.3 16.9-5.7 33.3-9.1 66.7-8.6 100.7.8 51 .2 102.1.2 153.2 0 1.9-.3 3.8-.4 5.9h-54.2c-.5-2.1-.8-4.3-1-6.4-.2-10.3-.3-20.6-.4-30.9-.4-34.7-.7-69.3-1.1-104 0-1.8-.3-3.3-.4-5.4zM1360.5 110.9l12.3.9c.3 5.7.5 11.1.8 17l-14.3 1.7v184.7h-51c-.4-1.9-.6-3.9-.7-5.8-.4-30.4-.8-60.8-1.1-91.2-.3-26.1-.7-52.2-1.1-78.4 0-2.3-.5-4.5-.8-7.1l-15.8-1.5c.4-6.5.7-12.6 1.1-19l15.8-1.3V36.7h54.8v74.2z"/><path class="prefix__st2" d="M374.4 0L393 43.1c-10.8 5.7-21.4 11-31.8 16.7-36.7 20.4-68.1 47-92.4 81.5-21.9 31.1-34.8 65.7-39.3 103.6-5.5 46.4 1.5 91.3 14.8 135.6.5 1.8 1 3.7 1.6 5.5l-1.2.6c-2.6-4.5-5.5-8.8-7.8-13.4-16.7-33.3-27-69.4-30.5-106.4-4-41.5 0-82 16-120.8 14-33.9 35.2-62.7 62.2-87.5 25.6-23.4 54.8-41.1 85.4-56.8 1.2-.6 2.4-1 4.4-1.7z"/><path class="prefix__st0" d="M1873.5 122.7H1797l-60.4-56.3c-6.6 5.7-12.9 11-19.2 16.4-14.5 12.5-29.1 25-43.4 37.7-3.6 3.2-7.2 4.8-12.3 4.7-15.3-.3-30.6.3-45.8.4-5.6.1-11.3 0-16.9 0-.2-.4-.4-.9-.6-1.3 4.4-4.2 8.7-8.5 13.1-12.6 26.3-24.4 52.8-48.6 79-73.2 5.8-5.4 12.3-3.7 18.6-3.7 19 .1 38 1.2 57 .7 10.8-.3 19 2.3 27 10 24.9 24.1 50.6 47.3 76 70.9 1.9 1.6 3.9 3 6 4.4l-1.6 1.9z"/><path class="prefix__st1" d="M237.8 301.1c0-7.7-.6-15.5.1-23.1 3.4-37.6 14-74.2 31.2-107.9 27.8-54.3 69.8-93.1 127-115 26.3-10.1 53.5-15.6 81.5-17.5 15.2-1 30.5-.8 45.7-1.2 1.4.1 2.8.2 4.1.4-1.7 14.7-3.4 29.1-5.1 43.9-5.3 0-9.7.1-14.2 0-35.4-1.3-70.1 2.8-103.8 14.1-37.2 12.5-69.4 32.7-95.9 61.6-36.8 40.2-57.2 88.5-68.4 141.2-.3 1.2-.7 2.5-1.2 3.7l-1-.2z"/><path class="prefix__st0" d="M1862.2 137.1v20.4h-240.4v-20.4h240.4zM1398.1 247.6h-28.2c-.2-1.1-.3-2.3-.3-3.5 9.1-47.3 12.9-95.1 14.1-143.6h25.2c-.5 49.6-4.8 98.5-10.8 147.1zM1572.4 249h-26.7c-2-49.7-3.9-98.8-5.9-148.5h24.9c2.6 49.8 5.1 99 7.7 148.5zM939.5 504h76.5c2.6 7.2 4.9 13.6 7.3 19.9l1.5.1 7.5-19.7h9.3c2.4 6.8 4.7 13.2 6.9 19.6l1.6.1c2.3-6.2 4.6-12.5 7.2-19.4h8.2c-4.3 11-8.6 22.1-13.2 33.8h-6.7l-8-21.5-2-.1c-2.7 6.9-5.3 13.9-8.3 21.6h-6.6l-12.2-32.7c-1 2.4-1.6 3.7-2.1 4.9H994v27.7h-8.4v-27.2h-37.5v6.6h15.2v6.8H948v13.9h-8.5V504zM1206.8 460h-8l-27-28.1v28h-8.9v-41.2h8.8l25.4 26.8 1.2-.7V419l8.5-.7V460zM1743 432.4h-12.3v-6.5h45.4l7.7 13.5 7.7-13.4h10c-7.4 10.6-18.3 19.2-13.1 34h-9.9c4.5-14-4.8-22.6-12.5-32.7-.8 1.9-1.3 3.2-2 5h-12.3v27.5h-8.7v-27.4zM1344.4 459.9h-8c0-3.4.1-6.5 0-9.7s-.4-6.2-.6-9.3l-1.5-.4-11.6 19.2c-3.7-6.3-7.1-12-10.4-17.8l-1.4.1v17.8h-7.9c-.2-.4-.3-.8-.4-1.2v-32.5h9.9c3.4 6.7 6.7 13.2 10.8 21.2l11.9-21.3h9.3l-.1 33.9zM888.3 501.1c-1.4 3-2.5 5.3-3.7 7.7-13.5-8.5-25.2-8.1-25.7 1.8 3.2.7 6.5 1.5 9.9 2.1s7.1.7 10.5 1.6c6 1.6 9.2 5.6 9.5 10.8s-3 9.9-8.7 12c-9.6 3.6-19.4 2.5-30.5-3.7 1-2.5 2.1-5 3.3-8.1 6.1 6.2 13.1 7.8 20.8 6.4 3.9-.7 7.3-2.4 5.4-8.5-4.8-.7-10-1.5-15.2-2.3-8.7-1.2-13.7-5.4-13.8-11.4 0-6.9 4.5-11.4 12.9-13.3 8.9-1.9 16.6 1.9 25.3 4.9zM758 422.6c-1.5 3-2.7 5.3-4.2 8.1-6.4-5.9-13.7-7.2-21.5-5.2-1.9.5-3.3 2.6-6.3 5.2 3.8 1.5 6 2.7 8.4 3.2 4.8 1 9.9 1.1 14.7 2.4 6 1.6 9.3 5.8 9.4 10.8.2 5.3-3.6 10.1-9.5 12.1-10.5 3.6-20.2 1.2-30.1-3.9l3.3-7.5c7.1 5.1 14.5 8.2 23 5 2-.7 3.4-3 5.1-4.6-.1-.7-.2-1.4-.4-2.1-3.7-.9-7.4-2-11.2-2.8-2.9-.6-6-.7-8.9-1.3-6.1-1.2-9.5-4.9-9.9-10.3-.2-5.5 3.1-10.5 8.2-12.6 5.5-2.2 11.5-2.4 17.2-.7 3.9 1.2 7.9 2.6 12.7 4.2zM1431.8 504.7v33.9c5.5-1.8 18.4-25.9 18.9-34.1h8.6l16.9 33.6-9.9.8c-1.2-3.4-2.1-6.2-3.1-9.1h-16.4c-.9 2.7-1.8 5.5-2.9 8.5h-21.2v-33.7l9.1.1zm17.8 19.6h10.5l-5.8-10-4.7 10zM1445.3 418.5h9v24.7c0 7.2 1.5 9.5 8.5 10.4 12.7 1.5 16.6-2.8 16-12.8-.4-7.2-.1-14.5-.1-22.2h8v27c0 8.8-3.3 13.2-11.9 14.3-6.1.7-12.3.7-18.4-.2-7.8-1.1-10.9-5.2-11.1-13.2-.1-9.2 0-18.4 0-28zM1268.6 460h-8.5v-34.4c3.8 0 7.4-.1 11 0 5.1.1 10.3.3 15.4.7s8.3 3.3 8.7 8.4c.3 4.9-1.7 8.6-6.8 10.1-.9.3-1.7.7-2.5 1.1l9.5 14h-10l-8.2-13.5h-8.5l-.1 13.6zm.2-19.8l17.9-1.1c-.4-2.7-.7-4.5-1-6.5h-17.3c.1 2.2.2 4.1.4 7.6zM1646.5 459.9h-8.5v-34.2c10.1.1 20.2-1.8 29.8 1.9 2.4.9 4.8 5.1 4.9 7.8s-2.6 5.7-4.5 8.3c-.8 1.1-2.8 1.4-4.8 2.3 3.1 4.4 6.1 8.5 9.6 13.4l-9.6.7c-3.1-5-5.8-9.4-8.6-13.8h-8.4l.1 13.6zm.1-21.4c4.7 2.4 15.5 2 17.8-1.2-.1-1-.2-2.5-.4-4.6h-17.7c.1 2 .2 3.9.3 5.8zM1226 496.9h8.4c6.7 13.9 13.2 27.3 19.8 41l-10.6.9c-1.3-3.7-2.4-7-3.8-10.7h-20.2l-3.7 10.3h-9.2l19.3-41.5zm-2.8 24.8h13.4c-2.3-5.1-4.2-9.2-6.7-14.7l-6.7 14.7zM989.8 424.7l-3.9 7c-5.2-5.1-11-7.4-17.9-7.1-9.3.4-15.8 6-16 14.4-.2 8 6.6 14.8 15.6 14.9 6.7.1 13-1.5 17.9-7.4l4.7 6.7c-9.3 5-18.3 9.5-29.3 6.9-10.6-2.6-18-11-18-20.9.1-10.4 8-19.2 18.9-21.4 10.4-2.1 19 2.1 28 6.9zM1149.5 538.6h-10.3c-2.8-4.6-5.4-8.9-8-13.3l-8.6-1.1v14.1h-8.6v-33.7c8.8 0 17.8-.3 26.8.1 4.6.2 7.9 3.2 8.1 8.3s-1.8 8.6-6.9 10.1c-.8.4-1.7.8-2.4 1.3l9.9 14.2zM1141 515c-2.9-5-10.2-6.2-18.3-3.5v6.8c6.4-1.4 13.1 2.8 18.3-3.3zM1607 524.7v-20.1h7.7v34h-7.2l-21.3-22.3v22.2l-8 .4v-34.2h7.8l19.4 20.7 1.6-.7zM1525 458.6l-21.2-16.9V460h-7.8v-33.9h8.8l-1.6 1.5 21.6 16.6V426h7.9v33.8h-8.4l.7-1.2zM1088 426.1h7.7v33.8h-7.1l-19.6-20.4-1.6.4V460h-8.1v-34h7.3l20 21 1.4-.6v-20.3zM1599 425.7h31.6v6.7h-23v6.6h15v6.8h-14.9v7.9h23.4c.1 1.8.3 3.8.4 6.2H1599v-34.2zM1006.1 445.8v14.1h-8.5v-33.8h8.2v12.6h18.7V426h8.6v33.8l-8.5.5v-14.4h-18.5v-.1zM886.4 426.3h8.7v12.2h18.4V426h8.3v33.9h-8.5v-14.2h-18.1v14h-8.8v-33.4zM1156.2 538.7v-34.1h31.3v6.3h-22.9v6.9h15.3v6.9h-15.2v7.4h23.2c.3 2.4.6 4.4 1 6.7l-32.7-.1zM1353.1 539.2c-11.8.1-19.8-7-19.9-17.5 0-11.1 7.7-18.2 19.7-18.2s20.2 7.2 20.3 17.8-8 17.9-20.1 17.9zm-.1-6.1c6.9 0 12.1-4.9 12.2-11.4.1-7-4.8-11.6-12.3-11.6-7.1 0-11.7 4.3-11.7 10.9 0 7.4 4.6 12.1 11.8 12.1zM1551.5 539.2c-11.8 0-19.7-7-19.8-17.6-.1-10.9 7.7-18 19.9-18.1 11.8-.1 20.1 7.3 20.1 18s-8 17.7-20.2 17.7zm-.1-6.1c7.1 0 12.5-5.2 12.3-11.8s-5-11.2-12.2-11.2-11.7 4.2-11.8 10.8c0 7.4 4.6 12.2 11.7 12.2zM912.8 539.2c-11.2-.1-20-7.7-20-17.3 0-11 8.6-18.5 21-18.4 11.2.1 19.6 7.9 19.5 18.1s-8.6 17.7-20.5 17.6zm.3-29.1c-7.4 0-11.8 4.3-11.7 11.4s4.7 11.6 11.7 11.6 12.5-5.2 12.2-11.9c-.3-7-4.9-11.2-12.2-11.1zM784.8 461c-16.1-.2-24.8-10.8-21.4-23.2 2-7.4 9-12.3 17.8-12.6 10.6-.3 18.2 4.1 20.8 12.2 2.4 7.4.1 15.6-6.6 19.6-3.8 2.3-8.5 3.2-10.6 4zm-2.1-6.6c7.5 0 11.8-4.4 11.8-11.9-.1-6.6-5.3-11.5-12.1-11.3-6.5.1-11.7 5.4-11.8 11.9.1 6.5 5.2 11.3 12.1 11.3zM1233.2 424.1c8.4 1 14.7 4 18.5 11.1 3.3 5.8 2.7 13-1.6 18.1-5 6.5-12.1 8.4-20 7.2s-14.1-4.6-16-12.8c-1.7-7-.6-13.9 5.7-18.2 3.9-2.6 8.9-3.6 13.4-5.4zm0 30.3c7.5 0 12.3-4.6 12.3-11.6 0-6.3-5.8-11.8-12.2-11.6-7 .1-11.7 4.9-11.7 11.7 0 7.1 4.4 11.5 11.6 11.5zM1264.4 515.3c3 .7 5.8 1.6 8.6 2.1 3.3.6 6.7.7 10 1.4 4.9 1 8 4.2 8.1 9.2s-2.9 8.4-7.6 9.9c-8.7 2.8-17.1 1.6-25.7-2.8.7-1.9 1.3-3.7 2-5.6 7.9 3.2 15.5 6.5 22.8.6.1-.7.3-1.5.4-2.2-2.3-.9-4.6-1.7-6.9-2.3-3.1-.6-6.3-.8-9.5-1.2-5-.7-8.3-3.4-8.7-8.5-.4-4.9 2.1-8.6 6.6-10.5 5.8-2.5 12.4-2.4 18.1.2 2.1.9 4.3 1.7 6.8 2.7-.8 2.2-1.7 4.2-2.5 6.4-10.6-6.8-18.4-6.8-22.5.6zM1327.8 508.2c-1 2.2-1.8 4-2.7 5.9-12.9-6.3-19.3-6-22.4 1.5 3 .6 5.8 1.3 8.6 1.8 3.3.6 6.7.7 10 1.5 4.6 1.1 7.7 4.2 7.9 8.9.2 4.9-2.7 9-7.4 9.8-5.8 1-11.9.7-17.8.4-2.6-.1-5-1.6-8.2-2.7.8-2.2 1.6-4.2 2.4-6.2 10.9 5.8 19.6 5.5 22.9-1.5-2.4-.8-4.8-1.6-7.3-2.2-3.1-.6-6.3-.7-9.5-1.2-4.6-.7-7.5-3.3-8.1-7.9s1.2-8.4 5.5-10.6c5.3-2.7 11.5-3.1 17.1-1 2.7 1 5.4 2.1 9 3.5zM1684.5 437c3.4.7 6.9 1.4 10.4 2 2.8.5 5.6.7 8.4 1.3 4.6 1.1 7.6 4 7.8 8.9s-2.6 8-7 9.7c-8.9 3.5-17.3 1.3-26.3-2.2.7-2.1 1.3-3.8 2-5.9 7.8 3.8 15.4 5.6 22.9 1.2l.6-2.1c-1.8-.9-3.5-2.2-5.4-2.6-3.5-.7-7-.8-10.5-1.4-5.8-1-9.2-4.3-9.6-9.1-.3-4.4 3-8.9 8.1-10.7 8.4-2.9 16 .3 23.9 3.5-.9 1.9-1.7 3.6-2.7 5.7-7.5-3.7-14.9-7.3-22.2-.8l-.4 2.5zM808 426h8.3v18.5c0 6.9 2 9.5 7.7 9.9 7.9.6 10.9-1.4 11.5-8.7.5-6.3.1-12.7.1-19.6l6.6-.5c0 9 .2 17.6-.1 26.2 0 3.9-3.1 7.2-7 7.6-4.8.7-9.8 1.4-14.6.9-9.5-1-12-3.9-12.3-13.3-.4-6.8-.2-13.6-.2-21zM1078.3 529.9l-2.8 8.6h-7.8l16.2-34.1h7c5.8 11.5 11.4 22.5 17.2 34.1h-10.2c-1.1-3-2-5.8-3-8.5l-16.6-.1zm13.3-5.4l-5.6-10.4-4.9 10.4h10.5zM1128.8 451.5h-16.3l-2.9 8.5h-8.1c2.9-5.8 5.8-11.3 8.5-16.8s4.9-11.1 7.6-17.2h7.2c6 11.7 11.6 22.5 17.4 33.8h-10.4c-1.1-2.7-2-5.4-3-8.3zm-13.7-5.3h10.7c-2-3.5-3.5-6.1-5.7-10l-5 10zM1357.3 460.1h-8.1c2.9-5.8 5.7-11.2 8.3-16.7s5-11.1 7.9-17.4h7.4c3 6.1 5.6 11.7 8.3 17.1s5.8 10.8 9 16.8h-10.9c-.7-2.6-1.5-5.3-2.3-8.2h-16.8c-.8 2.4-1.8 5.2-2.8 8.4zm5.4-13.9h10.8l-5.4-10.3-5.4 10.3zM1411.6 527.4c1.4 2 2.6 3.5 3.9 5.3-8.4 5.7-17 8.4-26.7 5.2-7.2-2.3-12-9-11.9-16.6.1-7.7 5.1-14.5 12.4-16.8 9.4-2.9 17.7-.1 26 5.2l-3.6 6c-4.1-5-9.1-6.1-14.8-5.8-6.8.4-11.7 4.9-11.8 11.2s4.7 11.3 11.4 11.8c5.7.5 10.7-.6 15.1-5.5zM1555 425.8h9.3l9.4 21.9 1.5-.2c3-6.9 5.9-13.8 9.2-21.5h8.6c-5.3 11.4-10.4 22.4-15.8 34h-6.7c-5.2-11.3-10.2-22.4-15.5-34.2zM859.6 459.8v-27.2h-12.8v-7h34.3v6.6h-12.6v27.6h-8.9zM1490.5 510.8h-12.3c-.1-2.3-.3-4.1-.4-6.3h34.3c.1 1.8.2 3.9.3 6.2h-12.8v27.6h-9.1v-27.5zM1404.2 453.7h22.1c.1 1.8.2 3.8.3 6.2h-30.5V426h8.1v27.7zM1718.3 426.1h8v33.8h-8v-33.8zM1525.5 504.7v33.7l-8.3.5v-34.1h8.3v-.1zM1050.2 426v33.9h-8.1V426h8.1zM1549.8 460h-8v-34h8v34z"/></svg>